<svg xmlns="http://www.w3.org/2000/svg" viewBox="0 0 1000 1000" fill="none" role="img" aria-label="Adelaide Street Circuit track layout"><path d="M931.91 527.621l0 0c7.383 6.29 9.996 16.24 6.659 25.339c-3.36 9.127 -11.762 15.022 -21.413 15.022l-1.469 -0.045l-85.53 -5.181a61.492 61.492 0 0 0 -42.813 13.96l-24.586 20.314a14.864 14.864 0 0 0 -3.849 18.206l27.089 54.109c11.76 23.496 29.567 42.997 51.489 56.4c22.79 13.937 42.792 30.212 59.445 48.371c10.637 11.594 17.285 26.187 19.235 42.201l11.14 91.675c0.999 8.267 -1.4 16.156 -6.771 22.217c-5.492 6.206 -13.405 9.763 -21.718 9.763c-8.607 0 -16.682 -3.98 -22.145 -10.929l-238.909 -303.9c-1.561 -1.993 -3.921 -3.139 -6.452 -3.139l-6.098 0.45a44.548 44.548 0 0 1 -27.281 -6.786l-41.882 -26.502c-13.845 -8.768 -30.212 -12.898 -46.56 -11.578l-204.836 15.736c-10.477 0 -19.317 -8.195 -20.136 -18.654l-8.23 -106.957l-113.72 9.425c-10.498 0 -19.338 -8.198 -20.136 -18.675l-10.342 -134.351a14.386 14.386 0 0 0 -5.912 -10.555l-29.293 -21.216a66.034 66.034 0 0 1 -27.169 -48.53l-9.63 -124.972c-1.265 -16.475 11.089 -30.908 27.547 -32.18l257.891 -19.89c2.501 -0.196 4.921 -0.819 7.199 -1.862l4.238 -1.946c11.486 -5.279 25.567 -3.297 35.164 4.878z" fill="none" stroke="currentColor" stroke-width="14" stroke-linecap="round" stroke-linejoin="round"/><path id="sf" d="M 919.182 514.893 L 944.638 540.349" fill="none" stroke="currentColor" stroke-width="6" opacity=".55"/><g id="turns"><circle cx="938.538" cy="553.019" r="9" data-turn="1" fill="currentColor" opacity="0"/><circle cx="805.652" cy="566.289" r="9" data-turn="2" fill="currentColor" opacity="0"/><circle cx="757.493" cy="606.28" r="9" data-turn="3" fill="currentColor" opacity="0"/><circle cx="815.867" cy="709.336" r="9" data-turn="4" fill="currentColor" opacity="0"/><circle cx="909.976" cy="793.932" r="9" data-turn="5" fill="currentColor" opacity="0"/><circle cx="899.087" cy="939.962" r="9" data-turn="6" fill="currentColor" opacity="0"/><circle cx="635.27" cy="623.044" r="9" data-turn="7" fill="currentColor" opacity="0"/><circle cx="607.734" cy="620.313" r="9" data-turn="8" fill="currentColor" opacity="0"/><circle cx="534.59" cy="579.822" r="9" data-turn="9" fill="currentColor" opacity="0"/><circle cx="292.51" cy="589.2" r="9" data-turn="10" fill="currentColor" opacity="0"/><circle cx="276.168" cy="468.251" r="9" data-turn="11" fill="currentColor" opacity="0"/><circle cx="149.871" cy="472.594" r="9" data-turn="12" fill="currentColor" opacity="0"/><circle cx="130.969" cy="319.552" r="9" data-turn="13" fill="currentColor" opacity="0"/><circle cx="78.289" cy="271.678" r="9" data-turn="14" fill="currentColor" opacity="0"/><circle cx="68.289" cy="95.867" r="9" data-turn="15" fill="currentColor" opacity="0"/><circle cx="375.576" cy="60.403" r="9" data-turn="16" fill="currentColor" opacity="0"/></g></svg>