<svg xmlns="http://www.w3.org/2000/svg" viewBox="0 0 1000 1000" fill="none" role="img" aria-label="Ain Diab track layout"><path d="M288.93 710.412c-43.798 3.83 -87.774 6.619 -131.613 8.939c-3.057 0.164 -6.84 0.102 -9.076 -1.489c-2.304 -1.638 -3.578 -5.236 -4.538 -8.196c-13.41 -41.244 -30.833 -82.171 -38.578 -124.417c-5.365 -29.274 0.928 -60.312 -0.758 -90.146c-0.332 -5.927 -2.318 -11.98 -5.294 -17.135c-10.639 -18.437 -25.437 -35.086 -35.551 -53.64c-2.744 -5.038 -4.409 -11.601 -3.025 -17.137c6.936 -27.741 20.698 -54.621 27.986 -82.693c6.832 -26.313 7.229 -54.801 14.372 -80.461c1.429 -5.134 6.527 -10.043 11.345 -11.921c7.284 -2.84 16.703 -3.293 24.964 -2.236c67.379 8.628 134.359 23.663 201.958 31.292c38.046 4.292 76.683 4.991 114.974 4.468c34.828 -0.471 69.923 -10.168 104.383 -7.448c44.206 3.488 88.747 14.446 131.615 26.074c16.635 4.514 31.107 15.242 46.896 22.351c10.686 4.813 21.136 10.839 32.524 13.41c19.971 4.511 40.804 6.117 61.25 8.968c8.421 1.173 16.776 2.56 24.98 4.444c9.701 2.228 19.623 6.42 27.231 12.664c18.109 14.864 35.408 32.594 49.923 50.66c3.639 4.532 6.312 11.781 4.538 17.137c-6.041 18.236 -20.127 35.166 -27.986 53.64c-6.512 15.3 -12.775 31.353 -15.128 47.681c-3.195 22.164 -5.904 45.975 -1.515 67.795c6.455 32.07 24.964 62.581 34.04 93.871c1.008 3.477 -1.255 7.747 -3.782 10.43c-23.442 24.882 -47.578 51.154 -74.127 72.266c-7.489 5.955 -18.294 8.171 -27.986 8.941c-30.903 2.457 -62.946 2.873 -93.793 0.743c-8.736 -0.602 -17.12 -5.017 -24.964 -8.939c-8.546 -4.274 -16.236 -10.284 -24.206 -15.646c-12.705 -8.546 -23.645 -20.704 -37.818 -26.076c-31.713 -12.013 -66.317 -18.697 -99.844 -26.074c-11.605 -2.556 -23.694 -4.563 -35.551 -3.727c-72.61 5.124 -145.158 15.253 -217.845 21.605z" fill="none" stroke="currentColor" stroke-width="14" stroke-linecap="round" stroke-linejoin="round"/><path id="sf" d="M 290.498 728.343 L 287.363 692.48" fill="none" stroke="currentColor" stroke-width="6" opacity=".55"/><g id="turns"><circle cx="149.467" cy="718.514" r="9" data-turn="1" fill="currentColor" opacity="0"/><circle cx="102.952" cy="487.053" r="9" data-turn="2" fill="currentColor" opacity="0"/><circle cx="60.343" cy="415.272" r="9" data-turn="3" fill="currentColor" opacity="0"/><circle cx="108.756" cy="235.458" r="9" data-turn="4" fill="currentColor" opacity="0"/><circle cx="700.693" cy="287.173" r="9" data-turn="5" fill="currentColor" opacity="0"/><circle cx="765.462" cy="318.331" r="9" data-turn="6" fill="currentColor" opacity="0"/><circle cx="874.934" cy="339.609" r="9" data-turn="7" fill="currentColor" opacity="0"/><circle cx="939.873" cy="408.272" r="9" data-turn="8" fill="currentColor" opacity="0"/><circle cx="893.979" cy="578.337" r="9" data-turn="9" fill="currentColor" opacity="0"/><circle cx="928.961" cy="680.024" r="9" data-turn="10" fill="currentColor" opacity="0"/><circle cx="844.189" cy="763.649" r="9" data-turn="11" fill="currentColor" opacity="0"/><circle cx="721.201" cy="767.751" r="9" data-turn="12" fill="currentColor" opacity="0"/><circle cx="647.288" cy="720.891" r="9" data-turn="13" fill="currentColor" opacity="0"/><circle cx="519.645" cy="688.901" r="9" data-turn="14" fill="currentColor" opacity="0"/></g></svg>