<svg xmlns="http://www.w3.org/2000/svg" viewBox="0 0 1000 1000" fill="none" role="img" aria-label="Aintree track layout"><path d="M164.058 61.036c98.587 -10.633 155.856 64.123 155.856 64.123c0 0 341.767 453.558 364.794 481.711c0 0 14.832 21.113 15.612 32.844c0.39 19.548 39.03 46.92 39.03 46.92c71.814 40.663 100.306 60.603 109.281 70.378c17.561 16.814 30.443 52.003 30.443 52.003c31.499 43.852 29.852 78.089 25.038 89.339c-5.073 11.731 -65.043 40.669 -95.681 41.647l-492.158 -1.955c-57.375 1.173 -115.53 -53.959 -126.456 -104.397l-23.414 -175.558c-3.514 -26.588 6.245 -66.08 46.834 -66.47l276.717 -7.429c20.686 0.782 23.373 -10.993 14.397 -22.33l-99.528 -139.936c-8.586 -13.294 -28.056 -14.859 -38.203 -3.912c0 0 -124.114 97.751 -134.65 100.487c-34.191 12.721 -60.496 -5.475 -69.473 -35.189c0 0 -65.959 -259.623 -68.302 -290.512c-9.367 -109.09 51.128 -129.03 69.863 -131.766z" fill="none" stroke="currentColor" stroke-width="14" stroke-linecap="round" stroke-linejoin="round"/><path id="sf" d="M 162.128 43.139 L 165.988 78.932" fill="none" stroke="currentColor" stroke-width="6" opacity=".55"/><g id="turns"><circle cx="705.298" cy="653.343" r="9" data-turn="1" fill="currentColor" opacity="0"/><circle cx="852.547" cy="761.144" r="9" data-turn="2" fill="currentColor" opacity="0"/><circle cx="903.697" cy="899.145" r="9" data-turn="3" fill="currentColor" opacity="0"/><circle cx="192.38" cy="843.054" r="9" data-turn="4" fill="currentColor" opacity="0"/><circle cx="186.597" cy="599.581" r="9" data-turn="5" fill="currentColor" opacity="0"/><circle cx="507.208" cy="579.177" r="9" data-turn="6" fill="currentColor" opacity="0"/><circle cx="387.555" cy="411.038" r="9" data-turn="7" fill="currentColor" opacity="0"/><circle cx="192.29" cy="519.012" r="9" data-turn="8" fill="currentColor" opacity="0"/><circle cx="148.698" cy="65.316" r="9" data-turn="9" fill="currentColor" opacity="0"/></g></svg>