<svg xmlns="http://www.w3.org/2000/svg" viewBox="0 0 1000 1000" fill="none" role="img" aria-label="Albert Park Circuit track layout"><path d="M 424.927 709.567 L 380.538 665.736 L 314.806 598.690 L 311.009 594.821 L 309.394 589.514 L 309.655 587.193 L 310.747 585.037 L 312.973 579.621 L 316.683 573.043 L 318.996 564.642 L 320.305 554.306 L 320.567 546.733 L 318.254 531.975 L 315.373 524.458 L 310.878 516.610 L 305.596 510.308 L 293.899 498.646 L 280.019 485.933 L 260.465 467.030 L 236.634 441.604 L 227.075 431.379 L 201.673 399.486 L 189.059 382.628 L 176.008 362.122 L 150.911 318.180 L 144.713 305.854 L 140.960 296.623 L 141.440 291.483 L 143.579 287.835 L 148.860 285.182 L 166.581 282.087 L 200.102 275.233 L 203.986 273.685 L 206.430 272.082 L 208.089 269.761 L 210.533 262.520 L 211.013 254.892 L 208.744 189.449 L 207.958 165.461 L 208.525 163.416 L 215.640 155.125 L 222.143 150.205 L 271.988 114.223 L 283.031 107.866 L 334.491 86.863 L 353.914 79.843 L 371.503 69.231 L 384.859 61.105 L 390.839 60.055 L 395.596 60.000 L 400.005 62.598 L 405.810 69.452 L 412.837 75.642 L 422.439 82.441 L 434.660 87.028 L 450.504 88.963 L 464.821 89.626 L 476.954 91.450 L 490.485 96.148 L 502.444 101.842 L 515.626 111.625 L 524.530 119.584 L 533.390 131.136 L 541.683 145.507 L 546.353 160.155 L 549.277 171.485 L 550.761 180.992 L 562.808 246.822 L 562.895 255.058 L 561.586 264.952 L 558.356 275.067 L 554.559 283.689 L 547.793 293.307 L 541.552 300.935 L 534.699 310.220 L 531.251 316.964 L 528.240 324.591 L 525.970 333.269 L 512.308 405.732 L 511.261 414.576 L 510.694 425.078 L 510.694 434.695 L 511.523 452.161 L 513.531 465.703 L 517.241 481.235 L 521.823 496.269 L 527.759 509.203 L 533.957 521.197 L 544.258 537.337 L 551.154 547.507 L 564.947 562.154 L 610.558 602.725 L 617.760 608.307 L 624.525 612.011 L 629.501 614.387 L 639.147 617.317 L 648.400 618.091 L 659.661 617.648 L 669.830 617.593 L 679.695 617.206 L 688.075 617.483 L 695.233 619.251 L 702.391 622.733 L 707.280 625.497 L 715.965 633.235 L 766.378 676.182 L 785.146 691.880 L 794.312 702.879 L 801.121 710.783 L 808.541 722.556 L 816.048 740.023 L 823.555 761.911 L 843.458 830.781 L 855.374 874.557 L 857.643 886.717 L 858.909 892.852 L 859.040 896.611 L 855.898 898.269 L 846.557 901.862 L 801.688 919.991 L 755.466 938.397 L 751.887 939.392 L 746.125 940.000 L 739.098 939.503 L 731.853 936.518 L 724.520 931.599 L 720.199 927.619 L 716.053 921.152 L 688.642 870.577 L 672.056 843.715 L 669.830 840.122 L 667.517 838.021 L 665.204 837.137 L 661.232 836.971 L 658.439 838.574 L 628.671 872.291 L 624.525 876.436 L 620.073 879.034 L 614.486 881.245 L 609.510 882.406 L 605.058 882.350 L 599.733 881.300 L 592.357 878.702 L 586.901 874.833 L 584.762 872.733 L 424.927 709.567 Z" fill="none" stroke="currentColor" stroke-width="14" stroke-linecap="round" stroke-linejoin="round"/><path id="sf" d="M 412.280 722.375 L 437.574 696.759" fill="none" stroke="currentColor" stroke-width="6" opacity=".55"/><g id="turns"><circle cx="310.342" cy="592.632" r="9" data-turn="1" fill="currentColor" opacity="0"/><circle cx="316.816" cy="528.224" r="9" data-turn="2" fill="currentColor" opacity="0"/><circle cx="141.422" cy="291.673" r="9" data-turn="3" fill="currentColor" opacity="0"/><circle cx="207.835" cy="270.116" r="9" data-turn="4" fill="currentColor" opacity="0"/><circle cx="209.824" cy="161.902" r="9" data-turn="5" fill="currentColor" opacity="0"/><circle cx="279.269" cy="110.032" r="9" data-turn="6" fill="currentColor" opacity="0"/><circle cx="352.910" cy="80.206" r="9" data-turn="7" fill="currentColor" opacity="0"/><circle cx="392.247" cy="60.039" r="9" data-turn="8" fill="currentColor" opacity="0"/><circle cx="428.192" cy="84.600" r="9" data-turn="9" fill="currentColor" opacity="0"/><circle cx="526.918" cy="122.698" r="9" data-turn="10" fill="currentColor" opacity="0"/><circle cx="561.582" cy="264.964" r="9" data-turn="11" fill="currentColor" opacity="0"/><circle cx="530.752" cy="318.228" r="9" data-turn="12" fill="currentColor" opacity="0"/><circle cx="553.124" cy="549.598" r="9" data-turn="13" fill="currentColor" opacity="0"/><circle cx="630.687" cy="614.748" r="9" data-turn="14" fill="currentColor" opacity="0"/><circle cx="696.931" cy="620.078" r="9" data-turn="15" fill="currentColor" opacity="0"/><circle cx="805.295" cy="717.406" r="9" data-turn="16" fill="currentColor" opacity="0"/><circle cx="858.993" cy="895.266" r="9" data-turn="17" fill="currentColor" opacity="0"/><circle cx="737.175" cy="938.710" r="9" data-turn="18" fill="currentColor" opacity="0"/><circle cx="663.072" cy="837.048" r="9" data-turn="19" fill="currentColor" opacity="0"/><circle cx="607.146" cy="882.376" r="9" data-turn="20" fill="currentColor" opacity="0"/></g></svg>