<svg xmlns="http://www.w3.org/2000/svg" viewBox="0 0 1000 1000" fill="none" role="img" aria-label="Circuit of the Americas track layout"><path d="M 236.509 659.656 L 315.966 722.994 L 337.914 738.360 L 354.908 748.479 L 361.205 751.477 L 363.659 752.226 L 366.391 751.745 L 368.845 750.245 L 370.512 747.729 L 371.345 745.427 L 371.068 742.643 L 353.796 692.958 L 346.110 669.989 L 344.767 662.922 L 344.489 656.872 L 344.767 649.805 L 346.110 643.219 L 348.564 634.920 L 352.407 627.853 L 356.528 621.536 L 362.270 614.950 L 368.567 610.399 L 377.087 605.099 L 423.391 576.348 L 442.329 564.462 L 446.404 560.447 L 449.969 555.628 L 452.979 551.612 L 455.479 546.044 L 457.378 541.279 L 462.332 527.412 L 465.620 522.862 L 469.741 517.561 L 475.204 514.027 L 479.603 511.725 L 490.531 507.442 L 499.051 503.159 L 503.959 499.358 L 507.015 495.610 L 509.747 490.523 L 510.812 484.473 L 512.479 474.140 L 513.312 467.555 L 514.933 460.273 L 517.155 454.973 L 519.887 449.887 L 523.453 444.854 L 527.296 440.303 L 533.038 435.270 L 539.613 430.452 L 546.743 426.436 L 554.384 423.170 L 561.005 421.618 L 566.469 421.403 L 570.868 421.618 L 577.998 423.652 L 623.469 444.586 L 627.867 446.353 L 632.498 446.353 L 636.063 444.854 L 645.139 439.286 L 655.788 430.719 L 663.475 422.903 L 671.161 412.569 L 676.903 405.770 L 682.135 401.701 L 687.877 399.184 L 692.276 398.167 L 698.573 398.167 L 705.704 400.202 L 711.168 403.200 L 715.566 407.537 L 718.021 410.535 L 720.475 414.336 L 722.697 418.619 L 725.985 422.153 L 729.828 423.652 L 733.625 423.652 L 815.582 405.502 L 820.815 403.735 L 824.102 401.968 L 826.556 399.666 L 874.527 341.415 L 916.709 290.391 L 932.869 269.725 L 939.491 257.625 L 940.000 254.573 L 939.213 251.789 L 937.268 250.290 L 934.814 248.523 L 932.082 247.774 L 929.072 247.988 L 924.951 249.005 L 837.252 277.060 L 776.132 294.193 L 708.713 310.576 L 628.145 326.745 L 577.721 335.097 L 531.093 341.897 L 393.803 357.049 L 378.476 359.833 L 376.531 361.064 L 375.698 363.580 L 375.976 365.615 L 377.921 368.399 L 386.950 378.464 L 418.205 421.403 L 431.911 443.623 L 432.744 446.888 L 431.911 451.653 L 429.966 454.973 L 426.400 457.489 L 423.391 458.239 L 417.649 458.988 L 392.182 456.954 L 389.682 455.723 L 387.505 453.688 L 385.329 451.172 L 383.384 447.638 L 378.198 433.503 L 375.976 427.935 L 372.410 422.903 L 355.695 405.770 L 353.241 403.735 L 350.231 402.450 L 347.221 401.968 L 330.783 400.469 L 327.496 400.684 L 325.551 401.968 L 323.653 404.217 L 322.819 407.269 L 323.931 410.803 L 355.695 465.574 L 368.567 489.774 L 369.679 496.359 L 369.401 502.891 L 368.336 508.192 L 366.947 513.492 L 363.381 523.343 L 358.427 534.212 L 355.139 538.495 L 349.675 542.511 L 343.378 545.562 L 317.355 557.395 L 312.123 558.680 L 306.937 558.947 L 297.352 558.198 L 288.277 556.913 L 279.525 554.129 L 269.941 550.327 L 261.421 545.295 L 255.679 541.012 L 251.836 534.480 L 221.970 492.558 L 198.679 463.272 L 195.670 460.273 L 192.104 458.721 L 187.428 457.757 L 183.306 457.971 L 177.565 459.524 L 170.712 461.773 L 164.970 464.021 L 68.751 506.211 L 63.288 509.958 L 61.111 513.492 L 60.000 517.293 L 61.111 520.077 L 63.288 522.594 L 66.019 525.110 L 116.444 565.747 L 236.509 659.656 Z" fill="none" stroke="currentColor" stroke-width="14" stroke-linecap="round" stroke-linejoin="round"/><path id="sf" d="M 247.729 645.581 L 225.289 673.731" fill="none" stroke="currentColor" stroke-width="6" opacity=".55"/><g id="turns"><circle cx="369.025" cy="749.974" r="9" data-turn="1" fill="currentColor" opacity="0"/><circle cx="346.490" cy="641.935" r="9" data-turn="2" fill="currentColor" opacity="0"/><circle cx="448.059" cy="558.209" r="9" data-turn="3" fill="currentColor" opacity="0"/><circle cx="467.787" cy="520.074" r="9" data-turn="4" fill="currentColor" opacity="0"/><circle cx="506.236" cy="496.565" r="9" data-turn="5" fill="currentColor" opacity="0"/><circle cx="564.078" cy="421.497" r="9" data-turn="6" fill="currentColor" opacity="0"/><circle cx="633.408" cy="445.971" r="9" data-turn="7" fill="currentColor" opacity="0"/><circle cx="694.369" cy="398.167" r="9" data-turn="8" fill="currentColor" opacity="0"/><circle cx="729.394" cy="423.483" r="9" data-turn="9" fill="currentColor" opacity="0"/><circle cx="823.073" cy="402.521" r="9" data-turn="10" fill="currentColor" opacity="0"/><circle cx="938.916" cy="251.560" r="9" data-turn="11" fill="currentColor" opacity="0"/><circle cx="376.149" cy="362.217" r="9" data-turn="12" fill="currentColor" opacity="0"/><circle cx="430.442" cy="454.161" r="9" data-turn="13" fill="currentColor" opacity="0"/><circle cx="389.098" cy="455.177" r="9" data-turn="14" fill="currentColor" opacity="0"/><circle cx="324.551" cy="403.153" r="9" data-turn="15" fill="currentColor" opacity="0"/><circle cx="369.668" cy="496.617" r="9" data-turn="16" fill="currentColor" opacity="0"/><circle cx="356.147" cy="537.182" r="9" data-turn="17" fill="currentColor" opacity="0"/><circle cx="308.574" cy="558.863" r="9" data-turn="18" fill="currentColor" opacity="0"/><circle cx="262.852" cy="546.140" r="9" data-turn="19" fill="currentColor" opacity="0"/><circle cx="190.029" cy="458.293" r="9" data-turn="20" fill="currentColor" opacity="0"/><circle cx="60.412" cy="515.885" r="9" data-turn="21" fill="currentColor" opacity="0"/></g></svg>