<svg xmlns="http://www.w3.org/2000/svg" viewBox="0 0 1000 1000" fill="none" role="img" aria-label="Scandinavian Raceway track layout"><path d="M928.162 204.749l0 -0.002c1.795 12.307 -1.332 24.57 -8.815 34.534l-243.554 324.535c-14.431 19.245 -37.473 30.736 -61.648 30.736c-16.669 0 -32.555 -5.257 -45.951 -15.211c-18.274 -13.583 -29.484 -34.37 -30.762 -57.04c-1.266 -22.661 7.548 -44.569 24.195 -60.089l189.293 -176.487a53.707 53.707 0 0 0 17.071 -42.365c-0.897 -15.982 -8.805 -30.641 -21.704 -40.221a53.906 53.906 0 0 0 -32.376 -10.723c-16.964 0 -32.629 7.656 -42.974 21.002l-255.576 329.739a41.761 41.761 0 0 0 -6.482 39.422c4.697 13.541 15.38 23.326 29.293 26.84c59.211 14.963 101.393 34.936 125.377 59.361c24.428 24.893 32.691 56.256 23.278 88.304c-11.138 37.878 -45.361 69.5 -85.147 78.698c-7.074 1.631 -13.998 2.457 -20.595 2.457c-49.888 0 -74.085 -45.804 -91.755 -79.254c-2.65 -5.006 -5.193 -9.838 -7.716 -14.313c-5.195 -9.222 -13.988 -20.214 -26.329 -20.214c-8.847 0 -18.304 5.578 -25.312 14.921l-129.95 173.143c-13.101 17.464 -33.187 27.48 -55.125 27.48c-20.003 0 -38.793 -8.681 -51.557 -23.818c-30.517 -36.183 -26.02 -83.636 -6.312 -109.913l386.062 -514.433a279.803 279.803 0 0 1 35.375 -38.903l198.046 -180.418c16.888 -15.404 44.041 -16.764 62.418 -3.103l140.939 104.724c10.005 7.435 16.499 18.308 18.294 30.613" fill="none" stroke="currentColor" stroke-width="14" stroke-linecap="round" stroke-linejoin="round"/><path id="sf" d="M 910.162 204.749 L 946.162 204.749" fill="none" stroke="currentColor" stroke-width="6" opacity=".55"/><g id="turns"><circle cx="928.633" cy="212.724" r="9" data-turn="1" fill="currentColor" opacity="0"/><circle cx="541.609" cy="492.772" r="9" data-turn="2" fill="currentColor" opacity="0"/><circle cx="764.36" cy="226.724" r="9" data-turn="3" fill="currentColor" opacity="0"/><circle cx="415.994" cy="595.418" r="9" data-turn="4" fill="currentColor" opacity="0"/><circle cx="458.563" cy="834.804" r="9" data-turn="5" fill="currentColor" opacity="0"/><circle cx="355.792" cy="724.465" r="9" data-turn="6" fill="currentColor" opacity="0"/><circle cx="113.468" cy="932.319" r="9" data-turn="7" fill="currentColor" opacity="0"/><circle cx="727.278" cy="61.532" r="9" data-turn="8" fill="currentColor" opacity="0"/></g></svg>