<svg xmlns="http://www.w3.org/2000/svg" viewBox="0 0 1000 1000" fill="none" role="img" aria-label="AVUS track layout"><path d="M894.673 70.866c-4.488 0.043 -9.399 0.583 -14.82 1.743l-57.204 15.964l-51.323 55.401l-635.951 693.675l-17.108 18.851c0 0 3.546 4.117 -37.156 12.964c0 0 -24.777 4.179 -20.648 40.747c0 0 9.43 24.728 37.156 17.65c0 0 15.968 1.789 43.694 -33.012l243.038 -264.856l228.273 -248.895l148.081 -161.626c0 0 17.108 -23.582 41.296 -30.069l115.007 -34.809c0 0 22.991 -7.662 22.991 -37.152c0 0 -1.938 -46.984 -45.327 -46.575z" fill="none" stroke="currentColor" stroke-width="14" stroke-linecap="round" stroke-linejoin="round"/><path id="sf" d="M 894.845 88.865 L 894.501 52.867" fill="none" stroke="currentColor" stroke-width="6" opacity=".55"/><g id="turns"><circle cx="821.528" cy="89.784" r="9" data-turn="1" fill="currentColor" opacity="0"/><circle cx="112.67" cy="860.709" r="9" data-turn="2" fill="currentColor" opacity="0"/><circle cx="65.08" cy="917.87" r="9" data-turn="3" fill="currentColor" opacity="0"/><circle cx="786.603" cy="196.075" r="9" data-turn="4" fill="currentColor" opacity="0"/><circle cx="931.92" cy="143.235" r="9" data-turn="5" fill="currentColor" opacity="0"/></g></svg>