<svg xmlns="http://www.w3.org/2000/svg" viewBox="0 0 1000 1000" fill="none" role="img" aria-label="Bahrain International Circuit track layout"><path d="M 222.233 477.142 L 229.116 230.149 L 235.633 68.393 L 238.708 61.141 L 245.152 60.000 L 252.108 61.874 L 257.307 65.704 L 290.696 99.522 L 299.775 102.945 L 309.733 102.211 L 367.798 83.387 L 381.710 81.839 L 394.304 82.654 L 775.204 156.402 L 788.237 160.232 L 795.193 167.484 L 796.878 176.774 L 795.560 185.575 L 791.240 195.516 L 783.039 205.539 L 773.520 213.607 L 760.486 223.630 L 714.576 257.774 L 677.673 296.155 L 668.593 305.038 L 661.271 317.668 L 644.796 354.990 L 639.158 363.058 L 630.445 368.762 L 621.804 373.407 L 607.965 374.955 L 566.302 368.029 L 555.026 368.436 L 543.384 370.718 L 533.792 375.688 L 522.150 386.445 L 437.578 493.603 L 429.378 500.937 L 417.662 502.811 L 410.340 497.107 L 407.704 485.536 L 408.143 467.934 L 428.499 346.515 L 440.214 270.486 L 441.972 255.492 L 439.775 241.639 L 436.773 231.290 L 430.696 220.941 L 395.989 190.953 L 391.229 188.671 L 386.030 190.138 L 383.028 195.516 L 370.434 289.310 L 366.993 351.894 L 360.915 464.430 L 356.595 582.019 L 352.202 689.177 L 353.959 706.778 L 360.915 717.209 L 371.752 722.913 L 386.909 726.010 L 402.505 724.869 L 421.982 721.039 L 441.972 711.423 L 458.813 699.526 L 475.288 682.658 L 485.319 666.115 L 503.917 617.711 L 514.315 597.339 L 524.273 585.441 L 537.306 574.685 L 552.903 565.069 L 574.576 559.691 L 598.373 559.283 L 615.288 563.195 L 637.840 573.951 L 697.223 603.450 L 709.378 612.333 L 719.775 622.682 L 724.974 632.297 L 731.417 643.054 L 731.417 652.670 L 726.219 662.611 L 715.821 672.635 L 701.543 683.391 L 251.668 935.355 L 243.468 939.593 L 230.434 940.000 L 224.796 934.622 L 204.880 892.329 L 203.122 875.461 L 203.562 843.598 L 209.200 668.805 L 222.233 477.142 Z" fill="none" stroke="currentColor" stroke-width="14" stroke-linecap="round" stroke-linejoin="round"/><path id="sf" d="M 204.240 476.641 L 240.226 477.644" fill="none" stroke="currentColor" stroke-width="6" opacity=".55"/><g id="turns"><circle cx="243.053" cy="60.372" r="9" data-turn="1" fill="currentColor" opacity="0"/><circle cx="300.018" cy="102.927" r="9" data-turn="2" fill="currentColor" opacity="0"/><circle cx="377.547" cy="82.302" r="9" data-turn="3" fill="currentColor" opacity="0"/><circle cx="795.878" cy="171.261" r="9" data-turn="4" fill="currentColor" opacity="0"/><circle cx="666.699" cy="308.304" r="9" data-turn="5" fill="currentColor" opacity="0"/><circle cx="629.223" cy="369.419" r="9" data-turn="6" fill="currentColor" opacity="0"/><circle cx="543.219" cy="370.803" r="9" data-turn="7" fill="currentColor" opacity="0"/><circle cx="416.891" cy="502.211" r="9" data-turn="8" fill="currentColor" opacity="0"/><circle cx="387.886" cy="189.614" r="9" data-turn="9" fill="currentColor" opacity="0"/><circle cx="362.314" cy="717.945" r="9" data-turn="10" fill="currentColor" opacity="0"/><circle cx="554.771" cy="564.605" r="9" data-turn="11" fill="currentColor" opacity="0"/><circle cx="731.417" cy="649.464" r="9" data-turn="12" fill="currentColor" opacity="0"/><circle cx="232.629" cy="939.931" r="9" data-turn="13" fill="currentColor" opacity="0"/></g></svg>