<svg xmlns="http://www.w3.org/2000/svg" viewBox="0 0 1000 1000" fill="none" role="img" aria-label="Baku City Circuit track layout"><path d="M 869.562 343.161 L 933.979 315.549 L 937.389 312.836 L 939.565 308.837 L 940.000 304.981 L 938.912 299.411 L 925.818 265.515 L 903.693 222.622 L 885.449 181.109 L 882.438 179.110 L 878.594 178.443 L 816.970 203.103 L 741.599 232.286 L 638.772 278.512 L 550.126 319.120 L 544.323 325.213 L 544.323 333.497 L 573.303 408.667 L 573.521 414.523 L 569.023 419.664 L 518.571 443.468 L 490.026 459.178 L 451.579 483.838 L 449.221 486.980 L 450.092 491.502 L 456.511 505.594 L 456.294 509.640 L 453.066 512.782 L 438.485 525.588 L 350.891 593.380 L 336.093 606.805 L 329.854 611.089 L 323.616 610.851 L 318.465 605.234 L 295.288 537.014 L 292.495 534.110 L 288.215 533.205 L 282.630 533.205 L 274.251 528.064 L 269.101 526.731 L 263.733 526.921 L 258.582 527.397 L 252.996 525.160 L 250.204 520.875 L 245.271 504.737 L 242.913 501.785 L 239.467 499.548 L 234.317 499.310 L 197.393 512.116 L 138.562 540.870 L 99.716 564.197 L 91.991 570.481 L 85.970 578.527 L 80.384 590.000 L 61.306 654.839 L 60.000 663.599 L 66.239 753.146 L 68.161 758.764 L 72.876 764.334 L 152.527 806.085 L 174.869 815.987 L 187.093 820.462 L 193.948 821.557 L 201.891 820.224 L 207.477 816.415 L 211.140 812.369 L 235.188 767.952 L 240.773 757.621 L 247.193 749.338 L 315.672 686.926 L 321.258 679.071 L 324.051 671.454 L 330.072 630.370 L 332.647 622.324 L 337.797 614.660 L 343.818 609.280 L 442.366 532.777 L 455.677 524.017 L 470.693 515.924 L 484.657 509.212 L 529.089 490.598 L 568.588 472.174 L 664.959 430.899 L 704.059 413.142 L 804.094 370.535 L 869.562 343.161 Z" fill="none" stroke="currentColor" stroke-width="14" stroke-linecap="round" stroke-linejoin="round"/><path id="sf" d="M 862.471 326.617 L 876.654 359.705" fill="none" stroke="currentColor" stroke-width="6" opacity=".55"/><g id="turns"><circle cx="938.654" cy="310.511" r="9" data-turn="1" fill="currentColor" opacity="0"/><circle cx="881.853" cy="179.008" r="9" data-turn="2" fill="currentColor" opacity="0"/><circle cx="544.906" cy="324.601" r="9" data-turn="3" fill="currentColor" opacity="0"/><circle cx="572.987" cy="415.133" r="9" data-turn="4" fill="currentColor" opacity="0"/><circle cx="450.819" cy="484.851" r="9" data-turn="5" fill="currentColor" opacity="0"/><circle cx="455.553" cy="510.361" r="9" data-turn="6" fill="currentColor" opacity="0"/><circle cx="324.019" cy="610.867" r="9" data-turn="7" fill="currentColor" opacity="0"/><circle cx="294.388" cy="536.078" r="9" data-turn="8" fill="currentColor" opacity="0"/><circle cx="254.458" cy="525.745" r="9" data-turn="9" fill="currentColor" opacity="0"/><circle cx="238.798" cy="499.517" r="9" data-turn="10" fill="currentColor" opacity="0"/><circle cx="89.085" cy="574.364" r="9" data-turn="11" fill="currentColor" opacity="0"/><circle cx="60.343" cy="661.300" r="9" data-turn="12" fill="currentColor" opacity="0"/><circle cx="68.470" cy="759.129" r="9" data-turn="13" fill="currentColor" opacity="0"/><circle cx="200.465" cy="820.463" r="9" data-turn="14" fill="currentColor" opacity="0"/><circle cx="244.115" cy="753.309" r="9" data-turn="15" fill="currentColor" opacity="0"/><circle cx="321.115" cy="679.272" r="9" data-turn="16" fill="currentColor" opacity="0"/><circle cx="333.555" cy="620.973" r="9" data-turn="17" fill="currentColor" opacity="0"/><circle cx="452.057" cy="526.400" r="9" data-turn="18" fill="currentColor" opacity="0"/></g></svg>