<svg xmlns="http://www.w3.org/2000/svg" viewBox="0 0 1000 1000" fill="none" role="img" aria-label="Circuito da Boavista track layout"><path d="M862.924 721.608c10.075 1.668 19.808 3.604 29.717 3.99c3.572 0.14 7.277 -2.714 9.753 -5.045c2.546 -2.394 5.707 -6.497 6.291 -10.099c0.738 -4.535 -1.402 -11.261 -2.604 -15.834c-6.755 -25.691 -10.601 -44.565 -14.608 -70.014c-1.146 -7.285 1.496 -17.342 3.966 -24.263c2.024 -5.677 7.199 -15.14 11.189 -19.762c10.285 -11.913 17.594 -19.462 29.127 -30.538c7.693 -7.391 2.832 -12.939 1.53 -17.834c-1.216 -4.571 0.08 -9.081 -2.214 -12.041c-2.37 -3.06 -7.399 -4.274 -13.462 -7.229c-210.974 -102.824 -421.748 -208.628 -633.243 -308.205c-3.692 -1.738 -9.877 0.808 -12.871 3.564c-73.668 67.848 -143.71 135.888 -213.911 205.764c-2.18 2.168 -2.126 6.129 0.244 8.557c22.393 22.927 44.741 47.031 63.541 72.208c3.934 5.271 4.246 13.106 3.966 19.686c-0.514 12.053 -4.503 24.107 -6.345 36.222c-2.388 15.706 -7.157 34.104 -7.601 49.876c-0.35 12.573 3.054 23.059 6.337 35.166c4.12 15.19 11.421 29.255 17.126 44.097c7.511 19.542 15.506 38.96 21.831 58.919c3.26 10.291 4.857 22.897 12.313 30.71c5.749 6.021 14.732 10.281 22.529 13.992c11.501 5.475 22.225 11.915 34.53 12.321c8.617 0.286 18.47 -2.98 25.893 -7.267c7.117 -4.112 11.303 -11.585 16.332 -18.482c9.511 -13.051 17.456 -26.643 27.563 -39.01c4.697 -5.743 11.187 -12.399 18.242 -14.494c15.942 -4.731 34.432 -3.536 50.616 -8.055c9.195 -2.568 18.192 -6.477 24.961 -12.927c6.449 -6.149 8.761 -16.176 14.834 -22.793c4.765 -5.195 14.588 -10.451 20.888 -14.026c39.961 -22.675 77.247 -43.499 117.898 -64.717c5.611 -2.93 13.616 -3.758 19.912 -3.712c31.242 0.218 61.587 0.826 92.703 4.501c6.687 0.788 16.542 7.077 21.262 11.791c29.931 29.887 55.824 59.957 87.388 88.998c8.089 7.443 18.65 12.601 29.483 14.366c20.88 3.396 43.245 8.037 64.891 11.621z" fill="none" stroke="currentColor" stroke-width="14" stroke-linecap="round" stroke-linejoin="round"/><path id="sf" d="M 865.865 703.85 L 859.984 739.366" fill="none" stroke="currentColor" stroke-width="6" opacity=".55"/><g id="turns"><circle cx="904.262" cy="718.592" r="9" data-turn="1" fill="currentColor" opacity="0"/><circle cx="891.837" cy="613.82" r="9" data-turn="2" fill="currentColor" opacity="0"/><circle cx="939.507" cy="538.431" r="9" data-turn="3" fill="currentColor" opacity="0"/><circle cx="283.725" cy="204.336" r="9" data-turn="4" fill="currentColor" opacity="0"/><circle cx="60.138" cy="419.32" r="9" data-turn="5" fill="currentColor" opacity="0"/><circle cx="128.515" cy="502.011" r="9" data-turn="6" fill="currentColor" opacity="0"/><circle cx="115.409" cy="604.65" r="9" data-turn="7" fill="currentColor" opacity="0"/><circle cx="170.723" cy="766.727" r="9" data-turn="8" fill="currentColor" opacity="0"/><circle cx="250.142" cy="791.464" r="9" data-turn="9" fill="currentColor" opacity="0"/><circle cx="311.934" cy="719.526" r="9" data-turn="10" fill="currentColor" opacity="0"/><circle cx="388.509" cy="699.747" r="9" data-turn="11" fill="currentColor" opacity="0"/><circle cx="409.94" cy="671.356" r="9" data-turn="12" fill="currentColor" opacity="0"/><circle cx="553.038" cy="591.902" r="9" data-turn="13" fill="currentColor" opacity="0"/><circle cx="668.171" cy="597.598" r="9" data-turn="14" fill="currentColor" opacity="0"/><circle cx="781.022" cy="704.311" r="9" data-turn="15" fill="currentColor" opacity="0"/></g></svg>