<svg xmlns="http://www.w3.org/2000/svg" viewBox="0 0 1000 1000" fill="none" role="img" aria-label="Brands Hatch track layout"><path d="M274.507 789.935l0 0c-26.41 28.352 -64.265 38.423 -98.799 26.273c-11.95 -4.201 -21.963 -10.222 -29.76 -17.913c-22.137 -21.824 -74.442 -83.24 -81.932 -181.882c-1.396 -60.528 -3.053 -121.063 -4.015 -181.599a9735.256 9735.256 0 0 1 0.724 -114.639c0.211 -16.892 2.796 -33.276 7.687 -48.713c7.94 -25.035 17.968 -44.168 29.797 -56.856c28.095 -30.164 93.957 -23.39 130.692 -6.895c30.667 13.767 108.308 51.48 139.249 73.855c19.939 14.414 24.122 30.292 24.122 41.063c0 11.905 -5.247 24.012 -14.039 32.392c-19.872 18.971 -62.562 -1.604 -79.998 -11.332c-21.13 -11.806 -69.086 -24.249 -106.791 -23.959c-14.639 0.108 -27.397 11.559 -30.333 27.223c-5.728 30.55 -15.343 86.146 -15.343 115.188c0 43.501 0 116.299 14.759 152.86c8.2 20.318 24.46 36.035 40.46 39.125c10.687 2.069 20.291 -1.561 28.549 -10.793c19.712 -22.051 76.652 -102.186 108.838 -148.002c16.808 -23.926 36.336 -45.633 58.029 -64.516l262.332 -228.436c39.215 -34.148 95.705 -30.992 131.407 7.337l136.715 146.772c7.224 7.746 11.675 17.958 12.531 28.751c0.354 4.459 0.614 9.942 0.614 16.427c0 21.857 -2.89 46.139 -8.583 72.152c-4.435 20.252 -14.469 38.479 -29.009 52.72l-71.65 70.118c-13.096 12.807 -28.058 22.956 -44.475 30.161l-36.213 15.879c-25.909 11.354 -54.99 7.724 -77.778 -9.694l-125.77 -96.11c-12.287 -9.393 -28.95 -7.897 -39.616 3.553z" fill="none" stroke="currentColor" stroke-width="14" stroke-linecap="round" stroke-linejoin="round"/><path id="sf" d="M 256.507 789.935 L 292.507 789.935" fill="none" stroke="currentColor" stroke-width="6" opacity=".55"/><g id="turns"><circle cx="158.024" cy="807.788" r="9" data-turn="1" fill="currentColor" opacity="0"/><circle cx="105.87" cy="207.902" r="9" data-turn="2" fill="currentColor" opacity="0"/><circle cx="374.59" cy="357.903" r="9" data-turn="3" fill="currentColor" opacity="0"/><circle cx="172.523" cy="326.96" r="9" data-turn="4" fill="currentColor" opacity="0"/><circle cx="212.246" cy="654.108" r="9" data-turn="5" fill="currentColor" opacity="0"/><circle cx="721.334" cy="178.732" r="9" data-turn="6" fill="currentColor" opacity="0"/><circle cx="936.199" cy="371.403" r="9" data-turn="7" fill="currentColor" opacity="0"/><circle cx="919.819" cy="503.999" r="9" data-turn="8" fill="currentColor" opacity="0"/><circle cx="809.799" cy="613.811" r="9" data-turn="9" fill="currentColor" opacity="0"/><circle cx="717.467" cy="649.19" r="9" data-turn="10" fill="currentColor" opacity="0"/><circle cx="527.058" cy="530.785" r="9" data-turn="11" fill="currentColor" opacity="0"/></g></svg>