<svg xmlns="http://www.w3.org/2000/svg" viewBox="0 0 1000 1000" fill="none" role="img" aria-label="Circuit Bremgarten track layout"><path d="M259.477 676.66c-27.386 -6.937 -33.627 -78.252 -34.031 -122.658c-0.28 -30.861 -4.348 -20.023 -15.583 -67.754l-39.007 -65.89l-40.299 -12.585c-29.463 -25.172 -53.24 -50.344 -70.519 -75.518c-1.465 -31.692 39.169 -65.624 65.522 -98.271c28.618 1.005 80.161 4.162 116.823 8.204l106.522 22.215c56.831 -1.606 98.439 -18.681 144.697 -26.922c55.619 -25.15 89.204 1.975 147.985 27.267c17.901 13.117 38.711 30.795 52.263 40.047c16.422 11.376 30.943 19.01 53.428 42.335l66.201 85.815l16.26 40.047l44.135 51.49l26.713 52.632l12.775 35.471l19.745 32.037c28.833 32.764 -40.669 43.141 -63.979 58.509l-45.296 33.028l-101.239 29.999c-26.545 2.627 -105.096 6.008 -122.746 6.378c-16.854 -3.432 -76.707 -2.593 -113.893 -3.196l-63.692 -46.751l-75.35 -46.751z" fill="none" stroke="currentColor" stroke-width="14" stroke-linecap="round" stroke-linejoin="round"/><path id="sf" d="M 255.057 694.109 L 263.897 659.211" fill="none" stroke="currentColor" stroke-width="6" opacity=".55"/><g id="turns"><circle cx="252.376" cy="673.128" r="9" data-turn="1" fill="currentColor" opacity="0"/><circle cx="224.139" cy="535.1" r="9" data-turn="2" fill="currentColor" opacity="0"/><circle cx="209.358" cy="485.395" r="9" data-turn="3" fill="currentColor" opacity="0"/><circle cx="170.524" cy="420.255" r="9" data-turn="4" fill="currentColor" opacity="0"/><circle cx="128.983" cy="406.424" r="9" data-turn="5" fill="currentColor" opacity="0"/><circle cx="60.007" cy="329.964" r="9" data-turn="6" fill="currentColor" opacity="0"/><circle cx="127.251" cy="234.045" r="9" data-turn="7" fill="currentColor" opacity="0"/><circle cx="352.286" cy="264.288" r="9" data-turn="8" fill="currentColor" opacity="0"/><circle cx="531.723" cy="227.586" r="9" data-turn="9" fill="currentColor" opacity="0"/><circle cx="643.723" cy="266.325" r="9" data-turn="10" fill="currentColor" opacity="0"/><circle cx="813.272" cy="432.702" r="9" data-turn="11" fill="currentColor" opacity="0"/><circle cx="829.997" cy="473.292" r="9" data-turn="12" fill="currentColor" opacity="0"/><circle cx="874.074" cy="524.911" r="9" data-turn="13" fill="currentColor" opacity="0"/><circle cx="938.976" cy="664.466" r="9" data-turn="14" fill="currentColor" opacity="0"/><circle cx="873.677" cy="700.477" r="9" data-turn="15" fill="currentColor" opacity="0"/><circle cx="824.985" cy="735.321" r="9" data-turn="16" fill="currentColor" opacity="0"/><circle cx="721.771" cy="766.239" r="9" data-turn="17" fill="currentColor" opacity="0"/><circle cx="486.449" cy="769.349" r="9" data-turn="18" fill="currentColor" opacity="0"/><circle cx="347.279" cy="676.066" r="9" data-turn="19" fill="currentColor" opacity="0"/></g></svg>