<svg xmlns="http://www.w3.org/2000/svg" viewBox="0 0 1000 1000" fill="none" role="img" aria-label="Buddh International Circuit track layout"><path d="M916.316 897.172l0.002 0c7.92 6.848 10.578 17.127 6.929 26.831c-3.657 9.72 -12.591 15.997 -22.759 15.997l-0.006 0c-2.319 0 -4.664 -0.33 -6.968 -0.982l-799.269 -226.195c-10.175 -2.882 -17.397 -11.145 -18.844 -21.572c-1.442 -10.429 3.26 -20.325 12.269 -25.839l301.198 -184.116a25.96 25.96 0 0 0 12.196 -26.043l-6.99 -46.688c-1.053 -7.051 -7.251 -12.366 -14.408 -12.366l-6.609 0.421a47.712 47.712 0 0 1 -32.651 -10.04l-63.667 -50.088c-12.688 -9.985 -19.754 -25.541 -18.899 -41.603l1.28 -24.19a11.182 11.182 0 0 0 -4.896 -9.886c-19.359 -13.264 -68.399 -46.765 -105.63 -71.455c-22.878 -15.165 -35.917 -40.017 -37.715 -71.874c-1.44 -25.563 16.584 -48.196 41.917 -52.641l23.091 -4.05c23.234 -4.052 46.637 7.723 57.088 28.684l81.803 164.107c8.954 17.972 29.101 28.038 49.004 24.373l25.624 -4.72c11.496 -2.108 23.49 0.492 33.052 7.219l129.898 91.35a43.701 43.701 0 0 1 18.601 36.119a43.701 43.701 0 0 1 -19.229 35.791l-193.988 131.429c-4.578 3.102 -4.005 7.792 -3.722 9.155c0.284 1.363 1.638 5.895 7.081 6.934l452.831 86.132a32.361 32.361 0 0 1 22.37 16.192a32.401 32.401 0 0 1 1.689 27.797c-20.76 51.857 -7.49 100.505 16.35 121.755c13.715 12.225 39.094 34.266 61.976 54.061" fill="none" stroke="currentColor" stroke-width="14" stroke-linecap="round" stroke-linejoin="round"/><path id="sf" d="M 916.316 879.172 L 916.316 915.172" fill="none" stroke="currentColor" stroke-width="6" opacity=".55"/><g id="turns"><circle cx="923.752" cy="922.483" r="9" data-turn="1" fill="currentColor" opacity="0"/><circle cx="75.45" cy="691.518" r="9" data-turn="2" fill="currentColor" opacity="0"/><circle cx="399.198" cy="469.448" r="9" data-turn="3" fill="currentColor" opacity="0"/><circle cx="389.239" cy="399.809" r="9" data-turn="4" fill="currentColor" opacity="0"/><circle cx="354.449" cy="394.177" r="9" data-turn="5" fill="currentColor" opacity="0"/><circle cx="262.615" cy="318.826" r="9" data-turn="6" fill="currentColor" opacity="0"/><circle cx="257.323" cy="264.002" r="9" data-turn="7" fill="currentColor" opacity="0"/><circle cx="116.685" cy="91.047" r="9" data-turn="8" fill="currentColor" opacity="0"/><circle cx="216.044" cy="69.841" r="9" data-turn="9" fill="currentColor" opacity="0"/><circle cx="335.98" cy="274.273" r="9" data-turn="10" fill="currentColor" opacity="0"/><circle cx="406.65" cy="273.537" r="9" data-turn="11" fill="currentColor" opacity="0"/><circle cx="570.924" cy="409.256" r="9" data-turn="12" fill="currentColor" opacity="0"/><circle cx="354.639" cy="586.143" r="9" data-turn="13" fill="currentColor" opacity="0"/><circle cx="836.946" cy="694.808" r="9" data-turn="14" fill="currentColor" opacity="0"/><circle cx="842.989" cy="829.666" r="9" data-turn="15" fill="currentColor" opacity="0"/></g></svg>