<svg xmlns="http://www.w3.org/2000/svg" viewBox="0 0 1000 1000" fill="none" role="img" aria-label="Circuit de Barcelona-Catalunya track layout"><path d="M 706.861 452.981 L 613.760 600.827 L 562.286 683.705 L 508.756 768.248 L 452.733 858.289 L 433.601 888.691 L 427.494 895.521 L 422.010 900.352 L 417.274 902.518 L 408.799 903.601 L 401.072 903.101 L 395.339 901.602 L 389.793 898.603 L 370.474 886.275 L 364.367 883.527 L 353.399 881.111 L 344.550 881.111 L 331.900 883.860 L 324.734 888.358 L 271.141 928.422 L 263.663 932.170 L 255.936 935.002 L 245.591 938.501 L 235.807 940.000 L 227.270 940.000 L 217.985 939.500 L 207.640 938.168 L 197.607 934.919 L 185.518 928.922 L 179.286 924.341 L 173.553 919.343 L 168.381 914.679 L 154.671 896.687 L 147.941 882.777 L 143.080 867.284 L 141.834 856.373 L 140.587 843.379 L 140.899 829.636 L 142.955 815.059 L 148.751 791.903 L 155.107 773.246 L 161.962 758.586 L 169.315 747.008 L 262.417 598.912 L 268.025 593.664 L 275.815 589.083 L 290.335 585.501 L 299.558 586.584 L 307.036 588.833 L 315.635 593.664 L 325.357 601.494 L 331.589 608.574 L 339.067 623.566 L 341.746 634.894 L 342.494 652.469 L 341.871 662.965 L 339.254 674.792 L 334.206 686.370 L 324.858 704.278 L 257.244 809.978 L 255.375 817.142 L 255.250 823.389 L 256.933 830.885 L 260.049 836.049 L 263.476 840.381 L 268.835 844.129 L 275.503 846.461 L 280.738 847.377 L 289.275 845.711 L 293.201 844.129 L 394.840 798.150 L 408.924 789.405 L 422.945 778.660 L 437.029 765.333 L 446.999 753.255 L 487.443 689.785 L 491.805 680.290 L 493.675 673.709 L 491.992 663.298 L 486.820 653.969 L 478.843 646.556 L 460.398 635.644 L 450.365 627.481 L 444.818 621.234 L 439.334 613.238 L 436.281 607.824 L 410.856 547.186 L 382.003 478.885 L 379.697 467.141 L 379.697 455.146 L 380.881 445.901 L 382.751 436.988 L 388.422 426.660 L 392.784 419.663 L 402.131 409.418 L 411.416 402.171 L 734.841 236.250 L 746.183 229.836 L 752.103 223.506 L 754.970 217.425 L 755.717 210.096 L 753.412 201.933 L 749.610 195.436 L 744.127 190.105 L 736.150 184.025 L 723.250 178.361 L 715.274 176.445 L 704.244 174.946 L 694.772 174.529 L 685.237 175.112 L 674.830 177.778 L 660.373 184.774 L 650.464 190.522 L 636.630 202.682 L 622.920 212.511 L 613.448 216.759 L 598.803 217.842 L 590.079 215.926 L 579.672 210.595 L 571.322 203.599 L 566.149 195.436 L 561.974 186.274 L 560.666 176.195 L 560.292 171.447 L 563.158 158.120 L 568.268 148.625 L 576.245 140.878 L 653.331 77.408 L 660.933 70.995 L 670.530 65.331 L 679.255 62.249 L 691.406 60.333 L 703.371 60.000 L 714.339 62.249 L 723.313 66.080 L 741.509 77.658 L 761.825 90.735 L 779.398 102.896 L 790.740 109.477 L 829.064 133.798 L 838.287 140.295 L 844.145 146.459 L 849.442 153.622 L 853.742 161.868 L 857.294 172.863 L 859.288 183.108 L 859.413 197.851 L 857.294 211.095 L 846.638 232.168 L 706.861 452.981 Z" fill="none" stroke="currentColor" stroke-width="14" stroke-linecap="round" stroke-linejoin="round"/><path id="sf" d="M 722.093 462.572 L 691.629 443.389" fill="none" stroke="currentColor" stroke-width="6" opacity=".55"/><g id="turns"><circle cx="414.034" cy="902.932" r="9" data-turn="1" fill="currentColor" opacity="0"/><circle cx="344.598" cy="881.111" r="9" data-turn="2" fill="currentColor" opacity="0"/><circle cx="197.445" cy="934.838" r="9" data-turn="3" fill="currentColor" opacity="0"/><circle cx="287.333" cy="586.242" r="9" data-turn="4" fill="currentColor" opacity="0"/><circle cx="262.886" cy="839.634" r="9" data-turn="5" fill="currentColor" opacity="0"/><circle cx="429.223" cy="772.719" r="9" data-turn="6" fill="currentColor" opacity="0"/><circle cx="492.340" cy="665.450" r="9" data-turn="7" fill="currentColor" opacity="0"/><circle cx="444.281" cy="620.450" r="9" data-turn="8" fill="currentColor" opacity="0"/><circle cx="382.234" cy="439.452" r="9" data-turn="9" fill="currentColor" opacity="0"/><circle cx="755.530" cy="211.930" r="9" data-turn="10" fill="currentColor" opacity="0"/><circle cx="584.127" cy="212.877" r="9" data-turn="11" fill="currentColor" opacity="0"/><circle cx="694.996" cy="60.233" r="9" data-turn="12" fill="currentColor" opacity="0"/><circle cx="854.297" cy="163.586" r="9" data-turn="13" fill="currentColor" opacity="0"/></g></svg>