<svg xmlns="http://www.w3.org/2000/svg" fill="none" aria-label="Charade Circuit track layout" role="img" viewBox="0 0 1000 1000"><path fill="none" stroke="currentColor" stroke-linecap="round" stroke-linejoin="round" stroke-width="14" d="M858.563 68.527q2.897 2.294 5.762 4.629l3.096 2.463q3.119 2.485 6.223 4.985a1103 1103 0 0 0 10.562 8.351q2.286 1.791 4.568 3.598a278 278 0 0 0 9.649 7.358c16.658 12.113 20.406 28.574 23.644 48.013l.954 5.624q.993 5.898 1.963 11.801.983 5.949 2.016 11.888c13.104 75.371 13.104 75.371-3.31 100.248-4.294 5.697-8.859 11.139-13.559 16.503a189 189 0 0 0-7.24 8.895c-13.285 15.096-35.315 22.322-53.093 30.572-17.301 8.079-28.395 17.498-39.979 32.686-4.26 5.571-8.731 10.958-13.212 16.351-23.691 28.655-35.366 53.412-43.122 89.621-12.081 56.048-12.081 56.048-33.413 71.323a412 412 0 0 1-6.479 4.075c-7.781 4.838-11.87 9.817-16.475 17.699-4.485 7.663-9.543 13.529-15.967 19.573-6.836 6.483-11.742 13.234-16.459 21.378-10.564 17.965-22.331 25.807-40.706 35.319-4.27 2.227-8.219 4.558-12.097 7.411-3.858 2.806-3.858 2.806-6.479 2.806-.682 7.578-.682 7.578 2.538 14.168l2.7 2.867c2.329 6.985 3.33 13.807.231 20.771-3.015 5.541-6.544 10.727-10.16 15.886a420 420 0 0 0-5.279 7.752c-9.106 13.35-17.949 22.091-32.856 28.726l-3.598 1.665a1823 1823 0 0 1-14.883 6.788c-13.523 6.136-26.091 12.274-37.869 21.38-9.86 7.435-19.598 12.272-31.51 15.458l-4.045 1.135c-12.765 3.549-25.591 6.889-38.405 10.266-21.338 5.133-21.338 5.133-41.725 13.007v6.552c16.02 4.796 34.036 8.016 50.74 5.645 7.59-1.031 14.775-1.97 21.482 2.053 4.128 4.682 4.288 8.244 4.221 14.323-.457 2.877-.457 2.877-3.322 6.152-5.76 3.074-9.998 3.659-16.294 2.049-13.921-3.025-24.211-1.133-37.177 4.503l-4.272 1.795a1385 1385 0 0 0-8.603 3.655 481 481 0 0 1-11.77 4.778l-6.796 2.715-3.18 1.224c-3.194 1.253-3.194 1.253-7.301 3.525-1.151 2.526-1.151 2.526-1.312 5.243 1.6 3.301 1.6 3.301 3.85 6.798 5.831 11.133 6.166 23.155 2.938 35.216-4.103 9.415-11.238 15.447-20.436 19.744-9.892 3.509-20.164 3.33-29.831-.906-8.84-4.991-15.397-13.318-21.73-21.086-2.885-3.172-4.613-3.107-9.003-3.444-8.467.093-16.548 2.345-24.739 4.29-13.975 3.279-27.622 6.14-42.05 6.071l-3.423-.01c-7.87-.258-14.881-1.59-20.651-7.362-.591-5.915-.656-9.145 1.965-14.497 4.187-4.92 8.798-8.895 13.756-13.021a1866 1866 0 0 0 8.597-7.289l2.337-1.99c10.207-8.763 20.168-17.898 29.681-27.413l18.341-15.726c7.277-6.239 11.115-12.853 12.067-22.436.479-10.629-2.286-19.431-9.446-27.358a158 158 0 0 0-7.943-5.815q-2.473-1.726-4.944-3.456l-2.67-1.864c-4.995-3.533-9.904-7.178-14.822-10.814l-3.182-2.349-9.675-7.151c-13.153-9.726-26.33-19.411-39.605-28.968a2489 2489 0 0 1-24.434-17.894 2014 2014 0 0 0-21.61-15.711 640 640 0 0 1-19.898-14.822c-6.347-4.936-12.822-9.634-19.405-14.252a1641 1641 0 0 1-22.109-15.726l-2.412-1.732c-6.258-4.568-11.892-9.596-16.503-15.876l-1.572-2.079c-5.939-10.879-5.677-25.037-3.222-36.962 4.122-12.542 11.448-21.998 23.08-28.316 18.136-8.122 33.949-4.958 52.397.179 12.643 3.322 21.129 2.248 32.771-3.805l5.634-2.873 2.912-1.492c4.548-2.325 9.121-4.595 13.693-6.869l5.578-2.782 2.857-1.427 18.627-9.301q8.107-4.053 16.219-8.095l15.898-7.939 5.988-2.987c34.497-17.194 50.832-32.611 65.465-68.815q1.356-3.322 2.806-6.605c3.87-8.995 5.121-17.492 6.126-27.171 1.436-12.018 5.543-21.003 13.066-30.408l1.746-2.201q1.742-2.195 3.502-4.378a506 506 0 0 0 4.26-5.381 609 609 0 0 1 7.85-9.746l1.728-2.112c7.035-8.558 14.071-16.493 22.509-23.685 7.188-6.223 10.276-12.172 12.446-21.376l.871-2.729c2.713-8.881 2.753-18.457.439-27.411-.518-5.582-.601-10.337 1.557-15.561 3.47-4.071 6.29-6.315 11.693-7.135 7.145-.361 11.293.887 16.883 5.661 3.228 4.845 2.875 7.115 2.739 12.879l-.081 5.391a1472 1472 0 0 1-.191 8.453 822 822 0 0 0-.138 8.187l-.114 4.936c.481 5.6 1.736 8.92 4.335 13.882 4.335 3.151 6.749 3.982 12.103 3.736 5.925-1.34 9.77-3.71 14.674-7.176l2.609-1.817a662 662 0 0 0 7.297-5.226l3.281-2.264c12.392-9.46 17.074-26.249 21.427-40.617 2.162-6.213 4.24-10.907 10.256-13.959 5.563-2.477 10.367-2.914 16.132-.818a98 98 0 0 1 9.198 6.061c5.072 3.523 9.673 3.63 15.695 3.111 7.561-4.554 9.659-11.35 12.82-19.163 3.44-7.951 8.146-13.598 16.002-17.527 10.223.296 17.789 3.584 26.858 8.107l3.894 1.866c21.975 10.727 21.975 10.727 28.203 21.066 4.02 5.835 6.851 8.964 13.86 10.463l3.174.43 3.582.757c4.162.528 6.836.575 10.83-.757 3.301-3.661 5.628-7.476 8.126-11.722 4.345-7.389 8.416-11.121 16.714-13.401a203 203 0 0 1 8.67-2.014 160 160 0 0 0 7.102-1.691c2.235-4.471 1.519-9.592 1.541-14.513l.093-7.409q.073-5.817.102-11.634c.089-15.918.981-29.874 6.126-45.069l1.407-4.388a481 481 0 0 1 4.325-12.483l1.431-4.166c8.093-22.639 25.683-39.877 43.93-54.963l3.18-2.68c20.761-16.396 60.746-27.506 83.586-10.467z"/><path id="sf" fill="none" stroke="currentColor" stroke-width="6" d="m869.738 54.416-22.349 28.223" opacity=".55"/><g id="turns" fill="currentColor"><circle fill="currentColor" cx="910.39" cy="112.133" r="9" data-turn="1" opacity="0"/><circle fill="currentColor" cx="934.947" cy="256.538" r="9" data-turn="2" opacity="0"/><circle fill="currentColor" cx="894.701" cy="310.514" r="9" data-turn="3" opacity="0"/><circle fill="currentColor" cx="828.228" cy="346.675" r="9" data-turn="4" opacity="0"/><circle fill="currentColor" cx="736.957" cy="528.766" r="9" data-turn="5" opacity="0"/><circle fill="currentColor" cx="705.825" cy="553.5" r="9" data-turn="6" opacity="0"/><circle fill="currentColor" cx="652.076" cy="622.666" r="9" data-turn="7" opacity="0"/><circle fill="currentColor" cx="605.359" cy="652.298" r="9" data-turn="8" opacity="0"/><circle fill="currentColor" cx="612.736" cy="682.369" r="9" data-turn="9" opacity="0"/><circle fill="currentColor" cx="579.579" cy="731.425" r="9" data-turn="10" opacity="0"/><circle fill="currentColor" cx="489.188" cy="782.005" r="9" data-turn="11" opacity="0"/><circle fill="currentColor" cx="390.552" cy="816.412" r="9" data-turn="12" opacity="0"/><circle fill="currentColor" cx="466.995" cy="837.461" r="9" data-turn="13" opacity="0"/><circle fill="currentColor" cx="426.315" cy="847.676" r="9" data-turn="14" opacity="0"/><circle fill="currentColor" cx="367.681" cy="871.875" r="9" data-turn="15" opacity="0"/><circle fill="currentColor" cx="369.831" cy="924.652" r="9" data-turn="16" opacity="0"/><circle fill="currentColor" cx="297.049" cy="912.556" r="9" data-turn="17" opacity="0"/><circle fill="currentColor" cx="201.717" cy="913.189" r="9" data-turn="18" opacity="0"/><circle fill="currentColor" cx="288.501" cy="813.905" r="9" data-turn="19" opacity="0"/><circle fill="currentColor" cx="66.487" cy="622.689" r="9" data-turn="20" opacity="0"/><circle fill="currentColor" cx="155.951" cy="563.505" r="9" data-turn="21" opacity="0"/><circle fill="currentColor" cx="302.932" cy="484.873" r="9" data-turn="22" opacity="0"/><circle fill="currentColor" cx="340.231" cy="393.772" r="9" data-turn="23" opacity="0"/><circle fill="currentColor" cx="400.161" cy="319.534" r="9" data-turn="24" opacity="0"/><circle fill="currentColor" cx="416.775" cy="259.488" r="9" data-turn="25" opacity="0"/><circle fill="currentColor" cx="442.234" cy="320.159" r="9" data-turn="26" opacity="0"/><circle fill="currentColor" cx="515.745" cy="250.148" r="9" data-turn="27" opacity="0"/><circle fill="currentColor" cx="552.937" cy="259.85" r="9" data-turn="28" opacity="0"/><circle fill="currentColor" cx="581.895" cy="223.198" r="9" data-turn="29" opacity="0"/><circle fill="currentColor" cx="629.825" cy="242.006" r="9" data-turn="30" opacity="0"/><circle fill="currentColor" cx="667.882" cy="266.123" r="9" data-turn="31" opacity="0"/><circle fill="currentColor" cx="688.95" cy="243.517" r="9" data-turn="32" opacity="0"/><circle fill="currentColor" cx="713.853" cy="233.563" r="9" data-turn="33" opacity="0"/><circle fill="currentColor" cx="844.188" cy="61.772" r="9" data-turn="34" opacity="0"/></g></svg>