<svg xmlns="http://www.w3.org/2000/svg" viewBox="0 0 1000 1000" fill="none" role="img" aria-label="Fair Park track layout"><path d="M932.373 97.73a31.064 31.064 0 0 0 -23.303 -10.721l-109.725 -0.692c-6.389 0 -12.735 1.591 -18.349 4.596l-74.902 40.011c-8.896 4.751 -13.539 14.241 -11.826 24.173c1.713 9.923 9.247 17.306 19.215 18.813c43.745 6.566 112.812 16.975 129.808 19.711c8.927 1.437 16.253 7.085 19.599 15.107c6.17 14.807 -0.372 36.842 -18.423 62.027c-42.083 58.752 -113.886 152.657 -133.481 173.588c-9.041 9.654 -24.458 13.649 -35.807 15.313c-7.689 1.125 -15.346 -1.962 -20.175 -8.014l-67.583 -84.628c-21.888 -27.417 -54.364 -45.229 -89.117 -48.852c-59.018 -6.154 -105.345 -6.031 -133.318 0.608l-137.889 55.171c-11.013 4.429 -16.379 16.998 -11.961 28.007l64.869 162.878c-23.354 11.906 -81.71 41.903 -119.129 63.07a63.226 63.226 0 0 0 -30.371 40.817l-15.656 68.295a6.742 6.742 0 0 1 -5.964 5.225l-29.536 2.767c-9.008 0.825 -16.53 7.61 -18.286 16.5l-0.66 3.387a20.422 20.422 0 0 0 3.148 15.55a20.461 20.461 0 0 0 13.282 8.675l184.872 34.435l3.561 12.32c2.322 8.034 9.153 14.052 17.4 15.323l171.787 26.641c13.024 1.983 24.84 -6.732 27.172 -20.332c0.247 -1.415 1.991 -2.105 2.983 -2.126l348.653 57.629a49.977 49.977 0 0 0 8.255 0.682c24.799 0 46.171 -18.556 49.711 -43.151c2.981 -20.601 2.652 -38.888 -0.97 -54.356c-8.463 -36.15 -7.369 -43.584 -5.852 -53.88l43.414 -300.376c1.362 -9.541 -3.871 -18.854 -12.714 -22.623l-17.12 -7.477l41.734 -309.504a31.123 31.123 0 0 0 -7.35 -24.587z" fill="none" stroke="currentColor" stroke-width="14" stroke-linecap="round" stroke-linejoin="round"/><path id="sf" d="M 918.77 109.518 L 945.977 85.943" fill="none" stroke="currentColor" stroke-width="6" opacity=".55"/><g id="turns"><circle cx="932.373" cy="97.73" r="9" data-turn="1" fill="currentColor" opacity="0"/><circle cx="791.683" cy="87.091" r="9" data-turn="2" fill="currentColor" opacity="0"/><circle cx="694.107" cy="153.901" r="9" data-turn="3" fill="currentColor" opacity="0"/><circle cx="859.133" cy="202.53" r="9" data-turn="4" fill="currentColor" opacity="0"/><circle cx="664.812" cy="458.634" r="9" data-turn="5" fill="currentColor" opacity="0"/><circle cx="526.551" cy="324.366" r="9" data-turn="6" fill="currentColor" opacity="0"/><circle cx="367.86" cy="318.126" r="9" data-turn="7" fill="currentColor" opacity="0"/><circle cx="215.546" cy="385.018" r="9" data-turn="8" fill="currentColor" opacity="0"/><circle cx="279.674" cy="564" r="9" data-turn="9" fill="currentColor" opacity="0"/><circle cx="142.449" cy="643.757" r="9" data-turn="10" fill="currentColor" opacity="0"/><circle cx="111.27" cy="741.52" r="9" data-turn="11" fill="currentColor" opacity="0"/><circle cx="60.841" cy="774.721" r="9" data-turn="12" fill="currentColor" opacity="0"/><circle cx="258.892" cy="823.022" r="9" data-turn="13" fill="currentColor" opacity="0"/><circle cx="275.019" cy="848.438" r="9" data-turn="14" fill="currentColor" opacity="0"/><circle cx="467.947" cy="875.951" r="9" data-turn="15" fill="currentColor" opacity="0"/><circle cx="484.798" cy="855.445" r="9" data-turn="16" fill="currentColor" opacity="0"/><circle cx="859.313" cy="910.367" r="9" data-turn="17" fill="currentColor" opacity="0"/><circle cx="883.438" cy="777.117" r="9" data-turn="18" fill="currentColor" opacity="0"/><circle cx="925.57" cy="448.988" r="9" data-turn="19" fill="currentColor" opacity="0"/><circle cx="898.39" cy="428.817" r="9" data-turn="20" fill="currentColor" opacity="0"/></g></svg>