<svg xmlns="http://www.w3.org/2000/svg" viewBox="0 0 1000 1000" fill="none" role="img" aria-label="Detroit Street Circuit track layout"><path d="M580.495 629.04c20.549 -8.616 2.623 -18.986 14.204 -26.038c4.964 -3.024 11.624 -6.287 13.271 -7.297c7.664 -4.703 10.413 15.908 29.415 7.93c22.371 -9.388 262.73 -111.431 281.686 -120.544c21.54 -10.357 25.27 -27.34 16.569 -44.739c-9.862 -19.721 -33.138 -19.882 -44.323 -13.256c-6.84 4.053 -45.011 29.849 -52.334 33.554c-47.498 24.025 -114.192 54.266 -133.661 62.965c-8.324 3.718 -20.244 -3.536 -24.854 -12.012c-12.842 -23.613 -37.352 -66.75 -42.528 -75.809c-4.422 -7.73 -4.947 -12.585 1.93 -16.294c14.362 -7.732 34.78 -19.162 61.584 -34.798c9.943 -5.798 28.481 -24.975 40.596 -46.947c11.877 -21.54 18.231 -31.481 22.093 -40.043c4.501 -9.969 5.753 -16.387 2.487 -25.682c-5.247 -14.914 -15.254 -37.965 -19.882 -49.156c-3.317 -8.011 -9.115 -11.047 -19.61 -4.419c-15.154 9.572 -46.117 29.272 -73.736 30.655c-20.39 1.019 -67.64 -11.453 -99.691 6.073c-17.675 9.667 -63.954 37.515 -74.291 43.081c-7.177 3.868 -6.484 9.176 -3.864 14.639c6.628 13.811 15.002 32.222 18.503 39.213c3.038 6.075 4.033 11.592 -0.828 14.36c-21.816 12.428 -237.08 139.785 -252.965 149.129c-4.696 2.76 -10.027 9.017 -7.456 13.809c2.001 3.725 12.98 25.684 15.741 31.208c3.553 7.102 3.414 10.775 -1.657 13.809c-22.644 13.53 -156.309 91.686 -176.467 102.733c-10.018 5.487 -12.69 9.729 -8.56 17.397c3.868 7.183 9.257 20.156 14.637 28.446c6.628 10.215 11.206 15.793 20.988 10.49c6.628 -3.592 37.776 -22.2 43.081 -24.854c4.971 -2.487 10.216 -1.383 13.53 4.694c6.761 12.396 10.981 20.853 14.914 28.999c3.868 8.009 5.524 14.637 4.971 21.54c-0.513 6.431 -0.901 12.51 -0.275 18.78c0.553 5.521 3.645 9.135 9.667 4.141c11.322 -9.388 21.265 -19.333 31.206 -27.618c4.91 -4.089 21.021 -16.49 45.326 -26.441c26.474 -10.842 72.314 -19.183 89.719 -25.755c39.489 -14.912 87.451 -47.312 98.59 -52.748c17.585 -8.579 20.358 21.233 46.671 11.324c23.469 -8.837 79.18 -31.823 85.605 -34.521" fill="none" stroke="currentColor" stroke-width="14" stroke-linecap="round" stroke-linejoin="round"/><path id="sf" d="M 573.535 612.44 L 587.456 645.64" fill="none" stroke="currentColor" stroke-width="6" opacity=".55"/><g id="turns"><circle cx="584.09" cy="627.292" r="9" data-turn="1" fill="currentColor" opacity="0"/><circle cx="600.923" cy="599.482" r="9" data-turn="2" fill="currentColor" opacity="0"/><circle cx="632.479" cy="605.145" r="9" data-turn="3" fill="currentColor" opacity="0"/><circle cx="938.635" cy="463.53" r="9" data-turn="4" fill="currentColor" opacity="0"/><circle cx="693.299" cy="521.026" r="9" data-turn="5" fill="currentColor" opacity="0"/><circle cx="634.883" cy="422.903" r="9" data-turn="6" fill="currentColor" opacity="0"/><circle cx="709.218" cy="376.947" r="9" data-turn="7" fill="currentColor" opacity="0"/><circle cx="768.236" cy="283.08" r="9" data-turn="8" fill="currentColor" opacity="0"/><circle cx="740.717" cy="213.595" r="9" data-turn="9" fill="currentColor" opacity="0"/><circle cx="660.521" cy="246.374" r="9" data-turn="10" fill="currentColor" opacity="0"/><circle cx="568.986" cy="247.185" r="9" data-turn="11" fill="currentColor" opacity="0"/><circle cx="473.761" cy="303.562" r="9" data-turn="12" fill="currentColor" opacity="0"/><circle cx="496.591" cy="358.656" r="9" data-turn="13" fill="currentColor" opacity="0"/><circle cx="232.773" cy="521.746" r="9" data-turn="14" fill="currentColor" opacity="0"/><circle cx="250.26" cy="569.239" r="9" data-turn="15" fill="currentColor" opacity="0"/><circle cx="60.078" cy="685.431" r="9" data-turn="16" fill="currentColor" opacity="0"/><circle cx="87.553" cy="732.941" r="9" data-turn="17" fill="currentColor" opacity="0"/><circle cx="148.193" cy="705.873" r="9" data-turn="18" fill="currentColor" opacity="0"/><circle cx="172.961" cy="750.737" r="9" data-turn="19" fill="currentColor" opacity="0"/><circle cx="175.81" cy="786.097" r="9" data-turn="20" fill="currentColor" opacity="0"/><circle cx="455.745" cy="650.76" r="9" data-turn="21" fill="currentColor" opacity="0"/><circle cx="483.465" cy="665.559" r="9" data-turn="22" fill="currentColor" opacity="0"/></g></svg>