<svg xmlns="http://www.w3.org/2000/svg" viewBox="0 0 1000 1000" fill="none" role="img" aria-label="Dijon-Prenois track layout"><path d="M166.242 693.714c184.229 -184.226 582.029 -582.22 606.065 -607.039c29.947 -30.924 62.975 -34.397 93.418 -13.346c30.595 21.158 48.171 67.701 30.595 113.595c-12.125 31.665 -23.855 42.34 -38.407 55.658c-19.205 17.577 -37.43 40.037 -40.035 73.236c-2.2 28.03 -6.512 61.517 -30.271 86.584c-33.287 35.114 -60.542 47.522 -98.625 48.499c-29.943 0.769 -44.262 0.975 -55.007 0.975c-17.904 0 -48.824 15.623 -48.824 47.524c0 29.626 11.39 44.919 28.319 62.493c13.108 13.614 24.935 25.273 31.895 31.573c6.836 6.184 21.4 24.044 27.994 31.246c17.576 19.205 44.975 58.55 55.007 73.888c27.668 42.312 -20.507 80.396 -55.984 56.637c-40.059 -26.831 -92.764 -61.195 -187.483 -121.084c-9.922 -6.272 -13.671 -8.464 -26.689 -4.229c-10.578 3.436 -16.72 6.246 -21.158 8.464c-9.113 4.558 -17.253 10.64 -22.459 24.734c-7.812 21.16 -18.23 45.894 -18.23 79.095c0 33.201 6.185 56.635 13.673 79.419c14.655 44.6 -18.667 92.437 -64.124 100.577c-43.615 7.812 -96.995 14.974 -122.059 17.253c-44.675 4.057 -97.182 -14.164 -121.735 -83.977c-20.83 -59.246 22.135 -119.786 64.124 -161.775z" fill="none" stroke="currentColor" stroke-width="14" stroke-linecap="round" stroke-linejoin="round"/><path id="sf" d="M 153.515 680.986 L 178.97 706.442" fill="none" stroke="currentColor" stroke-width="6" opacity=".55"/><g id="turns"><circle cx="825.799" cy="60.005" r="9" data-turn="1" fill="currentColor" opacity="0"/><circle cx="822.585" cy="292.695" r="9" data-turn="2" fill="currentColor" opacity="0"/><circle cx="798.292" cy="388.689" r="9" data-turn="3" fill="currentColor" opacity="0"/><circle cx="590.023" cy="478.987" r="9" data-turn="4" fill="currentColor" opacity="0"/><circle cx="734.051" cy="737.314" r="9" data-turn="5" fill="currentColor" opacity="0"/><circle cx="471.412" cy="627.887" r="9" data-turn="6" fill="currentColor" opacity="0"/><circle cx="424.245" cy="647.297" r="9" data-turn="7" fill="currentColor" opacity="0"/><circle cx="413.404" cy="847.732" r="9" data-turn="8" fill="currentColor" opacity="0"/><circle cx="97.096" cy="832.435" r="9" data-turn="9" fill="currentColor" opacity="0"/></g></svg>