<svg xmlns="http://www.w3.org/2000/svg" viewBox="0 0 1000 1000" fill="none" role="img" aria-label="Donington Park track layout"><path d="M921.941 622.328l0 0.004c14.203 17.618 20.346 39.668 17.295 62.093l-24.751 182.054c-5.151 37.846 -37.723 66.385 -75.774 66.385l-1.003 -0.006c-12.842 -0.176 -25.477 -1.265 -37.58 -3.246c-13.251 -2.171 -25.528 -7.99 -35.491 -16.828l-331.895 -294.556c-9.727 -8.642 -24.615 -10.454 -36.188 -4.357l-5.047 2.667c-8.376 4.429 -19.282 3.467 -26.766 -2.396c-35.798 -28.084 -161.187 -123.959 -271.775 -179.053c-14.08 -7.015 -21.259 -23.138 -17.082 -38.333c3.933 -14.317 17.05 -24.321 31.909 -24.321a33.049 33.049 0 0 1 16.067 4.199c44.532 24.841 155.338 88.231 222.102 140.166a7.627 7.627 0 0 0 4.721 1.635a7.529 7.529 0 0 0 6.584 -3.778l1.649 -2.863c6.123 -10.593 4.629 -23.715 -3.708 -32.666l-279.343 -299.663c-13.967 -14.982 -19.127 -35.748 -13.814 -55.546c5.284 -19.69 20.06 -34.983 39.506 -40.918c34.518 -10.529 68.208 -15.867 100.156 -15.867c78.058 0 141.985 31.283 190.01 92.985c21.196 27.231 50.934 46.263 83.731 53.584l92.261 20.6c30.475 6.809 53.606 32.188 57.548 63.161c4.015 31.477 10.273 74.606 14.817 105.25c4.525 30.55 19.098 59.308 41.031 80.982c27.413 27.094 66.997 64.936 99.909 91.36c9.586 7.701 21.186 12.283 33.546 13.251l50.352 3.952c22.567 1.772 42.813 12.451 57.024 30.069" fill="none" stroke="currentColor" stroke-width="14" stroke-linecap="round" stroke-linejoin="round"/><path id="sf" d="M 939.941 622.328 L 903.941 622.328" fill="none" stroke="currentColor" stroke-width="6" opacity=".55"/><g id="turns"><circle cx="936.732" cy="650.444" r="9" data-turn="1" fill="currentColor" opacity="0"/><circle cx="866.236" cy="927.671" r="9" data-turn="2" fill="currentColor" opacity="0"/><circle cx="780.201" cy="923.236" r="9" data-turn="3" fill="currentColor" opacity="0"/><circle cx="417.574" cy="610.872" r="9" data-turn="4" fill="currentColor" opacity="0"/><circle cx="375.356" cy="618.866" r="9" data-turn="5" fill="currentColor" opacity="0"/><circle cx="76.042" cy="396.213" r="9" data-turn="6" fill="currentColor" opacity="0"/><circle cx="354.921" cy="517.126" r="9" data-turn="7" fill="currentColor" opacity="0"/><circle cx="75.415" cy="99.456" r="9" data-turn="8" fill="currentColor" opacity="0"/><circle cx="616.572" cy="270.941" r="9" data-turn="9" fill="currentColor" opacity="0"/><circle cx="663.895" cy="463.1" r="9" data-turn="10" fill="currentColor" opacity="0"/><circle cx="796.075" cy="583.932" r="9" data-turn="11" fill="currentColor" opacity="0"/></g></svg>