<svg xmlns="http://www.w3.org/2000/svg" viewBox="0 0 1000 1000" fill="none" role="img" aria-label="Autódromo do Estoril track layout"><path d="M550.104 626.557L411.484 932.076 405.726 937.749 395.824 940 387.187 938.019 379.041 931.626 351.022 885.794 300.04 840.772 258.96 807.815 250.533 797.37 247.584 787.736 248.848 774.139 269.353 704.985 295.827 629.258 302.568 620.614 313.172 615.932 326.304 617.372 337.68 624.036 345.615 635.471 348.073 649.518 345.334 675.091 324.829 760.452 325.812 771.348 327.568 780.532 334.941 790.887 345.755 796.65 354.884 798.541 368.508 796.83 379.181 789.717 386.836 779.001 390.277 768.376 428.197 582.615 431.638 574.421 438.309 565.777 668.289 274.485 672.994 263.319 672.994 254.405 670.536 244.77 663.093 233.875 655.649 227.932 642.517 222.71 628.894 220.278 615.06 220.278 603.684 222.71 590.763 228.382 580.651 235.856 410.992 447.369 402.566 452.322 390.628 455.023 381.499 454.303 371.317 451.331 363.943 445.929 355.727 437.194 350.039 425.128 346.107 411.712 326.023 242.609 326.304 231.984 328.27 221.539 332.483 210.464 343.157 199.298 358.957 188.853 405.024 171.294 462.185 155.447 487.957 156.167 535.708 170.574 549.472 170.934 560.848 165.712 570.258 151.845 588.305 101.6 599.19 86.743 616.324 72.876 633.108 63.962 658.107 60 678.682 63.242 701.926 72.156 720.535 85.753 735.352 102.861 745.043 119.159 750.942 141.94 752.416 160.309 749.748 182.1 742.023 202.9 550.104 626.557" fill="none" stroke="currentColor" stroke-width="14" stroke-linecap="round" stroke-linejoin="round"/><path id="sf" d="M 566.498 633.988 L 533.71 619.125" fill="none" stroke="currentColor" stroke-width="6" opacity=".55"/><g id="turns"><circle cx="397.185" cy="939.691" r="9" data-turn="1" fill="currentColor" opacity="0"/><circle cx="349.061" cy="884.062" r="9" data-turn="2" fill="currentColor" opacity="0"/><circle cx="248.716" cy="791.433" r="9" data-turn="3" fill="currentColor" opacity="0"/><circle cx="319.152" cy="616.588" r="9" data-turn="4" fill="currentColor" opacity="0"/><circle cx="348.957" cy="797.313" r="9" data-turn="5" fill="currentColor" opacity="0"/><circle cx="429.96" cy="578.418" r="9" data-turn="6" fill="currentColor" opacity="0"/><circle cx="670.593" cy="244.992" r="9" data-turn="7" fill="currentColor" opacity="0"/><circle cx="381.905" cy="454.335" r="9" data-turn="8" fill="currentColor" opacity="0"/><circle cx="332.743" cy="210.192" r="9" data-turn="9" fill="currentColor" opacity="0"/><circle cx="473.447" cy="155.761" r="9" data-turn="10" fill="currentColor" opacity="0"/><circle cx="555.729" cy="168.062" r="9" data-turn="11" fill="currentColor" opacity="0"/><circle cx="639.53" cy="62.944" r="9" data-turn="12" fill="currentColor" opacity="0"/></g></svg>