<svg xmlns="http://www.w3.org/2000/svg" viewBox="0 0 1000 1000" fill="none" role="img" aria-label="Fuji Speedway track layout"><path d="M933.463 106.172l0 0c5.665 7.163 7.791 16.495 5.816 25.601l-13.928 64.392a59.143 59.143 0 0 1 -14.911 28.317l-154.286 162.895c-7.015 7.392 -9.481 18.052 -6.432 27.832c10.441 33.527 23.715 77.408 27.713 96.033c6.841 31.79 -3.987 77.236 -43.934 101.882c-14.305 8.822 -30.758 13.486 -47.581 13.486c-30.63 0 -57.956 -15.152 -73.1 -40.541c-12.997 -21.787 -31.733 -52.283 -44.689 -73.284a12.402 12.402 0 0 0 -10.615 -5.959c-2.19 0 -6.34 0.602 -9.492 4.643c-13.345 17.106 -19.89 35.997 -19.47 56.149c0.276 13.593 0.857 26.217 1.39 37.839c1.709 37.082 2.937 63.877 -6.923 82.506l-4.877 9.344c-11.444 22.1 -32.766 63.238 -54.428 91.825a108.054 108.054 0 0 1 -30.37 27.376l-141.289 85.608c-3.252 1.975 -6.944 3.021 -10.676 3.021c-6.156 0 -11.994 -2.763 -16.005 -7.582c-3.935 -4.731 -5.613 -10.981 -4.6 -17.143c1.473 -8.843 2.321 -17.117 2.525 -24.595c0.02 -0.655 -0.184 -1.22 -0.624 -1.678c-0.246 -0.25 -0.757 -0.671 -1.502 -0.671a1027.33 1027.33 0 0 0 -18.991 4.306a39.947 39.947 0 0 1 -28.726 -4.134c-12.895 -7.363 -30.791 -18.375 -42.88 -29.076c-4.203 -3.718 -7.934 -8.106 -11.106 -13.046c-18.705 -29.263 -19.654 -52.682 -2.628 -64.267c11.863 -8.079 20.647 -10.529 28.389 -12.692c7.404 -2.069 13.795 -3.851 23.622 -10.533c17.549 -11.949 26.764 -37.895 11.812 -60.623c-4.06 -6.164 -7.026 -6.164 -7.998 -6.164c-7.412 0 -18.692 11.26 -26.158 18.705c-2.679 2.673 -5.173 5.155 -7.414 7.161c-36.356 32.57 -70.614 42.636 -98.583 29.574c-11.78 -5.507 -19.409 -16.685 -20.409 -29.903c-0.995 -13.185 5.102 -25.894 15.922 -33.167l817.347 -549.871c12.743 -8.569 30.671 -5.474 40.088 6.436" fill="none" stroke="currentColor" stroke-width="14" stroke-linecap="round" stroke-linejoin="round"/><path id="sf" d="M 915.463 106.172 L 951.463 106.172" fill="none" stroke="currentColor" stroke-width="6" opacity=".55"/><g id="turns"><circle cx="920.413" cy="210.246" r="9" data-turn="1" fill="currentColor" opacity="0"/><circle cx="749.366" cy="399.592" r="9" data-turn="2" fill="currentColor" opacity="0"/><circle cx="630.565" cy="606.932" r="9" data-turn="3" fill="currentColor" opacity="0"/><circle cx="555.63" cy="506.978" r="9" data-turn="4" fill="currentColor" opacity="0"/><circle cx="527.213" cy="677.494" r="9" data-turn="5" fill="currentColor" opacity="0"/><circle cx="450.806" cy="803.387" r="9" data-turn="6" fill="currentColor" opacity="0"/><circle cx="268.722" cy="900.784" r="9" data-turn="7" fill="currentColor" opacity="0"/><circle cx="263.268" cy="855.538" r="9" data-turn="8" fill="currentColor" opacity="0"/><circle cx="224.982" cy="857.972" r="9" data-turn="9" fill="currentColor" opacity="0"/><circle cx="146.5" cy="760.348" r="9" data-turn="10" fill="currentColor" opacity="0"/><circle cx="214.012" cy="657.409" r="9" data-turn="11" fill="currentColor" opacity="0"/><circle cx="64.432" cy="697.602" r="9" data-turn="12" fill="currentColor" opacity="0"/><circle cx="930.769" cy="103.22" r="9" data-turn="13" fill="currentColor" opacity="0"/></g></svg>