<svg xmlns="http://www.w3.org/2000/svg" viewBox="0 0 1000 1000" fill="none" role="img" aria-label="Autódromo Oscar y Juan Gálvez track layout"><path d="M441.781 416.279L601.348 178.316 646.095 120.417 662.09 111.617 683.702 114.743 703.125 130.144 717.025 152.262 720.738 170.905 720.928 271.88 715.597 292.723 698.745 317.62 561.647 462.482 556.315 478.578 554.601 490.157 558.219 502.779 565.55 514.243 582.307 524.317 595.54 527.096 610.488 524.896 789.477 431.68 801.664 415.468 807.281 402.731 811.661 379.571 808.519 353.285 793.476 321.441 788.525 301.408 786.336 284.502 795.095 198.812 804.139 174.842 825.751 151.683 853.266 141.377 882.114 141.724 907.439 152.609 928.099 171.368 940 202.054 939.048 219.656 889.635 670.453 878.306 700.56 860.216 731.015 840.794 752.901 813.565 774.323 774.149 793.43 572.786 822.495 551.65 818.326 540.987 810.336 533.465 794.009 537.178 774.323 547.08 761.122 563.17 754.869 635.527 745.837 648.666 738.31 665.518 720.825 679.323 711.677 698.079 708.898 748.158 704.845 766.247 695.465 778.529 679.485 785.669 661.653 790.715 577.584 786.05 559.983 776.339 547.129 764.057 538.676 748.158 535.55 731.591 535.55 437.687 691.528 428.928 704.034 427.024 717.467 433.307 728.467 445.494 740.395 463.964 752.553 469.962 764.712 462.441 782.776 426.167 824.347 409.886 839.401 385.133 848.317 89.705 888.383 74.376 886.53 63.427 872.75 60 852.718 66.284 835.348 78.28 823.884 104.462 808.367 118.172 807.788 132.453 818.442 143.878 820.179 159.492 815.778 174.534 805.472 192.814 786.019 240.703 720.593 441.781 416.279" fill="none" stroke="currentColor" stroke-width="14" stroke-linecap="round" stroke-linejoin="round"/><path id="sf" d="M 426.793 406.311 L 456.769 426.247" fill="none" stroke="currentColor" stroke-width="6" opacity=".55"/><g id="turns"><circle cx="674.485" cy="113.41" r="9" data-turn="1" fill="currentColor" opacity="0"/><circle cx="716.56" cy="288.957" r="9" data-turn="2" fill="currentColor" opacity="0"/><circle cx="561.419" cy="507.783" r="9" data-turn="3" fill="currentColor" opacity="0"/><circle cx="805.054" cy="407.782" r="9" data-turn="4" fill="currentColor" opacity="0"/><circle cx="787.456" cy="293.152" r="9" data-turn="5" fill="currentColor" opacity="0"/><circle cx="834.401" cy="148.443" r="9" data-turn="6" fill="currentColor" opacity="0"/><circle cx="795.476" cy="783.092" r="9" data-turn="7" fill="currentColor" opacity="0"/><circle cx="533.677" cy="792.888" r="9" data-turn="8" fill="currentColor" opacity="0"/><circle cx="634.905" cy="745.915" r="9" data-turn="9" fill="currentColor" opacity="0"/><circle cx="685.12" cy="710.818" r="9" data-turn="10" fill="currentColor" opacity="0"/><circle cx="769.163" cy="691.671" r="9" data-turn="11" fill="currentColor" opacity="0"/><circle cx="769.522" cy="542.437" r="9" data-turn="12" fill="currentColor" opacity="0"/><circle cx="428.498" cy="707.066" r="9" data-turn="13" fill="currentColor" opacity="0"/><circle cx="467.117" cy="771.546" r="9" data-turn="14" fill="currentColor" opacity="0"/><circle cx="405.934" cy="840.825" r="9" data-turn="15" fill="currentColor" opacity="0"/><circle cx="63.303" cy="872.022" r="9" data-turn="16" fill="currentColor" opacity="0"/><circle cx="160.624" cy="815.003" r="9" data-turn="17" fill="currentColor" opacity="0"/></g></svg>