<svg xmlns="http://www.w3.org/2000/svg" viewBox="0 0 1000 1000" fill="none" role="img" aria-label="Prince George Circuit track layout"><path d="M732.613 813.596c-146.911 0.178 -294.019 1.199 -440.735 -0.788c-8.386 -0.115 -17.349 -2.301 -25.367 -4.724c-10.214 -3.089 -20.002 -6.777 -29.329 -11.81c-12.076 -6.515 -25.088 -13.479 -34.086 -23.621c-14.518 -16.369 -27.397 -35.685 -36.463 -55.908c-36.117 -80.564 -69.45 -163.411 -99.086 -246.456c-5.77 -16.17 -8.685 -34.135 -7.133 -51.182c6.376 -70.093 18.88 -140.664 30.914 -210.235c1.177 -6.808 4.356 -14.242 8.72 -18.899c2.771 -2.956 9.063 -5.357 12.682 -3.936c6.421 2.518 12.207 9.931 17.439 15.746c81.434 90.51 162.289 179.571 242.565 273.229c26.454 30.867 35.877 68.693 47.561 106.299c2.585 8.325 -5.821 22.528 -9.512 30.709c-3.179 7.041 -6.284 13.235 -7.927 20.473c-2.055 9.035 -1.298 20.088 1.584 29.133c3.725 11.69 9.28 24.814 18.233 33.071c13.243 12.216 31.636 23.238 48.353 28.347c7.328 2.239 17.697 -1.527 23.78 -6.3c8.978 -7.039 15.298 -18.794 21.404 -29.133c10.013 -16.958 17.335 -34.95 30.122 -48.818c10.202 -11.067 25.537 -19.824 40.425 -23.623c13.912 -3.551 35.581 -7.025 48.355 0c101.039 55.552 195.115 110.098 292.504 164.567c6.851 3.832 9.974 13.378 11.89 20.471c0.991 3.668 0.757 11.557 -3.173 11.81c-65.035 4.208 -135.811 1.494 -203.72 1.576z" fill="none" stroke="currentColor" stroke-width="14" stroke-linecap="round" stroke-linejoin="round"/><path id="sf" d="M 732.635 831.596 L 732.591 795.596" fill="none" stroke="currentColor" stroke-width="6" opacity=".55"/><g id="turns"><circle cx="208.976" cy="778.411" r="9" data-turn="1" fill="currentColor" opacity="0"/><circle cx="60.636" cy="440.25" r="9" data-turn="2" fill="currentColor" opacity="0"/><circle cx="107.983" cy="185.866" r="9" data-turn="3" fill="currentColor" opacity="0"/><circle cx="420.744" cy="585.757" r="9" data-turn="4" fill="currentColor" opacity="0"/><circle cx="401.71" cy="642.134" r="9" data-turn="5" fill="currentColor" opacity="0"/><circle cx="480.457" cy="723.236" r="9" data-turn="6" fill="currentColor" opacity="0"/><circle cx="625.076" cy="611.866" r="9" data-turn="7" fill="currentColor" opacity="0"/><circle cx="939.225" cy="809.39" r="9" data-turn="8" fill="currentColor" opacity="0"/></g></svg>