<svg xmlns="http://www.w3.org/2000/svg" viewBox="0 0 1000 1000" fill="none" role="img" aria-label="Hockenheimring track layout"><path d="M131.751 631.093L95.788 557.875 60.746 492.53 60 487.483 61.535 482.368 77.368 446.23 84.911 430.012 92.937 415.139 101.533 402.151 110.085 391.047 125.918 372.608 160.17 337.412 265.823 226.71 270.253 224.489 276.217 223.547 281.173 225.768 286.348 230.546 292.05 239.698 296.216 251.138 297.006 260.964 296.743 274.625 297.751 281.893 299.33 288.219 303.76 297.102 308.672 303.495 317.224 309.821 342.135 325.03 368.625 339.969 396.431 353.9 422.614 366.282 442.349 374.56 466.997 383.106 491.426 389.769 512.697 394.816 541.248 399.93 560.984 402.42 583.834 404.372 603.043 404.641 627.954 403.43 652.383 400.873 677.031 396.095 704.792 388.827 756.457 371.329 926.229 306.994 931.667 305.985 936.36 307.263 939.211 311.099 940 315.204 938.684 319.04 935.57 322.203 870.398 365.004 734.396 454.777 724.791 458.613 714.134 459.555 564.361 440.847 557.87 440.847 553.44 444.615 550.853 452.893 550.107 466.217 551.379 483.041 555.545 496.635 562.563 509.354 571.378 521.064 574.755 527.726 576.027 534.725 576.027 541.051 574.229 547.713 569.799 556.933 564.361 564.537 557.607 571.199 544.362 581.698 472.216 629.882 386.563 685.738 378.756 689.843 370.204 692.669 362.397 693.342 353.582 692.4 346.038 690.785 338.539 687.622 331.258 682.844 323.452 675.913 313.847 664.136 237.009 573.42 231.307 568.642 224.816 565.479 217.799 564.874 210.826 565.479 204.817 568.373 200.168 573.084 196.265 578.804 194.204 585.466 193.941 592.465 195.213 600.406 207.712 639.101 210.826 645.427 215.475 652.09 222.229 657.81 229.509 661.309 245.078 667.299 252.578 671.471 258.323 676.855 264.551 684.459 284.024 712.051 287.401 719.655 288.673 725.039 288.147 730.759 286.612 736.816 281.919 742.805 274.156 749.131 245.342 769.791 235.474 775.175 228.72 776.453 221.176 776.453 212.361 774.569 204.335 769.454 197.055 762.186 190.564 752.967 184.862 742.805 131.751 631.093" fill="none" stroke="currentColor" stroke-width="14" stroke-linecap="round" stroke-linejoin="round"/><path id="sf" d="M 115.534 638.904 L 147.968 623.282" fill="none" stroke="currentColor" stroke-width="6" opacity=".55"/><g id="turns"><circle cx="60.072" cy="487.971" r="9" data-turn="1" fill="currentColor" opacity="0"/><circle cx="95.492" cy="411.279" r="9" data-turn="2" fill="currentColor" opacity="0"/><circle cx="276.933" cy="223.868" r="9" data-turn="3" fill="currentColor" opacity="0"/><circle cx="303.637" cy="296.856" r="9" data-turn="4" fill="currentColor" opacity="0"/><circle cx="938.43" cy="310.049" r="9" data-turn="5" fill="currentColor" opacity="0"/><circle cx="723.841" cy="458.697" r="9" data-turn="6" fill="currentColor" opacity="0"/><circle cx="553.865" cy="444.254" r="9" data-turn="7" fill="currentColor" opacity="0"/><circle cx="576.027" cy="540.146" r="9" data-turn="8" fill="currentColor" opacity="0"/><circle cx="358.606" cy="692.937" r="9" data-turn="9" fill="currentColor" opacity="0"/><circle cx="208.241" cy="566.724" r="9" data-turn="10" fill="currentColor" opacity="0"/><circle cx="214.66" cy="650.922" r="9" data-turn="11" fill="currentColor" opacity="0"/><circle cx="256.07" cy="674.743" r="9" data-turn="12" fill="currentColor" opacity="0"/><circle cx="288.081" cy="731.018" r="9" data-turn="13" fill="currentColor" opacity="0"/><circle cx="218.233" cy="775.824" r="9" data-turn="14" fill="currentColor" opacity="0"/></g></svg>