<svg xmlns="http://www.w3.org/2000/svg" viewBox="0 0 1000 1000" fill="none" role="img" aria-label="Hungaroring track layout"><path d="M 305.125 722.966 L 160.200 607.064 L 117.354 573.569 L 113.488 567.112 L 111.202 560.655 L 111.855 553.391 L 114.741 547.741 L 118.933 543.948 L 124.431 541.284 L 132.489 540.073 L 144.412 540.073 L 177.621 540.880 L 199.834 544.674 L 220.141 550.727 L 241.427 559.121 L 257.542 568.242 L 269.737 576.636 L 388.040 670.261 L 396.696 674.781 L 405.080 676.718 L 413.464 676.718 L 420.270 674.378 L 427.674 671.714 L 433.445 667.194 L 438.290 661.867 L 441.502 656.944 L 444.387 650.083 L 445.367 640.559 L 445.041 635.233 L 442.482 627.968 L 440.250 620.785 L 406.387 563.318 L 402.848 552.664 L 402.195 544.270 L 404.155 537.087 L 406.714 527.967 L 409.926 519.573 L 447.327 444.995 L 513.692 310.691 L 525.615 289.383 L 539.498 270.738 L 556.865 250.560 L 560.403 244.911 L 563.017 239.180 L 563.616 232.723 L 561.710 225.459 L 531.440 111.333 L 530.787 102.616 L 531.713 94.222 L 533.999 85.828 L 537.538 77.837 L 543.962 71.380 L 551.693 65.650 L 559.750 61.534 L 567.808 60.000 L 577.825 60.323 L 587.461 62.663 L 599.112 67.587 L 612.287 75.981 L 621.651 82.438 L 632.594 90.428 L 644.190 99.549 L 658.726 114.723 L 720.572 181.713 L 723.458 188.170 L 724.437 193.174 L 724.111 198.501 L 720.899 203.021 L 715.727 207.945 L 711.535 212.142 L 709.956 215.935 L 710.283 222.796 L 711.861 230.382 L 734.400 315.291 L 739.246 326.672 L 742.784 331.272 L 746.323 335.388 L 751.169 339.263 L 756.994 341.119 L 767.937 343.379 L 814.648 350.239 L 824.339 354.033 L 830.436 358.230 L 835.608 362.427 L 840.127 369.691 L 841.706 376.148 L 843.666 383.735 L 843.666 392.129 L 842.032 401.249 L 830.436 483.010 L 830.110 497.538 L 831.089 506.659 L 833.648 516.102 L 837.241 525.303 L 882.973 598.347 L 887.491 609.324 L 888.471 616.992 L 888.798 624.175 L 887.818 631.762 L 886.185 639.430 L 882.973 646.290 L 877.801 653.070 L 799.186 741.368 L 729.283 822.403 L 705.437 849.038 L 699.612 852.428 L 694.168 853.235 L 688.996 852.428 L 684.477 849.764 L 679.958 845.648 L 632.267 791.571 L 624.536 783.984 L 588.114 754.282 L 581.690 750.892 L 575.266 748.229 L 567.481 747.099 L 560.730 747.825 L 551.693 752.022 L 546.249 758.076 L 542.383 764.613 L 540.097 770.263 L 539.498 777.931 L 540.423 785.518 L 543.635 792.701 L 547.827 798.432 L 619.691 856.302 L 632.920 868.409 L 636.786 874.946 L 639.671 884.067 L 640.978 894.721 L 639.998 904.568 L 636.786 912.962 L 632.920 920.952 L 626.823 927.813 L 616.805 934.269 L 606.516 938.466 L 595.246 940.000 L 583.324 938.466 L 572.653 934.269 L 562.690 927.409 L 305.125 722.966 Z" fill="none" stroke="currentColor" stroke-width="14" stroke-linecap="round" stroke-linejoin="round"/><path id="sf" d="M 293.882 737.024 L 316.367 708.909" fill="none" stroke="currentColor" stroke-width="6" opacity=".55"/><g id="turns"><circle cx="111.833" cy="553.643" r="9" data-turn="1" fill="currentColor" opacity="0"/><circle cx="434.999" cy="665.485" r="9" data-turn="2" fill="currentColor" opacity="0"/><circle cx="402.506" cy="548.266" r="9" data-turn="3" fill="currentColor" opacity="0"/><circle cx="525.231" cy="290.068" r="9" data-turn="4" fill="currentColor" opacity="0"/><circle cx="563.176" cy="237.463" r="9" data-turn="5" fill="currentColor" opacity="0"/><circle cx="547.016" cy="69.116" r="9" data-turn="6" fill="currentColor" opacity="0"/><circle cx="722.839" cy="186.786" r="9" data-turn="7" fill="currentColor" opacity="0"/><circle cx="711.433" cy="228.322" r="9" data-turn="8" fill="currentColor" opacity="0"/><circle cx="745.658" cy="334.615" r="9" data-turn="9" fill="currentColor" opacity="0"/><circle cx="836.570" cy="363.972" r="9" data-turn="10" fill="currentColor" opacity="0"/><circle cx="832.051" cy="510.206" r="9" data-turn="11" fill="currentColor" opacity="0"/><circle cx="888.577" cy="625.890" r="9" data-turn="12" fill="currentColor" opacity="0"/><circle cx="695.944" cy="852.972" r="9" data-turn="13" fill="currentColor" opacity="0"/><circle cx="548.189" cy="755.918" r="9" data-turn="14" fill="currentColor" opacity="0"/><circle cx="633.878" cy="918.972" r="9" data-turn="15" fill="currentColor" opacity="0"/></g></svg>