<svg xmlns="http://www.w3.org/2000/svg" viewBox="0 0 1000 1000" fill="none" role="img" aria-label="Autodromo Enzo e Dino Ferrari track layout"><path d="M 618.263 325.729 L 602.660 325.516 L 505.309 304.603 L 470.563 300.932 L 450.316 300.719 L 348.741 309.818 L 298.848 321.631 L 292.645 325.729 L 289.676 329.400 L 288.801 332.806 L 285.147 348.717 L 282.445 353.772 L 276.242 358.082 L 230.345 381.442 L 223.494 389.105 L 149.435 572.688 L 148.559 577.584 L 148.674 583.544 L 156.513 612.066 L 156.513 616.589 L 153.964 622.123 L 151.109 625.901 L 63.425 700.931 L 60.913 705.241 L 60.000 710.349 L 61.104 715.830 L 64.339 722.376 L 68.525 725.941 L 73.282 727.377 L 80.589 727.271 L 221.972 708.913 L 238.070 707.795 L 261.856 709.126 L 279.096 711.627 L 302.578 716.096 L 326.668 720.513 L 339.151 722.961 L 347.028 721.364 L 353.004 718.385 L 360.729 710.882 L 368.493 696.833 L 380.405 667.088 L 383.183 654.051 L 384.058 639.257 L 381.737 624.198 L 364.497 542.570 L 364.725 537.462 L 367.161 531.608 L 377.208 515.804 L 390.338 495.371 L 394.182 493.402 L 399.281 492.870 L 402.821 494.413 L 422.268 502.235 L 428.243 503.033 L 632.116 501.703 L 634.742 502.820 L 637.292 508.887 L 639.195 514.208 L 641.402 515.538 L 645.703 515.645 L 727.107 482.121 L 737.383 476.374 L 771.292 452.960 L 790.701 435.293 L 809.501 416.403 L 855.399 371.385 L 864.685 364.787 L 874.770 359.838 L 934.824 333.178 L 939.353 328.762 L 940.000 321.791 L 938.782 316.257 L 920.667 277.944 L 916.443 274.325 L 911.800 272.889 L 905.292 272.623 L 900.078 273.953 L 819.358 304.603 L 790.701 315.672 L 775.098 321.312 L 761.511 324.398 L 752.339 326.048 L 618.263 325.729 Z" fill="none" stroke="currentColor" stroke-width="14" stroke-linecap="round" stroke-linejoin="round"/><path id="sf" d="M 618.018 343.727 L 618.509 307.730" fill="none" stroke="currentColor" stroke-width="6" opacity=".55"/><g id="turns"><circle cx="460.425" cy="300.825" r="9" data-turn="1" fill="currentColor" opacity="0"/><circle cx="293.458" cy="325.191" r="9" data-turn="2" fill="currentColor" opacity="0"/><circle cx="280.625" cy="355.036" r="9" data-turn="3" fill="currentColor" opacity="0"/><circle cx="226.778" cy="385.431" r="9" data-turn="4" fill="currentColor" opacity="0"/><circle cx="148.564" cy="577.817" r="9" data-turn="5" fill="currentColor" opacity="0"/><circle cx="155.165" cy="619.516" r="9" data-turn="6" fill="currentColor" opacity="0"/><circle cx="62.141" cy="717.930" r="9" data-turn="7" fill="currentColor" opacity="0"/><circle cx="238.409" cy="707.814" r="9" data-turn="8" fill="currentColor" opacity="0"/><circle cx="349.141" cy="720.311" r="9" data-turn="9" fill="currentColor" opacity="0"/><circle cx="383.467" cy="649.244" r="9" data-turn="10" fill="currentColor" opacity="0"/><circle cx="364.664" cy="538.826" r="9" data-turn="11" fill="currentColor" opacity="0"/><circle cx="394.157" cy="493.414" r="9" data-turn="12" fill="currentColor" opacity="0"/><circle cx="428.116" cy="503.016" r="9" data-turn="13" fill="currentColor" opacity="0"/><circle cx="626.636" cy="501.739" r="9" data-turn="14" fill="currentColor" opacity="0"/><circle cx="646.865" cy="515.166" r="9" data-turn="15" fill="currentColor" opacity="0"/><circle cx="730.695" cy="480.114" r="9" data-turn="16" fill="currentColor" opacity="0"/><circle cx="860.418" cy="367.818" r="9" data-turn="17" fill="currentColor" opacity="0"/><circle cx="939.574" cy="326.380" r="9" data-turn="18" fill="currentColor" opacity="0"/><circle cx="914.934" cy="273.859" r="9" data-turn="19" fill="currentColor" opacity="0"/><circle cx="759.272" cy="324.801" r="9" data-turn="20" fill="currentColor" opacity="0"/></g></svg>