<svg xmlns="http://www.w3.org/2000/svg" viewBox="0 0 1000 1000" fill="none" role="img" aria-label="Indianapolis Motor Speedway track layout"><path d="M298.653 602.158L294.58 212.113 296.178 206.141 299.117 203.122 303.963 201.645 315.253 201.377 332.679 201.444 339.536 200.505 345.825 198.089 350.929 195.204 356.136 189.299 359.487 181.918 360.312 174.94 359.9 167.425 357.941 146.021 357.941 138.573 358.766 131.393 362.168 118.577 368.973 104.352 376.913 93.616 382.945 87.779 392.534 80.599 410.63 71.474 432.489 61.476 437.902 60 444.862 60.403 450.224 62.416 460.277 69.26 467.649 78.385 469.969 82.679 472.65 89.993 473.423 96.502 473.939 115.222 474.042 142.8 474.609 163.735 474.042 169.304 471.877 176.618 467.907 184.401 461.927 190.843 388.925 243.314 381.656 251.299 377.428 261.632 377.016 267.134 378.253 276.259 380.315 282.499 386.657 290.82 392.431 296.188 398.463 299.878 406.505 302.897 414.29 303.77 422.436 303.434 432.747 300.482 457.493 283.506 463.164 280.554 468.577 279.547 473.939 279.883 481.982 283.707 488.838 290.35 495.283 301.958 497.5 308.601 498.17 314.975 501.572 628.997 502.655 636.647 503.48 638.458 506.109 644.296 511.11 650.872 518.173 657.112 521.885 659.259 530.598 662.681 537.3 664.023 542.816 664.694 564.418 663.419 574.058 663.083 581.276 664.09 589.319 667.646 593.804 670.666 598.238 675.228 600.764 679.321 603.135 685.36 604.837 691.668 607.569 697.639 610.508 702.068 614.941 705.691 620.097 708.241 625.098 709.851 629.944 710.522 638.244 710.657 682.272 707.637 688.046 709.247 693.459 713.072 696.089 716.964 698.46 721.661 703.152 737.429 705.42 752.526 705.317 761.115 704.647 769.032 699.388 803.655 692.686 848.813 689.644 858.676 685.829 869.613 676.704 883.973 666.703 897.124 656.856 906.518 639.894 917.79 621.128 926.043 607.208 929.935 589.422 932.619 541.631 936.377 480.28 939.128 444.45 940 430.633 938.457 416.146 935.437 405.835 932.284 399.442 929.667 382.017 921.347 371.087 914.771 353.043 901.016 342.423 889.408 336.597 883.302 328.606 873.035 315.563 851.698 307.211 830.159 302.88 808.218 301.591 795.872 300.251 777.218 298.653 602.158" fill="none" stroke="currentColor" stroke-width="14" stroke-linecap="round" stroke-linejoin="round"/><path id="sf" d="M 280.654 602.338 L 316.652 601.977" fill="none" stroke="currentColor" stroke-width="6" opacity=".55"/><g id="turns"><circle cx="297.48" cy="204.803" r="9" data-turn="1" fill="currentColor" opacity="0"/><circle cx="354.016" cy="191.703" r="9" data-turn="2" fill="currentColor" opacity="0"/><circle cx="372.214" cy="99.97" r="9" data-turn="3" fill="currentColor" opacity="0"/><circle cx="449.842" cy="62.272" r="9" data-turn="4" fill="currentColor" opacity="0"/><circle cx="470.662" cy="179" r="9" data-turn="5" fill="currentColor" opacity="0"/><circle cx="377.484" cy="270.588" r="9" data-turn="6" fill="currentColor" opacity="0"/><circle cx="476.975" cy="281.326" r="9" data-turn="7" fill="currentColor" opacity="0"/><circle cx="511" cy="650.727" r="9" data-turn="8" fill="currentColor" opacity="0"/><circle cx="587.872" cy="667.007" r="9" data-turn="9" fill="currentColor" opacity="0"/><circle cx="617.168" cy="706.792" r="9" data-turn="10" fill="currentColor" opacity="0"/><circle cx="690.953" cy="711.301" r="9" data-turn="11" fill="currentColor" opacity="0"/><circle cx="658.952" cy="904.518" r="9" data-turn="12" fill="currentColor" opacity="0"/><circle cx="418.871" cy="936.005" r="9" data-turn="13" fill="currentColor" opacity="0"/></g></svg>