<svg xmlns="http://www.w3.org/2000/svg" viewBox="0 0 1000 1000" fill="none" role="img" aria-label="Autódromo José Carlos Pace - Interlagos track layout"><path d="M 275.988 691.666 L 325.227 882.211 L 330.441 902.283 L 335.656 913.860 L 347.453 931.411 L 353.522 936.359 L 362.242 939.907 L 370.876 940.000 L 380.364 938.039 L 385.323 935.425 L 400.710 921.235 L 415.670 904.617 L 421.568 900.229 L 429.262 897.522 L 437.041 897.055 L 448.325 900.696 L 472.260 915.353 L 491.238 923.195 L 505.343 926.836 L 518.251 928.517 L 530.048 929.170 L 547.401 927.116 L 560.651 924.222 L 576.979 918.341 L 592.281 909.472 L 607.411 897.615 L 619.636 884.732 L 629.295 871.008 L 636.476 858.124 L 642.460 843.654 L 665.883 766.259 L 675.799 727.422 L 692.725 661.511 L 713.412 577.301 L 749.743 439.317 L 762.822 389.557 L 772.055 354.640 L 776.329 338.396 L 777.953 328.126 L 776.927 318.511 L 774.534 311.975 L 769.319 304.227 L 759.916 297.691 L 748.974 293.117 L 733.159 289.849 L 685.886 280.513 L 667.421 278.460 L 655.967 279.300 L 641.947 281.260 L 628.697 285.181 L 616.986 292.090 L 605.873 298.625 L 594.760 307.774 L 584.074 319.631 L 569.456 338.209 L 521.414 403.094 L 493.204 443.051 L 469.183 477.220 L 442.854 511.763 L 429.005 530.995 L 418.320 545.466 L 410.882 553.681 L 402.590 558.816 L 390.794 563.017 L 377.800 564.698 L 358.309 564.231 L 345.316 562.084 L 334.972 558.816 L 325.740 554.615 L 309.925 546.026 L 302.061 539.024 L 296.846 532.115 L 291.802 522.126 L 287.956 508.589 L 283.168 488.610 L 279.236 470.312 L 273.936 436.703 L 272.910 422.792 L 273.167 408.695 L 276.501 397.959 L 281.886 392.544 L 285.648 390.583 L 290.349 388.996 L 296.761 388.250 L 303.514 389.930 L 310.609 392.731 L 329.758 407.295 L 337.451 411.869 L 343.435 414.390 L 349.846 415.697 L 355.745 416.164 L 362.242 415.324 L 371.132 412.056 L 381.647 403.374 L 387.545 394.598 L 390.708 384.982 L 391.221 376.766 L 389.939 367.244 L 386.348 359.775 L 378.142 347.732 L 370.705 340.263 L 344.461 314.589 L 330.954 299.092 L 321.637 285.275 L 314.883 266.790 L 309.669 243.823 L 307.275 229.913 L 305.993 217.403 L 306.848 207.133 L 310.865 200.132 L 314.199 195.930 L 319.585 194.157 L 324.030 193.036 L 329.758 193.970 L 336.425 196.677 L 368.482 233.181 L 396.179 263.802 L 400.966 267.723 L 411.310 274.912 L 420.799 279.113 L 428.663 281.447 L 438.323 283.034 L 447.299 284.061 L 457.642 284.154 L 473.884 281.820 L 486.280 277.806 L 499.444 270.244 L 512.780 259.414 L 520.217 249.612 L 528.167 238.595 L 549.453 205.080 L 572.961 165.682 L 599.547 122.644 L 601.256 117.602 L 601.684 111.627 L 600.060 105.746 L 596.982 99.397 L 591.084 93.889 L 577.150 86.607 L 556.890 79.232 L 515.772 63.734 L 507.736 61.587 L 497.478 60.000 L 476.791 62.241 L 458.668 65.321 L 419.003 73.817 L 405.839 78.298 L 379.681 89.221 L 366.772 94.916 L 335.998 111.534 L 323.774 119.843 L 313.345 129.179 L 302.744 138.982 L 294.111 149.158 L 286.417 161.108 L 279.407 176.325 L 273.765 192.569 L 264.875 225.712 L 255.215 267.443 L 248.804 306.747 L 237.776 348.665 L 230.681 380.221 L 224.526 402.067 L 222.474 417.938 L 222.047 439.504 L 223.244 465.084 L 226.065 484.222 L 230.852 506.535 L 239.144 538.651 L 263.336 640.412 L 275.988 691.666 Z" fill="none" stroke="currentColor" stroke-width="14" stroke-linecap="round" stroke-linejoin="round"/><path id="sf" d="M 293.415 687.162 L 258.560 696.169" fill="none" stroke="currentColor" stroke-width="6" opacity=".55"/><g id="turns"><circle cx="362.144" cy="939.867" r="9" data-turn="1" fill="currentColor" opacity="0"/><circle cx="430.341" cy="897.457" r="9" data-turn="2" fill="currentColor" opacity="0"/><circle cx="573.297" cy="919.667" r="9" data-turn="3" fill="currentColor" opacity="0"/><circle cx="772.765" cy="309.347" r="9" data-turn="4" fill="currentColor" opacity="0"/><circle cx="637.519" cy="282.571" r="9" data-turn="5" fill="currentColor" opacity="0"/><circle cx="400.548" cy="559.543" r="9" data-turn="6" fill="currentColor" opacity="0"/><circle cx="302.618" cy="539.520" r="9" data-turn="7" fill="currentColor" opacity="0"/><circle cx="282.210" cy="392.375" r="9" data-turn="8" fill="currentColor" opacity="0"/><circle cx="379.786" cy="404.910" r="9" data-turn="9" fill="currentColor" opacity="0"/><circle cx="315.533" cy="195.491" r="9" data-turn="10" fill="currentColor" opacity="0"/><circle cx="484.281" cy="278.453" r="9" data-turn="11" fill="currentColor" opacity="0"/><circle cx="600.040" cy="105.705" r="9" data-turn="12" fill="currentColor" opacity="0"/><circle cx="499.176" cy="60.263" r="9" data-turn="13" fill="currentColor" opacity="0"/><circle cx="293.356" cy="150.329" r="9" data-turn="14" fill="currentColor" opacity="0"/><circle cx="222.415" cy="420.922" r="9" data-turn="15" fill="currentColor" opacity="0"/></g></svg>