<svg xmlns="http://www.w3.org/2000/svg" viewBox="0 0 1000 1000" fill="none" role="img" aria-label="Intercity Istanbul Park track layout"><path d="M 370.044 837.834 L 506.020 807.691 L 516.693 802.801 L 521.651 793.156 L 520.285 785.252 L 511.483 748.812 L 506.273 729.655 L 506.273 715.387 L 509.864 694.957 L 522.207 673.053 L 542.493 653.561 L 583.467 629.313 L 607.142 619.466 L 636.634 609.619 L 690.609 599.371 L 725.109 597.763 L 744.383 597.562 L 771.800 601.514 L 783.739 599.840 L 796.689 594.012 L 809.032 581.687 L 815.305 567.218 L 818.036 553.085 L 812.168 508.340 L 813.635 499.297 L 819.908 493.469 L 829.519 493.469 L 858.607 497.019 L 884.355 497.019 L 898.165 493.469 L 904.235 486.369 L 905.601 477.862 L 898.469 438.475 L 893.865 429.700 L 884.861 422.801 L 663.495 310.201 L 649.483 299.550 L 644.475 289.503 L 644.879 279.656 L 647.611 271.149 L 653.884 264.451 L 672.499 253.130 L 688.434 249.379 L 701.991 248.508 L 769.575 260.900 L 825.473 274.029 L 853.700 282.201 L 867.510 285.149 L 876.312 282.871 L 920.423 258.556 L 925.886 251.054 L 940.000 208.385 L 939.798 197.735 L 935.801 188.089 L 918.855 159.286 L 903.831 141.937 L 880.814 119.631 L 870.140 114.808 L 854.206 113.536 L 832.453 116.282 L 552.003 199.677 L 535.663 208.653 L 530.048 216.021 L 530.858 225.801 L 541.127 242.346 L 548.006 256.346 L 548.006 272.087 L 458.671 549.133 L 447.593 563.333 L 430.140 579.611 L 68.195 775.874 L 61.467 782.974 L 60.000 792.620 L 61.669 801.596 L 69.207 811.040 L 77.149 813.988 L 101.228 812.045 L 107.905 814.992 L 111.295 820.016 L 110.435 831.337 L 103.555 873.068 L 104.567 881.039 L 110.232 886.464 L 118.377 886.464 L 370.044 837.834 Z" fill="none" stroke="currentColor" stroke-width="14" stroke-linecap="round" stroke-linejoin="round"/><path id="sf" d="M 366.148 820.261 L 373.939 855.407" fill="none" stroke="currentColor" stroke-width="6" opacity=".55"/><g id="turns"><circle cx="517.909" cy="800.436" r="9" data-turn="1" fill="currentColor" opacity="0"/><circle cx="509.329" cy="698.004" r="9" data-turn="2" fill="currentColor" opacity="0"/><circle cx="798.113" cy="592.590" r="9" data-turn="3" fill="currentColor" opacity="0"/><circle cx="815.515" cy="497.550" r="9" data-turn="4" fill="currentColor" opacity="0"/><circle cx="901.726" cy="489.304" r="9" data-turn="5" fill="currentColor" opacity="0"/><circle cx="894.863" cy="431.602" r="9" data-turn="6" fill="currentColor" opacity="0"/><circle cx="644.665" cy="284.882" r="9" data-turn="7" fill="currentColor" opacity="0"/><circle cx="869.802" cy="284.556" r="9" data-turn="8" fill="currentColor" opacity="0"/><circle cx="922.291" cy="255.992" r="9" data-turn="9" fill="currentColor" opacity="0"/><circle cx="939.825" cy="199.172" r="9" data-turn="10" fill="currentColor" opacity="0"/><circle cx="870.614" cy="115.022" r="9" data-turn="11" fill="currentColor" opacity="0"/><circle cx="530.257" cy="215.748" r="9" data-turn="12" fill="currentColor" opacity="0"/><circle cx="548.006" cy="262.343" r="9" data-turn="13" fill="currentColor" opacity="0"/><circle cx="454.662" cy="554.271" r="9" data-turn="14" fill="currentColor" opacity="0"/><circle cx="61.180" cy="798.966" r="9" data-turn="15" fill="currentColor" opacity="0"/><circle cx="109.341" cy="817.120" r="9" data-turn="16" fill="currentColor" opacity="0"/><circle cx="107.549" cy="883.895" r="9" data-turn="17" fill="currentColor" opacity="0"/></g></svg>