<svg xmlns="http://www.w3.org/2000/svg" viewBox="0 0 1000 1000" fill="none" role="img" aria-label="Autódromo Internacional Nelson Piquet track layout"><path d="M 446.203 290.575 L 639.305 291.933 L 665.807 295.101 L 685.976 304.697 L 703.978 324.159 L 714.562 342.535 L 719.896 363.718 L 719.896 387.435 L 715.312 410.428 L 700.811 428.804 L 686.309 444.012 L 666.474 451.434 L 655.890 452.521 L 549.463 449.624 L 531.045 456.504 L 520.127 467.185 L 511.959 479.134 L 508.459 494.342 L 508.126 622.342 L 513.043 637.731 L 520.794 649.046 L 530.711 658.913 L 548.046 668.146 L 563.631 671.677 L 581.966 672.763 L 595.467 671.677 L 617.386 659.637 L 739.314 574.455 L 788.986 523.672 L 799.987 512.356 L 801.737 503.123 L 801.404 363.265 L 807.737 348.781 L 825.739 339.639 L 849.075 337.104 L 876.661 348.510 L 894.746 354.937 L 913.831 356.295 L 928.999 344.255 L 940.000 322.349 L 939.250 300.080 L 927.249 280.980 L 910.247 267.220 L 895.412 261.155 L 755.399 231.826 L 371.113 224.765 L 128.590 231.826 L 105.588 239.973 L 86.503 252.737 L 73.085 270.026 L 65.250 289.851 L 60.000 309.947 L 60.333 326.965 L 62.084 346.790 L 65.250 364.442 L 73.751 380.736 L 85.419 397.302 L 100.254 411.423 L 117.589 423.101 L 143.425 431.248 L 176.678 439.033 L 202.430 446.456 L 210.931 455.146 L 220.849 470.716 L 222.432 484.385 L 220.265 501.675 L 198.346 620.893 L 197.346 633.205 L 197.680 648.774 L 200.847 660.452 L 206.847 673.849 L 214.265 685.165 L 223.515 692.588 L 324.775 770.347 L 336.776 774.873 L 349.861 775.235 L 365.446 771.343 L 378.530 762.924 L 391.281 746.992 L 395.115 733.232 L 399.365 461.482 L 394.115 448.447 L 384.864 439.576 L 370.779 431.791 L 147.508 378.473 L 134.757 367.520 L 127.006 352.674 L 123.756 337.104 L 129.090 319.814 L 136.507 306.326 L 149.592 295.735 L 169.010 289.760 L 446.203 290.575 Z" fill="none" stroke="currentColor" stroke-width="14" stroke-linecap="round" stroke-linejoin="round"/><path id="sf" d="M 446.330 272.576 L 446.077 308.575" fill="none" stroke="currentColor" stroke-width="6" opacity=".55"/><g id="turns"><circle cx="684.249" cy="303.875" r="9" data-turn="1" fill="currentColor" opacity="0"/><circle cx="682.682" cy="445.369" r="9" data-turn="2" fill="currentColor" opacity="0"/><circle cx="524.763" cy="462.650" r="9" data-turn="3" fill="currentColor" opacity="0"/><circle cx="521.500" cy="649.749" r="9" data-turn="4" fill="currentColor" opacity="0"/><circle cx="800.158" cy="511.452" r="9" data-turn="5" fill="currentColor" opacity="0"/><circle cx="810.223" cy="347.519" r="9" data-turn="6" fill="currentColor" opacity="0"/><circle cx="920.897" cy="350.686" r="9" data-turn="7" fill="currentColor" opacity="0"/><circle cx="755.468" cy="231.840" r="9" data-turn="8" fill="currentColor" opacity="0"/><circle cx="85.606" cy="253.892" r="9" data-turn="9" fill="currentColor" opacity="0"/><circle cx="69.344" cy="372.288" r="9" data-turn="10" fill="currentColor" opacity="0"/><circle cx="215.107" cy="461.702" r="9" data-turn="11" fill="currentColor" opacity="0"/><circle cx="202.700" cy="664.590" r="9" data-turn="12" fill="currentColor" opacity="0"/><circle cx="359.932" cy="772.720" r="9" data-turn="13" fill="currentColor" opacity="0"/><circle cx="391.004" cy="445.464" r="9" data-turn="14" fill="currentColor" opacity="0"/><circle cx="126.726" cy="351.331" r="9" data-turn="15" fill="currentColor" opacity="0"/></g></svg>