<svg xmlns="http://www.w3.org/2000/svg" viewBox="0 0 1000 1000" fill="none" role="img" aria-label="Jarama track layout"><path d="M584.134 140.587c19.248 57.982 196.864 600.906 234.546 713.507c10.589 31.656 5.653 39.729 -4.286 49.509c-17.928 17.638 -25.185 24.122 -33.799 30.639c-16.913 12.796 -34.946 2.534 -48.854 -13.851c-32.288 -38.053 -65.988 -78.162 -76.04 -91.145c-15.027 -19.405 -17.404 -30.963 -12.028 -59.753c5.411 -28.988 20.449 -100.579 25.866 -137.262c3.813 -25.861 -16.844 -44.375 -37.894 -47.922c-14.422 -2.43 -23.543 5.952 -28.258 18.338c-7.218 18.935 -22.162 57.062 -28.268 71.59c-7.218 17.155 -41.499 19.523 -40.891 -9.468c0.577 -27.804 -1.209 -139.033 -1.209 -171.574c0 -24.848 -20.403 -43.88 -46.308 -55.611c-37.885 -17.157 -241.764 -111.819 -274.242 -127.203c-28.112 -13.316 -36.685 -51.336 -36.685 -75.729c0 -15.38 -1.205 -30.765 0.599 -46.145c2.343 -19.993 4.766 -42.915 37.286 -49.103c18.645 -3.553 28.009 11.755 40.865 28.403c29.2 37.81 66.872 87.624 84.83 110.628c20.371 26.093 39.119 31.946 67.957 33.131c28.869 1.181 51.719 1.181 85.399 1.776c13.29 0.234 22.855 3.551 37.29 10.65c8.87 4.361 24.492 0.805 33.679 -14.789c6.615 -11.246 7.212 -18.933 -6.613 -36.092c-11.412 -14.153 -14.433 -17.752 -24.06 -27.218c-9.696 -9.541 -16.975 -13.698 -45.709 -28.399c-45.105 -23.074 -113.702 -57.904 -138.919 -69.814c-15.034 -7.1 -39.691 -21.889 -32.476 -56.801c5.477 -26.49 17.441 -34.312 48.713 -29.584c31.274 4.734 112.465 17.752 143.735 22.484c31.268 4.741 63.497 19.804 75.776 56.805z" fill="none" stroke="currentColor" stroke-width="14" stroke-linecap="round" stroke-linejoin="round"/><path id="sf" d="M 601.217 134.916 L 567.051 146.258" fill="none" stroke="currentColor" stroke-width="6" opacity=".55"/><g id="turns"><circle cx="823.769" cy="889.31" r="9" data-turn="1" fill="currentColor" opacity="0"/><circle cx="764.982" cy="939.987" r="9" data-turn="2" fill="currentColor" opacity="0"/><circle cx="642.189" cy="803.591" r="9" data-turn="3" fill="currentColor" opacity="0"/><circle cx="617.995" cy="585.614" r="9" data-turn="4" fill="currentColor" opacity="0"/><circle cx="544.536" cy="684.793" r="9" data-turn="5" fill="currentColor" opacity="0"/><circle cx="528.472" cy="473.579" r="9" data-turn="6" fill="currentColor" opacity="0"/><circle cx="198.666" cy="300.553" r="9" data-turn="7" fill="currentColor" opacity="0"/><circle cx="224" cy="139.441" r="9" data-turn="8" fill="currentColor" opacity="0"/><circle cx="367.575" cy="303.103" r="9" data-turn="9" fill="currentColor" opacity="0"/><circle cx="568.205" cy="296.084" r="9" data-turn="10" fill="currentColor" opacity="0"/><circle cx="327.963" cy="66.274" r="9" data-turn="11" fill="currentColor" opacity="0"/><circle cx="570.967" cy="116.081" r="9" data-turn="12" fill="currentColor" opacity="0"/></g></svg>