<svg xmlns="http://www.w3.org/2000/svg" viewBox="0 0 1000 1000" fill="none" role="img" aria-label="Jeddah Corniche Circuit track layout"><path d="M 545.299 737.604 L 500.330 606.157 L 497.753 603.917 L 495.540 603.633 L 485.264 606.974 L 482.489 606.299 L 480.011 605.055 L 478.094 602.460 L 477.037 598.834 L 478.854 588.668 L 486.420 565.030 L 487.213 561.583 L 487.379 554.758 L 484.405 536.061 L 474.328 477.055 L 473.468 465.077 L 471.354 461.131 L 460.913 457.008 L 455.990 453.915 L 452.124 450.574 L 446.871 442.221 L 444.062 433.868 L 443.600 423.702 L 445.021 415.810 L 447.234 411.225 L 454.437 400.277 L 457.047 394.305 L 458.270 388.085 L 457.510 378.594 L 453.776 362.563 L 449.250 355.454 L 446.375 353.037 L 439.470 348.238 L 436.001 345.644 L 433.423 342.764 L 431.507 335.478 L 432.069 304.660 L 433.126 297.942 L 439.767 289.411 L 445.021 285.749 L 457.411 281.342 L 460.979 279.422 L 465.274 272.527 L 467.587 258.877 L 469.702 248.036 L 474.493 232.573 L 478.061 222.976 L 480.638 207.052 L 481.497 196.281 L 481.035 184.160 L 479.416 136.352 L 475.781 74.574 L 474.361 70.593 L 470.792 65.581 L 466.233 62.453 L 459.228 60.000 L 452.190 61.102 L 447.532 63.519 L 442.774 66.754 L 438.842 74.183 L 436.893 84.384 L 437.355 93.555 L 439.172 100.948 L 449.712 119.397 L 455.362 128.105 L 460.054 140.795 L 461.871 148.793 L 463.193 159.989 L 462.829 168.663 L 461.772 178.758 L 458.270 189.350 L 454.206 198.343 L 448.655 209.113 L 444.129 219.457 L 442.146 230.796 L 442.278 238.545 L 442.278 244.517 L 440.131 249.031 L 436.893 252.905 L 431.804 255.785 L 420.835 259.019 L 413.104 265.560 L 409.502 271.460 L 408.180 276.472 L 406.396 286.460 L 405.934 297.871 L 405.934 305.619 L 406.661 314.293 L 408.048 323.534 L 411.881 335.087 L 421.793 356.378 L 428.500 372.694 L 432.003 386.557 L 433.523 398.926 L 433.027 410.834 L 432.333 418.121 L 432.465 433.761 L 433.357 438.204 L 434.382 445.384 L 438.611 458.252 L 442.410 466.392 L 447.565 475.100 L 455.957 488.465 L 461.607 498.596 L 465.869 509.366 L 470.330 525.611 L 471.750 537.625 L 472.444 551.132 L 472.081 563.502 L 470.660 574.770 L 468.017 589.806 L 466.398 595.031 L 464.911 599.794 L 465.241 604.095 L 466.464 608.467 L 469.735 613.266 L 473.270 616.429 L 481.629 623.254 L 485.760 628.337 L 489.592 635.339 L 495.176 661.074 L 495.242 667.721 L 492.731 675.399 L 487.312 685.565 L 469.438 720.507 L 465.109 731.277 L 461.640 743.753 L 460.351 752.569 L 459.823 760.531 L 461.376 778.766 L 466.034 796.894 L 469.074 807.948 L 472.147 818.577 L 476.145 831.764 L 482.290 845.769 L 491.310 862.333 L 497.687 871.397 L 505.683 881.848 L 516.884 894.751 L 531.388 907.654 L 545.001 916.824 L 573.482 936.730 L 581.346 940.000 L 586.566 938.543 L 591.159 935.628 L 594.066 930.580 L 593.802 925.249 L 586.335 891.942 L 572.028 823.126 L 564.594 796.752 L 557.689 774.962 L 545.299 737.604 Z" fill="none" stroke="currentColor" stroke-width="14" stroke-linecap="round" stroke-linejoin="round"/><path id="sf" d="M 528.268 743.430 L 562.329 731.778" fill="none" stroke="currentColor" stroke-width="6" opacity=".55"/><g id="turns"><circle cx="500.211" cy="606.053" r="9" data-turn="1" fill="currentColor" opacity="0"/><circle cx="478.788" cy="603.399" r="9" data-turn="2" fill="currentColor" opacity="0"/><circle cx="487.279" cy="558.850" r="9" data-turn="3" fill="currentColor" opacity="0"/><circle cx="472.229" cy="462.763" r="9" data-turn="4" fill="currentColor" opacity="0"/><circle cx="450.433" cy="447.885" r="9" data-turn="5" fill="currentColor" opacity="0"/><circle cx="457.806" cy="390.443" r="9" data-turn="6" fill="currentColor" opacity="0"/><circle cx="451.848" cy="359.535" r="9" data-turn="7" fill="currentColor" opacity="0"/><circle cx="432.920" cy="340.851" r="9" data-turn="8" fill="currentColor" opacity="0"/><circle cx="436.062" cy="294.170" r="9" data-turn="9" fill="currentColor" opacity="0"/><circle cx="462.214" cy="277.439" r="9" data-turn="10" fill="currentColor" opacity="0"/><circle cx="478.644" cy="219.377" r="9" data-turn="11" fill="currentColor" opacity="0"/><circle cx="462.822" cy="61.258" r="9" data-turn="12" fill="currentColor" opacity="0"/><circle cx="461.803" cy="178.459" r="9" data-turn="13" fill="currentColor" opacity="0"/><circle cx="443.848" cy="221.061" r="9" data-turn="14" fill="currentColor" opacity="0"/><circle cx="440.020" cy="249.164" r="9" data-turn="15" fill="currentColor" opacity="0"/><circle cx="413.342" cy="265.358" r="9" data-turn="16" fill="currentColor" opacity="0"/><circle cx="432.847" cy="393.426" r="9" data-turn="17" fill="currentColor" opacity="0"/><circle cx="434.008" cy="442.765" r="9" data-turn="18" fill="currentColor" opacity="0"/><circle cx="463.252" cy="502.752" r="9" data-turn="19" fill="currentColor" opacity="0"/><circle cx="465.823" cy="606.174" r="9" data-turn="20" fill="currentColor" opacity="0"/><circle cx="486.576" cy="629.828" r="9" data-turn="21" fill="currentColor" opacity="0"/><circle cx="495.233" cy="666.826" r="9" data-turn="22" fill="currentColor" opacity="0"/><circle cx="460.278" cy="753.681" r="9" data-turn="23" fill="currentColor" opacity="0"/><circle cx="517.628" cy="895.413" r="9" data-turn="24" fill="currentColor" opacity="0"/><circle cx="588.942" cy="937.035" r="9" data-turn="25" fill="currentColor" opacity="0"/></g></svg>