<svg xmlns="http://www.w3.org/2000/svg" viewBox="0 0 1000 1000" fill="none" role="img" aria-label="Circuito de Jerez track layout"><path d="M425.315 60c35.827 0 136.252 0.543 155.794 0.543c19.541 0 29.847 6.134 32.026 20.064c2.715 17.353 -1.086 23.318 -17.37 34.705c-12.642 8.841 -18.253 11.68 -29.856 19.523c-18.457 12.472 -29.761 35.243 -29.313 54.769c0.543 23.861 5.299 94.876 6.514 120.386c1.629 34.162 40.309 81.869 87.396 88.39c54.827 7.592 220.426 30.133 239.391 33.078c24.426 3.797 50.708 22.698 60.796 52.058c12.486 36.334 -1.741 80.53 -28.77 103.034c-26.055 21.691 -372.928 307.47 -418.525 344.344c-12.859 10.399 -30.399 13.557 -43.427 0.543c-13.028 -13.014 -9.393 -28.008 -3.258 -40.671c16.285 -33.621 52.112 -103.575 72.197 -142.077c11.674 -22.37 6.815 -63.676 -10.313 -85.677c-18.998 -24.404 -71.654 -93.273 -94.453 -121.47c-21.309 -26.36 -45.055 -40.129 -87.939 -33.621c-28.852 4.377 -61.884 37.416 -74.369 76.46c-12.485 39.043 -33.655 99.237 -46.141 135.569c-9.923 28.881 -42.887 34.368 -60.798 20.607c-21.17 -16.269 -42.884 -33.078 -58.626 -45.011c-15.741 -11.927 -14.114 -32.535 -2.715 -57.48c10.124 -22.146 63.14 -126.962 83.929 -167.119c2.621 -5.072 6.974 -15.31 15.954 -11.423c4.074 1.76 14.387 6.373 23.616 10.036c8.047 3.192 16.559 0.182 21.85 -5.697c12.076 -13.423 30.101 -32.56 36.641 -39.993c7.873 -8.95 21.91 -7.527 26.456 -7.223c24.679 1.644 49.91 3.305 73.292 5.596c10.391 1.015 25.361 6.722 34.741 18.437c21.713 27.113 140.051 180.578 159.593 204.981c12.47 15.568 31.485 14.642 42.885 9.217c11.399 -5.422 23.801 -20.073 13.571 -43.925c-13.028 -30.369 -205.191 -484.253 -213.334 -504.858c-8.146 -20.607 5.941 -46.095 32.565 -46.095" fill="none" stroke="currentColor" stroke-width="14" stroke-linecap="round" stroke-linejoin="round"/><path id="sf" d="M 425.315 42 L 425.315 78" fill="none" stroke="currentColor" stroke-width="6" opacity=".55"/><g id="turns"><circle cx="607.419" cy="68.378" r="9" data-turn="1" fill="currentColor" opacity="0"/><circle cx="539.767" cy="169.895" r="9" data-turn="2" fill="currentColor" opacity="0"/><circle cx="545.915" cy="325.037" r="9" data-turn="3" fill="currentColor" opacity="0"/><circle cx="889.716" cy="437.743" r="9" data-turn="4" fill="currentColor" opacity="0"/><circle cx="448.279" cy="937.386" r="9" data-turn="5" fill="currentColor" opacity="0"/><circle cx="513.579" cy="735.237" r="9" data-turn="6" fill="currentColor" opacity="0"/><circle cx="305.923" cy="510.611" r="9" data-turn="7" fill="currentColor" opacity="0"/><circle cx="155.988" cy="747.728" r="9" data-turn="8" fill="currentColor" opacity="0"/><circle cx="66.943" cy="683.502" r="9" data-turn="9" fill="currentColor" opacity="0"/><circle cx="165.5" cy="459.908" r="9" data-turn="10" fill="currentColor" opacity="0"/><circle cx="206.912" cy="470.586" r="9" data-turn="11" fill="currentColor" opacity="0"/><circle cx="265.421" cy="417.806" r="9" data-turn="12" fill="currentColor" opacity="0"/><circle cx="375.843" cy="428.912" r="9" data-turn="13" fill="currentColor" opacity="0"/><circle cx="605.847" cy="642.828" r="9" data-turn="14" fill="currentColor" opacity="0"/><circle cx="397.462" cy="73.261" r="9" data-turn="15" fill="currentColor" opacity="0"/></g></svg>