<svg xmlns="http://www.w3.org/2000/svg" viewBox="0 0 1000 1000" fill="none" role="img" aria-label="Kyalami Grand Prix Circuit track layout"><path d="M636.438 625.045L736.33 514.042 749.728 503.926 917.689 394.52 936.71 378.681 940 371.028 937.727 361.512 931.147 355.323 927.02 352.461 867.983 340.882 858.891 336.157 850.875 329.102 829.821 288.241 816.601 276.728 782.327 256.498 775.508 255.033 767.074 256.498 761.093 261.223 713.002 328.903 599.891 485.16 588.347 496.273 573.274 504.925 555.927 510.914 540.435 512.378 524.345 510.115 508.254 504.525 495.873 496.273 485.345 486.357 420.147 394.32 412.49 389.595 403.817 386.667 393.709 386.667 384.018 390.594 377.02 397.648 299.201 504.925 295.492 513.177 294.057 521.229 294.057 530.945 295.073 540.262 297.945 548.315 307.036 563.554 309.967 573.071 310.566 582.986 309.309 592.436 306.438 602.951 301.474 612.667 295.492 620.919 289.929 627.108 277.966 635.76 271.566 639.287 192.73 670.432 184.475 671.497 137.401 676.222 70.767 696.452 63.35 702.042 60 710.694 60.419 718.946 65.623 727.398 90.147 741.24 104.622 744.967 117.183 743.702 289.092 666.106 302.072 658.32 316.726 645.476 328.51 630.436 337.363 611.203 341.31 596.163 348.967 535.271 355.965 509.916 374.508 467.79 384.676 461.402 396.4 462.666 406.928 471.317 420.984 501.464 433.785 520.231 447.363 534.872 472.545 556.966 497.308 574.734 500.239 582.521 501.017 590.573 513.638 724.336 517.945 733.187 526.02 735.65 535.111 734.651 546.237 725.135 636.438 625.045" fill="none" stroke="currentColor" stroke-width="14" stroke-linecap="round" stroke-linejoin="round"/><path id="sf" d="M 623.062 613 L 649.814 637.091" fill="none" stroke="currentColor" stroke-width="6" opacity=".55"/><g id="turns"><circle cx="738.965" cy="512.052" r="9" data-turn="1" fill="currentColor" opacity="0"/><circle cx="938.983" cy="366.77" r="9" data-turn="2" fill="currentColor" opacity="0"/><circle cx="858.967" cy="336.196" r="9" data-turn="3" fill="currentColor" opacity="0"/><circle cx="825.206" cy="284.222" r="9" data-turn="4" fill="currentColor" opacity="0"/><circle cx="770.912" cy="255.831" r="9" data-turn="5" fill="currentColor" opacity="0"/><circle cx="542.034" cy="512.227" r="9" data-turn="6" fill="currentColor" opacity="0"/><circle cx="398.47" cy="386.667" r="9" data-turn="7" fill="currentColor" opacity="0"/><circle cx="294.057" cy="522.896" r="9" data-turn="8" fill="currentColor" opacity="0"/><circle cx="310.271" cy="585.202" r="9" data-turn="9" fill="currentColor" opacity="0"/><circle cx="191.571" cy="670.581" r="9" data-turn="10" fill="currentColor" opacity="0"/><circle cx="137.993" cy="676.162" r="9" data-turn="11" fill="currentColor" opacity="0"/><circle cx="60.05" cy="711.68" r="9" data-turn="12" fill="currentColor" opacity="0"/><circle cx="324.186" cy="635.955" r="9" data-turn="13" fill="currentColor" opacity="0"/><circle cx="386.762" cy="461.627" r="9" data-turn="14" fill="currentColor" opacity="0"/><circle cx="431.261" cy="516.531" r="9" data-turn="15" fill="currentColor" opacity="0"/><circle cx="498.841" cy="578.807" r="9" data-turn="16" fill="currentColor" opacity="0"/><circle cx="523.066" cy="734.749" r="9" data-turn="17" fill="currentColor" opacity="0"/></g></svg>