<svg xmlns="http://www.w3.org/2000/svg" viewBox="0 0 1000 1000" fill="none" role="img" aria-label="Las Vegas Street Circuit track layout"><path d="M270.655 716.439l248.873 -181.703c22.664 -16.538 54.436 -18.08 78.573 -3.789l226.115 133.779a68.793 68.793 0 0 0 35.008 9.609c27.36 0 51.996 -16.099 62.768 -41.001c7.697 -17.784 13.333 -36.294 16.744 -55.003c7.015 -38.281 -15.754 -75.958 -52.957 -87.647l-327.403 -102.887a141.505 141.505 0 0 0 -42.459 -6.515c-28.597 0 -56.193 8.516 -79.827 24.632l-147.883 100.88a44.686 44.686 0 0 1 -25.289 7.812a44.921 44.921 0 0 1 -34.283 -15.838a44.862 44.862 0 0 1 3.747 -62.143l219.919 -203.247a111.44 111.44 0 0 1 75.835 -29.673c24.115 0 47.106 7.599 66.494 21.967l230.405 170.785c8.177 6.056 17.845 9.257 27.962 9.257c16.928 0 32.609 -9.139 40.931 -23.86c4.541 -8.063 8.473 -16.283 11.669 -24.432c11.607 -29.661 7.718 -63.209 -10.423 -89.744l-56.602 -82.838c-20.755 -30.359 -52.045 -50.999 -88.118 -58.107l-260.591 -51.342c-50.679 -9.996 -104.698 3.594 -144.596 36.325l-158.694 130.111a82.61 82.61 0 0 0 -28.983 49.576l-96.428 547.644a75.437 75.437 0 0 0 16.53 61.729c14.425 17.192 35.498 27.053 57.815 27.053a78.396 78.396 0 0 0 6.401 -0.267l404.739 -33.609a350.824 350.824 0 0 1 59.775 0.174l206.525 18.362c23.797 2.16 47.769 -2.891 68.597 -14.2a211.67 211.67 0 0 0 13.006 -7.659c16.528 -10.56 27.717 -27.823 30.698 -47.365a70.165 70.165 0 0 0 -15.66 -55.754c-16.561 -19.695 -34.377 -35.472 -52.925 -46.895l-1.439 -0.882l-190.58 -45.19c-50.852 -12.053 -105.941 -5.805 -152.795 17.331l-187.818 92.731a51.232 51.232 0 0 1 -22.86 5.351a51.722 51.722 0 0 1 -42.646 -22.431c-15.975 -23.245 -10.648 -54.468 12.132 -71.09z" fill="none" stroke="currentColor" stroke-width="14" stroke-linecap="round" stroke-linejoin="round"/><path id="sf" d="M 260.041 701.901 L 281.269 730.977" fill="none" stroke="currentColor" stroke-width="6" opacity=".55"/><g id="turns"><circle cx="572.386" cy="521.962" r="9" data-turn="1" fill="currentColor" opacity="0"/><circle cx="904.195" cy="657.614" r="9" data-turn="2" fill="currentColor" opacity="0"/><circle cx="938.718" cy="550.494" r="9" data-turn="3" fill="currentColor" opacity="0"/><circle cx="474.882" cy="387.335" r="9" data-turn="4" fill="currentColor" opacity="0"/><circle cx="217.91" cy="469.464" r="9" data-turn="5" fill="currentColor" opacity="0"/><circle cx="563.642" cy="209.471" r="9" data-turn="6" fill="currentColor" opacity="0"/><circle cx="853.019" cy="405.696" r="9" data-turn="7" fill="currentColor" opacity="0"/><circle cx="797.982" cy="145.608" r="9" data-turn="8" fill="currentColor" opacity="0"/><circle cx="168.523" cy="262.538" r="9" data-turn="9" fill="currentColor" opacity="0"/><circle cx="108.885" cy="922.956" r="9" data-turn="10" fill="currentColor" opacity="0"/><circle cx="913.653" cy="872.286" r="9" data-turn="11" fill="currentColor" opacity="0"/><circle cx="855.152" cy="739.785" r="9" data-turn="12" fill="currentColor" opacity="0"/><circle cx="250.058" cy="749.554" r="9" data-turn="13" fill="currentColor" opacity="0"/></g></svg>