<svg xmlns="http://www.w3.org/2000/svg" viewBox="0 0 1000 1000" fill="none" role="img" aria-label="Le Mans track layout"><path d="M882.504 864.676l0.002 0c14.772 8.383 21.511 25.992 16.035 41.874l-4.811 13.944c-4.038 11.664 -15.152 19.507 -27.69 19.507a29.798 29.798 0 0 1 -9.388 -1.527q-193.981 -64.696 -387.964 -129.397c-147.6 -49.223 -257.062 -167.623 -292.805 -316.718l-74.715 -311.638c-5.183 -21.598 2.425 -43.785 19.857 -57.907a30.916 30.916 0 0 1 19.414 -6.857c9.42 0 18.162 4.166 24.001 11.424a167.615 167.615 0 0 1 25.546 44.187l113.943 292.438c4.079 10.472 13.562 14.204 21.086 14.204c7.883 0 14.815 -3.805 19.009 -10.439l2.756 -4.339c19.35 -30.595 20.218 -69.123 2.278 -100.541l-141.983 -248.631a29.146 29.146 0 0 1 -2.341 -23.639c2.617 -7.831 8.509 -14.268 16.149 -17.663l23.578 -10.476c13.437 -5.967 30.35 -0.797 37.98 11.517l255.844 412.387c19.168 30.888 48.765 54.745 83.364 67.186c64.69 23.263 147.526 53.886 174.748 67.642c33.771 17.069 56.151 43.515 57.01 67.379c0.413 11.314 -3.624 27.5 -25.157 40.369l-3.678 2.198c-22.634 13.491 -46.04 27.44 -47.714 41.643c-0.89 7.572 4.302 16.851 15.439 27.593c28.768 27.748 68.866 52.184 90.209 64.28" fill="none" stroke="currentColor" stroke-width="14" stroke-linecap="round" stroke-linejoin="round"/><path id="sf" d="M 882.504 846.676 L 882.504 882.676" fill="none" stroke="currentColor" stroke-width="6" opacity=".55"/><g id="turns"><circle cx="897.96" cy="882.409" r="9" data-turn="1" fill="currentColor" opacity="0"/><circle cx="880.923" cy="935.99" r="9" data-turn="2" fill="currentColor" opacity="0"/><circle cx="144.556" cy="116.234" r="9" data-turn="3" fill="currentColor" opacity="0"/><circle cx="321.164" cy="477.887" r="9" data-turn="4" fill="currentColor" opacity="0"/><circle cx="204.59" cy="91.099" r="9" data-turn="5" fill="currentColor" opacity="0"/><circle cx="265.016" cy="61.207" r="9" data-turn="6" fill="currentColor" opacity="0"/><circle cx="555.147" cy="508.852" r="9" data-turn="7" fill="currentColor" opacity="0"/><circle cx="852.268" cy="699.673" r="9" data-turn="8" fill="currentColor" opacity="0"/><circle cx="776.891" cy="772.594" r="9" data-turn="9" fill="currentColor" opacity="0"/></g></svg>