<svg xmlns="http://www.w3.org/2000/svg" viewBox="0 0 1000 1000" fill="none" role="img" aria-label="Long Beach track layout"><path d="M876.204 453.733c2.636 -2.514 27.051 -24.135 46.488 -93.141c1.707 -6.072 5.229 -12.238 11.18 -10.69c8.095 2.107 6.356 9.007 4.859 15.55c-15.552 68.034 -47.754 95.349 -50.863 98.97c-4.7 5.479 -16.857 18.325 -30.744 30.749c-12.348 11.045 -16.13 14.488 -21.417 8.452c-4.537 -5.182 -9.723 -11.013 -14.58 -12.957c-6.476 -2.593 -9.069 -3.565 -19.76 -7.777c-9.82 -3.866 -18.794 -0.649 -26.569 6.156c-10.146 8.88 -8.276 19.228 -6.476 21.705c2.593 3.565 8.351 11.103 11.985 15.872c5.65 7.414 4.988 21.729 -3.343 27.724c-40.607 29.213 -86.953 62.315 -105.186 74.978c-23.326 16.199 -59.608 42.441 -132.18 48.595c-56.851 4.825 -86.234 -4.805 -160.045 -35.638c-25.593 -10.692 -158.1 -78.724 -243.302 -125.377c-4.038 -2.213 -8.697 -9.817 -5.451 -17.822c5.124 -12.634 6.607 -15.605 9.497 -22.353c5.833 -13.608 0.486 -19.925 -7.287 -19.925c-7.097 0 -46.167 -1.944 -59.289 -2.43c-14.578 -0.54 -16.13 -3.705 -11.176 -13.12c9.719 -18.467 19.437 -36.934 34.503 -64.148c7.506 -13.563 10.206 -15.064 19.437 -14.092c18.747 1.974 51.287 8.233 70.465 -2.916c20.897 -12.148 38.547 -27.248 57.345 -34.017c6.076 -2.187 15.997 -2.771 25.451 -2.838c9.46 -0.069 11.645 5.93 11.967 10.127c0.467 6.046 0.486 34.503 0.486 52.97c0 10.206 5.24 12.636 10.692 12.636c10.54 0 34.18 0 50.702 -0.165c8.401 -0.08 15.992 -4.247 22.677 -10.368c9.557 -8.747 18.302 -16.681 27.051 -24.621c8.996 -8.162 10.527 -9.878 10.527 -14.092c0 -5.833 -4.537 -8.261 -9.22 -8.603c-5.141 -0.378 -9.618 -3.604 -9.733 -9.054c-0.163 -7.777 6.936 -9.848 16.36 -9.946c61.616 -0.624 128.232 -1.225 139.314 -1.225c15.556 0 20.738 0.651 41.471 1.623c20.733 0.972 148.704 11.983 175.591 14.255c15.618 1.318 50.442 4.836 98 11.178c14.58 1.944 21.628 21.247 5.347 28.186c-29.644 12.634 -45.681 18.465 -56.858 25.27c-10.963 6.674 -20.916 22.653 -21.219 31.263c-0.641 18.134 10.101 32.716 31.751 37.906c31.746 7.609 50.7 -6.485 61.553 -16.85z" fill="none" stroke="currentColor" stroke-width="14" stroke-linecap="round" stroke-linejoin="round"/><path id="sf" d="M 863.78 440.708 L 888.628 466.757" fill="none" stroke="currentColor" stroke-width="6" opacity=".55"/><g id="turns"><circle cx="935.305" cy="350.375" r="9" data-turn="1" fill="currentColor" opacity="0"/><circle cx="842.624" cy="506.25" r="9" data-turn="2" fill="currentColor" opacity="0"/><circle cx="767.333" cy="500.934" r="9" data-turn="3" fill="currentColor" opacity="0"/><circle cx="783.435" cy="543.804" r="9" data-turn="4" fill="currentColor" opacity="0"/><circle cx="130.128" cy="508.026" r="9" data-turn="5" fill="currentColor" opacity="0"/><circle cx="142.133" cy="462.597" r="9" data-turn="6" fill="currentColor" opacity="0"/><circle cx="61.223" cy="451.588" r="9" data-turn="7" fill="currentColor" opacity="0"/><circle cx="106.437" cy="364.406" r="9" data-turn="8" fill="currentColor" opacity="0"/><circle cx="177.664" cy="363.966" r="9" data-turn="9" fill="currentColor" opacity="0"/><circle cx="278.427" cy="325.992" r="9" data-turn="10" fill="currentColor" opacity="0"/><circle cx="285.316" cy="396.292" r="9" data-turn="11" fill="currentColor" opacity="0"/><circle cx="352.402" cy="397.212" r="9" data-turn="12" fill="currentColor" opacity="0"/><circle cx="403.822" cy="349.029" r="9" data-turn="13" fill="currentColor" opacity="0"/><circle cx="385.579" cy="328.216" r="9" data-turn="14" fill="currentColor" opacity="0"/><circle cx="870.274" cy="362.528" r="9" data-turn="15" fill="currentColor" opacity="0"/><circle cx="783.031" cy="437.76" r="9" data-turn="16" fill="currentColor" opacity="0"/></g></svg>