<svg xmlns="http://www.w3.org/2000/svg" viewBox="0 0 1000 1000" fill="none" role="img" aria-label="Losail International Circuit track layout"><path d="M 258.112 592.639 L 165.879 423.795 L 129.692 358.259 L 127.299 346.000 L 128.854 333.277 L 133.460 323.404 L 140.697 316.181 L 151.823 309.620 L 164.563 307.633 L 176.586 309.819 L 268.640 365.681 L 277.432 368.133 L 289.036 368.530 L 302.375 364.620 L 313.141 354.548 L 319.302 343.548 L 320.797 332.416 L 318.704 252.169 L 320.020 241.235 L 323.310 231.825 L 327.736 222.813 L 334.076 215.392 L 465.368 69.873 L 472.605 63.976 L 483.790 60.861 L 494.557 60.000 L 505.503 62.849 L 514.056 67.886 L 553.055 105.127 L 557.421 113.012 L 559.395 123.813 L 558.977 133.223 L 556.345 142.434 L 550.662 150.717 L 465.368 244.416 L 461.659 251.241 L 461.420 258.663 L 463.394 265.223 L 467.581 270.060 L 473.742 273.970 L 482.235 275.096 L 488.157 273.373 L 495.873 269.861 L 644.869 210.223 L 654.619 209.163 L 666.642 210.886 L 676.750 215.458 L 684.646 223.410 L 689.491 233.482 L 691.405 243.422 L 691.225 252.169 L 688.354 260.518 L 682.253 270.193 L 677.169 274.964 L 665.565 284.440 L 652.645 299.283 L 641.879 314.193 L 632.907 330.096 L 625.669 348.717 L 621.542 361.440 L 617.116 383.771 L 613.407 393.313 L 607.067 401.398 L 600.248 406.500 L 591.097 410.608 L 506.400 431.217 L 498.983 435.590 L 493.301 440.627 L 490.011 448.976 L 488.695 457.060 L 490.191 469.253 L 499.402 481.313 L 515.193 497.283 L 539.537 515.837 L 564.958 530.283 L 590.798 539.494 L 616.637 544.994 L 641.879 547.181 L 669.453 544.530 L 796.019 530.482 L 807.623 532.934 L 821.022 539.295 L 831.310 547.181 L 840.940 560.301 L 870.308 614.904 L 872.701 624.313 L 872.701 632.861 L 871.385 641.807 L 865.284 653.205 L 819.706 726.759 L 813.964 732.259 L 805.470 736.169 L 796.677 738.819 L 784.834 738.355 L 639.307 709.000 L 628.959 709.000 L 618.671 712.048 L 609.938 718.012 L 603.777 725.633 L 502.452 922.705 L 494.318 932.114 L 485.106 937.813 L 471.768 940.000 L 461.659 938.873 L 451.790 934.699 L 441.741 925.952 L 258.112 592.639 Z" fill="none" stroke="currentColor" stroke-width="14" stroke-linecap="round" stroke-linejoin="round"/><path id="sf" d="M 242.316 601.268 L 273.909 584.009" fill="none" stroke="currentColor" stroke-width="6" opacity=".55"/><g id="turns"><circle cx="135.929" cy="320.940" r="9" data-turn="1" fill="currentColor" opacity="0"/><circle cx="302.858" cy="364.169" r="9" data-turn="2" fill="currentColor" opacity="0"/><circle cx="322.618" cy="233.802" r="9" data-turn="3" fill="currentColor" opacity="0"/><circle cx="489.303" cy="60.420" r="9" data-turn="4" fill="currentColor" opacity="0"/><circle cx="559.355" cy="124.710" r="9" data-turn="5" fill="currentColor" opacity="0"/><circle cx="464.642" cy="266.665" r="9" data-turn="6" fill="currentColor" opacity="0"/><circle cx="681.604" cy="220.346" r="9" data-turn="7" fill="currentColor" opacity="0"/><circle cx="636.716" cy="323.345" r="9" data-turn="8" fill="currentColor" opacity="0"/><circle cx="607.647" cy="400.658" r="9" data-turn="9" fill="currentColor" opacity="0"/><circle cx="490.272" cy="448.315" r="9" data-turn="10" fill="currentColor" opacity="0"/><circle cx="811.932" cy="534.979" r="9" data-turn="11" fill="currentColor" opacity="0"/><circle cx="872.701" cy="629.527" r="9" data-turn="12" fill="currentColor" opacity="0"/><circle cx="806.373" cy="735.753" r="9" data-turn="13" fill="currentColor" opacity="0"/><circle cx="619.478" cy="711.809" r="9" data-turn="14" fill="currentColor" opacity="0"/><circle cx="474.187" cy="939.603" r="9" data-turn="15" fill="currentColor" opacity="0"/></g></svg>