<svg xmlns="http://www.w3.org/2000/svg" viewBox="0 0 1000 1000" fill="none" role="img" aria-label="Circuito de Madring track layout"><path d="M 572.699 891.598 L 482.285 907.517 L 476.885 910.798 L 476.026 931.395 L 473.326 934.676 L 458.721 937.365 L 441.743 940.000 L 426.851 939.140 L 408.359 931.395 L 395.227 918.865 L 325.800 807.540 L 288.244 749.135 L 276.952 726.010 L 270.079 710.252 L 266.807 700.680 L 259.033 671.208 L 255.474 639.586 L 256.661 615.761 L 259.933 590.108 L 268.893 565.961 L 277.812 551.064 L 281.412 546.009 L 281.412 541.868 L 276.339 538.856 L 272.166 534.715 L 272.780 529.606 L 276.339 524.551 L 278.425 518.581 L 277.239 506.696 L 270.979 484.915 L 265.620 470.018 L 257.847 457.810 L 251.301 448.882 L 247.742 438.449 L 238.496 400.857 L 233.423 386.874 L 227.164 380.044 L 226.877 375.258 L 232.237 371.063 L 241.769 363.802 L 246.842 355.413 L 246.842 347.077 L 243.569 336.966 L 228.636 309.539 L 227.450 301.956 L 226.877 250.112 L 228.350 229.837 L 234.323 221.340 L 247.415 211.229 L 262.020 199.290 L 267.707 187.942 L 267.379 174.228 L 265.620 166.054 L 247.742 122.869 L 245.942 108.563 L 247.128 93.935 L 253.388 80.813 L 262.920 69.519 L 277.239 62.366 L 292.744 60.000 L 309.436 60.860 L 325.800 69.196 L 341.592 83.233 L 351.124 99.313 L 353.825 118.082 L 352.638 135.077 L 346.092 152.932 L 336.233 170.087 L 331.160 178.423 L 281.985 239.786 L 257.561 277.378 L 255.474 283.939 L 257.274 293.136 L 267.707 302.977 L 302.849 327.555 L 317.168 340.086 L 323.428 350.519 L 326.414 361.221 L 326.414 414.463 L 328.173 424.896 L 333.860 437.104 L 342.206 449.743 L 351.124 459.584 L 363.357 467.060 L 377.676 471.792 L 443.543 471.792 L 454.834 466.737 L 466.453 460.176 L 472.140 458.670 L 477.212 463.188 L 495.091 489.970 L 517.428 529.176 L 521.887 539.017 L 527.574 547.353 L 538.006 553.914 L 548.111 555.689 L 586.854 550.634 L 605.346 550.956 L 624.124 557.464 L 636.643 569.833 L 642.616 581.181 L 664.054 701.164 L 666.140 715.899 L 668.840 723.052 L 676.572 723.966 L 687.905 715.577 L 694.737 713.802 L 740.639 708.155 L 744.812 712.619 L 753.772 742.735 L 763.304 782.210 L 772.223 834.645 L 773.123 848.359 L 765.677 857.018 L 754.058 859.707 L 572.699 891.598 Z" fill="none" stroke="currentColor" stroke-width="14" stroke-linecap="round" stroke-linejoin="round"/><path id="sf" d="M 575.820 909.325 L 569.578 873.871" fill="none" stroke="currentColor" stroke-width="6" opacity=".55"/><g id="turns"><circle cx="480.138" cy="908.821" r="9" data-turn="1" fill="currentColor" opacity="0"/><circle cx="470.604" cy="935.177" r="9" data-turn="2" fill="currentColor" opacity="0"/><circle cx="416.297" cy="934.720" r="9" data-turn="3" fill="currentColor" opacity="0"/><circle cx="261.381" cy="586.208" r="9" data-turn="4" fill="currentColor" opacity="0"/><circle cx="279.061" cy="549.309" r="9" data-turn="5" fill="currentColor" opacity="0"/><circle cx="272.668" cy="530.533" r="9" data-turn="6" fill="currentColor" opacity="0"/><circle cx="277.358" cy="507.890" r="9" data-turn="7" fill="currentColor" opacity="0"/><circle cx="249.721" cy="444.249" r="9" data-turn="8" fill="currentColor" opacity="0"/><circle cx="239.387" cy="404.477" r="9" data-turn="9" fill="currentColor" opacity="0"/><circle cx="226.950" cy="376.479" r="9" data-turn="10" fill="currentColor" opacity="0"/><circle cx="246.842" cy="351.371" r="9" data-turn="11" fill="currentColor" opacity="0"/><circle cx="228.294" cy="307.349" r="9" data-turn="12" fill="currentColor" opacity="0"/><circle cx="229.599" cy="228.060" r="9" data-turn="13" fill="currentColor" opacity="0"/><circle cx="266.314" cy="190.721" r="9" data-turn="14" fill="currentColor" opacity="0"/><circle cx="261.523" cy="71.174" r="9" data-turn="15" fill="currentColor" opacity="0"/><circle cx="348.694" cy="95.213" r="9" data-turn="16" fill="currentColor" opacity="0"/><circle cx="256.015" cy="286.700" r="9" data-turn="17" fill="currentColor" opacity="0"/><circle cx="323.087" cy="349.951" r="9" data-turn="18" fill="currentColor" opacity="0"/><circle cx="360.241" cy="465.156" r="9" data-turn="19" fill="currentColor" opacity="0"/><circle cx="441.168" cy="471.792" r="9" data-turn="20" fill="currentColor" opacity="0"/><circle cx="472.028" cy="458.700" r="9" data-turn="21" fill="currentColor" opacity="0"/><circle cx="534.800" cy="551.898" r="9" data-turn="22" fill="currentColor" opacity="0"/><circle cx="629.578" cy="562.852" r="9" data-turn="23" fill="currentColor" opacity="0"/><circle cx="668.735" cy="722.772" r="9" data-turn="24" fill="currentColor" opacity="0"/><circle cx="741.934" cy="709.540" r="9" data-turn="25" fill="currentColor" opacity="0"/><circle cx="770.291" cy="851.653" r="9" data-turn="26" fill="currentColor" opacity="0"/></g></svg>