<svg xmlns="http://www.w3.org/2000/svg" viewBox="0 0 1000 1000" fill="none" role="img" aria-label="Circuit de Nevers Magny-Cours track layout"><path d="M438.481 469.596L570.289 362.423 580.554 344.751 585.426 330.594 586.66 281.758 586.14 219.24 581.788 208.124 569.315 184.086 563.273 155.962 564.248 136.485 566.587 127.173 574.382 106.461 586.53 90.499 600.367 78.242 612.71 69.881 631.874 62.47 652.402 60 670.202 60.57 691.055 67.126 706.126 76.817 717.04 87.553 729.642 106.176 759.07 168.409 773.362 205.178 780.573 233.587 784.146 255.439 797.658 473.682 797.658 496.485 794.345 539.335 788.434 574.204 710.868 859.335 706.386 867.411 698.006 868.931 692.159 865.226 688.716 857.15 676.438 774.869 692.744 662.28 695.472 647.363 690.145 419.05 691.509 411.829 697.291 404.323 714.116 388.456 722.042 376.96 728.343 358.527 730.422 341.14 729.577 306.176 722.172 259.335 709.309 213.919 698.655 196.342 684.818 183.61 668.838 177.815 649.804 181.615 640.514 191.116 635.317 200.143 635.447 212.969 638.89 224.086 656.625 251.069 661.237 261.9 665.654 280.808 666.564 303.8 661.952 325.558 642.268 388.171 638.305 406.413 635.577 423.895 638.435 699.24 634.342 708.551 600.107 746.651 596.729 755.582 595.365 781.995 595.69 798.242 599.068 830.641 603.615 849.549 627.456 929.169 624.663 934.679 608.228 940 591.662 937.815 575.421 931.259 552.1 914.537 530.727 895.629 507.601 867.601 422.175 769.359 401.777 749.406 368.256 724.323 336.619 709.121 206.434 666.081 202.732 661.33 202.342 653.634 216.699 627.126 246.062 593.207 255.936 586.936 263.342 591.686 269.903 597.292 276.594 598.432 296.862 583.515 438.481 469.596" fill="none" stroke="currentColor" stroke-width="14" stroke-linecap="round" stroke-linejoin="round"/><path id="sf" d="M 427.163 455.599 L 449.798 483.593" fill="none" stroke="currentColor" stroke-width="6" opacity=".55"/><g id="turns"><circle cx="579.349" cy="346.825" r="9" data-turn="1" fill="currentColor" opacity="0"/><circle cx="586.181" cy="224.126" r="9" data-turn="2" fill="currentColor" opacity="0"/><circle cx="689.154" cy="66.528" r="9" data-turn="3" fill="currentColor" opacity="0"/><circle cx="778.756" cy="226.428" r="9" data-turn="4" fill="currentColor" opacity="0"/><circle cx="791.856" cy="554.015" r="9" data-turn="5" fill="currentColor" opacity="0"/><circle cx="698.589" cy="868.825" r="9" data-turn="6" fill="currentColor" opacity="0"/><circle cx="676.623" cy="776.11" r="9" data-turn="7" fill="currentColor" opacity="0"/><circle cx="695.42" cy="645.149" r="9" data-turn="8" fill="currentColor" opacity="0"/><circle cx="690.975" cy="414.659" r="9" data-turn="9" fill="currentColor" opacity="0"/><circle cx="725.389" cy="367.168" r="9" data-turn="10" fill="currentColor" opacity="0"/><circle cx="644.797" cy="186.736" r="9" data-turn="11" fill="currentColor" opacity="0"/><circle cx="665.745" cy="283.094" r="9" data-turn="12" fill="currentColor" opacity="0"/><circle cx="637.514" cy="411.484" r="9" data-turn="13" fill="currentColor" opacity="0"/><circle cx="637.429" cy="701.529" r="9" data-turn="14" fill="currentColor" opacity="0"/><circle cx="596.767" cy="755.482" r="9" data-turn="15" fill="currentColor" opacity="0"/><circle cx="621.046" cy="935.85" r="9" data-turn="16" fill="currentColor" opacity="0"/><circle cx="364.572" cy="722.553" r="9" data-turn="17" fill="currentColor" opacity="0"/><circle cx="202.683" cy="660.375" r="9" data-turn="18" fill="currentColor" opacity="0"/><circle cx="242.866" cy="596.898" r="9" data-turn="19" fill="currentColor" opacity="0"/><circle cx="285.014" cy="592.235" r="9" data-turn="20" fill="currentColor" opacity="0"/></g></svg>