<svg xmlns="http://www.w3.org/2000/svg" viewBox="0 0 1000 1000" fill="none" role="img" aria-label="Marina Bay Street Circuit track layout"><path d="M 920.774 431.872 L 938.290 565.664 L 940.000 582.979 L 938.290 591.533 L 933.569 598.993 L 911.880 632.116 L 907.980 637.522 L 903.875 639.507 L 898.675 640.123 L 886.770 639.507 L 831.830 636.496 L 747.128 627.462 L 736.386 624.656 L 729.613 620.550 L 724.276 614.733 L 719.829 603.099 L 719.213 591.602 L 719.555 584.758 L 717.366 581.199 L 705.529 580.378 L 693.283 580.104 L 630.816 576.546 L 454.912 567.170 L 433.634 564.638 L 418.719 560.600 L 403.393 553.004 L 340.995 498.186 L 314.312 475.397 L 309.865 471.839 L 303.502 470.812 L 295.565 472.249 L 289.613 476.219 L 285.713 480.051 L 274.424 514.406 L 268.471 540.138 L 253.556 618.018 L 222.836 774.736 L 221.126 778.021 L 218.868 780.895 L 214.626 783.975 L 209.563 785.138 L 203.337 785.002 L 200.463 783.838 L 193.279 774.736 L 186.095 764.539 L 180.759 752.974 L 175.012 747.293 L 147.918 725.599 L 134.439 713.144 L 126.024 705.000 L 120.824 697.677 L 115.556 679.815 L 116.309 671.466 L 117.814 665.102 L 121.508 657.711 L 119.593 653.057 L 112.751 650.730 L 100.162 646.419 L 89.352 639.507 L 76.078 630.199 L 65.816 621.166 L 62.121 613.569 L 60.411 602.893 L 60.000 593.518 L 70.400 575.793 L 112.340 500.719 L 166.323 403.745 L 175.901 386.225 L 184.864 377.944 L 188.559 374.933 L 200.874 372.470 L 211.752 379.176 L 225.505 388.757 L 282.087 448.091 L 287.150 450.692 L 291.323 449.665 L 295.223 442.274 L 317.528 398.612 L 347.358 348.106 L 352.832 339.963 L 358.100 338.046 L 367.610 342.289 L 373.084 345.506 L 531.815 437.347 L 557.745 447.270 L 575.739 450.623 L 799.605 463.832 L 808.294 462.121 L 819.583 456.851 L 828.888 450.281 L 834.841 439.400 L 836.346 429.066 L 834.635 404.498 L 828.204 371.101 L 808.773 317.173 L 803.505 305.676 L 799.947 296.163 L 798.031 284.529 L 798.031 269.610 L 801.316 236.419 L 806.994 223.348 L 814.794 215.477 L 821.362 214.862 L 827.315 216.436 L 833.883 224.032 L 837.441 228.686 L 840.861 233.408 L 847.019 238.609 L 861.182 245.589 L 873.087 248.874 L 888.002 247.437 L 895.665 250.517 L 899.565 255.992 L 901.822 264.751 L 907.843 338.388 L 920.774 431.872 Z" fill="none" stroke="currentColor" stroke-width="14" stroke-linecap="round" stroke-linejoin="round"/><path id="sf" d="M 938.622 429.536 L 902.927 434.208" fill="none" stroke="currentColor" stroke-width="6" opacity=".55"/><g id="turns"><circle cx="939.111" cy="587.425" r="9" data-turn="1" fill="currentColor" opacity="0"/><circle cx="905.963" cy="638.497" r="9" data-turn="2" fill="currentColor" opacity="0"/><circle cx="729.875" cy="620.709" r="9" data-turn="3" fill="currentColor" opacity="0"/><circle cx="714.436" cy="580.996" r="9" data-turn="4" fill="currentColor" opacity="0"/><circle cx="414.552" cy="558.535" r="9" data-turn="5" fill="currentColor" opacity="0"/><circle cx="298.683" cy="471.685" r="9" data-turn="6" fill="currentColor" opacity="0"/><circle cx="209.455" cy="785.136" r="9" data-turn="7" fill="currentColor" opacity="0"/><circle cx="174.030" cy="746.507" r="9" data-turn="8" fill="currentColor" opacity="0"/><circle cx="120.449" cy="696.407" r="9" data-turn="9" fill="currentColor" opacity="0"/><circle cx="119.005" cy="652.857" r="9" data-turn="10" fill="currentColor" opacity="0"/><circle cx="61.200" cy="607.822" r="9" data-turn="11" fill="currentColor" opacity="0"/><circle cx="193.367" cy="373.971" r="9" data-turn="12" fill="currentColor" opacity="0"/><circle cx="288.346" cy="450.398" r="9" data-turn="13" fill="currentColor" opacity="0"/><circle cx="355.969" cy="338.821" r="9" data-turn="14" fill="currentColor" opacity="0"/><circle cx="558.243" cy="447.363" r="9" data-turn="15" fill="currentColor" opacity="0"/><circle cx="829.880" cy="448.468" r="9" data-turn="16" fill="currentColor" opacity="0"/><circle cx="798.383" cy="286.663" r="9" data-turn="17" fill="currentColor" opacity="0"/><circle cx="815.917" cy="215.372" r="9" data-turn="18" fill="currentColor" opacity="0"/><circle cx="854.012" cy="242.055" r="9" data-turn="19" fill="currentColor" opacity="0"/><circle cx="897.145" cy="252.595" r="9" data-turn="20" fill="currentColor" opacity="0"/></g></svg>