<svg xmlns="http://www.w3.org/2000/svg" viewBox="0 0 1000 1000" fill="none" role="img" aria-label="Miami International Autodrome track layout"><path d="M 494.287 422.680 L 614.519 497.752 L 616.570 503.291 L 615.691 508.439 L 612.117 515.282 L 586.512 534.310 L 578.543 542.912 L 575.907 558.422 L 578.543 574.844 L 576.024 595.111 L 569.871 608.079 L 546.669 626.651 L 520.244 635.775 L 503.076 639.619 L 477.764 640.206 L 457.901 636.622 L 434.640 626.195 L 316.635 555.424 L 299.702 545.193 L 291.030 543.694 L 281.069 542.912 L 271.109 544.216 L 258.453 548.191 L 247.789 554.186 L 236.891 562.984 L 225.524 570.543 L 210.641 573.019 L 197.224 571.781 L 182.810 564.808 L 169.275 552.687 L 156.971 540.501 L 143.143 533.659 L 128.905 530.791 L 111.737 533.789 L 95.976 538.742 L 82.734 544.998 L 72.949 554.056 L 63.633 568.653 L 60.000 584.163 L 60.410 597.131 L 63.281 605.863 L 68.027 611.858 L 77.695 617.137 L 89.355 617.137 L 103.769 613.944 L 119.881 614.009 L 153.103 621.047 L 213.922 633.363 L 276.792 631.539 L 372.766 627.564 L 399.309 635.970 L 432.121 647.700 L 458.546 657.019 L 494.053 668.293 L 530.966 674.484 L 568.055 674.940 L 607.019 668.553 L 642.585 656.041 L 723.852 626.391 L 771.019 608.405 L 793.753 598.304 L 851.877 567.415 L 883.165 547.409 L 889.435 538.937 L 887.384 531.899 L 881.701 526.425 L 867.345 517.758 L 857.326 510.264 L 851.877 499.316 L 850.705 487.912 L 853.928 474.031 L 861.662 466.276 L 870.744 462.627 L 897.638 464.256 L 911.055 462.431 L 916.973 458.587 L 925.996 449.789 L 940.000 424.765 L 939.063 419.291 L 932.266 416.554 L 926.114 411.993 L 925.879 402.674 L 937.012 366.767 L 936.133 360.641 L 931.094 356.536 L 903.087 353.994 L 498.623 339.658 L 176.130 325.060 L 166.697 327.537 L 164.705 334.966 L 167.927 344.219 L 179.118 354.125 L 196.520 367.353 L 215.211 377.389 L 230.445 381.234 L 243.863 380.126 L 260.269 374.196 L 298.530 356.210 L 319.975 350.475 L 346.341 348.194 L 372.356 351.844 L 396.907 362.075 L 494.287 422.680 Z" fill="none" stroke="currentColor" stroke-width="14" stroke-linecap="round" stroke-linejoin="round"/><path id="sf" d="M 503.821 407.412 L 484.754 437.948" fill="none" stroke="currentColor" stroke-width="6" opacity=".55"/><g id="turns"><circle cx="616.266" cy="505.071" r="9" data-turn="1" fill="currentColor" opacity="0"/><circle cx="578.390" cy="543.815" r="9" data-turn="2" fill="currentColor" opacity="0"/><circle cx="573.135" cy="601.199" r="9" data-turn="3" fill="currentColor" opacity="0"/><circle cx="285.820" cy="543.285" r="9" data-turn="4" fill="currentColor" opacity="0"/><circle cx="208.719" cy="572.842" r="9" data-turn="5" fill="currentColor" opacity="0"/><circle cx="139.630" cy="532.951" r="9" data-turn="6" fill="currentColor" opacity="0"/><circle cx="67.330" cy="610.977" r="9" data-turn="7" fill="currentColor" opacity="0"/><circle cx="117.956" cy="614.001" r="9" data-turn="8" fill="currentColor" opacity="0"/><circle cx="212.715" cy="633.119" r="9" data-turn="9" fill="currentColor" opacity="0"/><circle cx="373.714" cy="627.864" r="9" data-turn="10" fill="currentColor" opacity="0"/><circle cx="568.763" cy="674.824" r="9" data-turn="11" fill="currentColor" opacity="0"/><circle cx="889.334" cy="539.074" r="9" data-turn="12" fill="currentColor" opacity="0"/><circle cx="855.601" cy="472.353" r="9" data-turn="13" fill="currentColor" opacity="0"/><circle cx="937.743" cy="428.798" r="9" data-turn="14" fill="currentColor" opacity="0"/><circle cx="926.082" cy="402.021" r="9" data-turn="15" fill="currentColor" opacity="0"/><circle cx="935.467" cy="360.098" r="9" data-turn="16" fill="currentColor" opacity="0"/><circle cx="165.264" cy="332.878" r="9" data-turn="17" fill="currentColor" opacity="0"/><circle cx="229.761" cy="381.061" r="9" data-turn="18" fill="currentColor" opacity="0"/><circle cx="364.275" cy="350.710" r="9" data-turn="19" fill="currentColor" opacity="0"/></g></svg>