<svg xmlns="http://www.w3.org/2000/svg" fill="none" aria-label="Circuit de Monaco track layout" role="img" viewBox="0 0 1000 1000"><path fill="none" stroke="currentColor" stroke-linecap="round" stroke-linejoin="round" stroke-width="14" d="m601.816 231.938-1.453-9.05 2.035-8.144 5.23-11.161 4.94-7.843 15.402-19.506 78.242-106.28 5.448-7.641L719.724 60l9.808 2.815 6.829 5.631 4.94 8.848 1.017 9.955.218 8.245.799 6.736 4.068 8.044 4.722 6.134 8.791 12.367 5.957 10.96 2.325 6.636 2.978 3.922 4.722 1.307 5.449-1.609 4.068-4.223 1.235-6.033-2.688-5.128-6.901-5.027-20.414-25.942-2.906-6.234-.073-6.033 1.598-4.625 2.18-4.324 9.589-4.927 14.821-3.82 8.064-3.017 8.281-3.318 11.479-4.022 12.495-.905 6.611 3.318 2.47 10.256-2.324 59.927-9.227 61.636-9.589 39.214-10.68 27.953-18.307 31.974-21.068 27.048-30.512 33.281-43.662 26.746-26.008 12.77-50.127 23.427-33.709 11.664-49.764 11.764-32.037 5.028-17 3.217-2.906 4.927-.218 4.324-1.017 5.027-2.18 4.927-7.192 2.514-10.17 1.709-11.261-6.435-6.175-.402-89.648 11.764-44.533 6.435-40.974 6.435-11.333 1.709-7.555 1.308-5.449 5.63-8.572 16.892-7.265 16.39-5.812 16.389-2.543 11.664-2.688 20.311-.218 34.789.364 8.647 2.542 5.933 5.086 5.731 11.26 8.245 7.556 6.938 3.269 7.441 1.307 10.758 12.786 74.004 3.27 12.971 1.017 4.122-.291 5.53-3.269 4.424-7.192 5.028-7.192 3.519-1.671 5.027 1.38 10.558 8.209 24.031 7.483 18.099 7.628 14.278 13.077 18.702 16.418 16.59 12.06 6.938 13.512 6.335 6.757 3.016 3.414 3.821 3.923 11.764-1.889 6.234-6.102 3.62-27.098 7.139-15.111 2.413-9.953.201-8.863-1.307-5.594-4.223-3.414-3.519-.145-8.245-1.308-6.637-2.615-8.144-15.256-18.803-11.188-17.998-8.718-13.473-9.226-25.539-20.414-71.088-5.594-22.925-3.923-24.534-5.086-35.795-3.995-46.554V600.85l1.307-23.227 2.543-24.131 4.504-16.792 5.086-15.082 2.47-9.251 1.235-8.144-.582-12.367-.218-7.642 2.471-4.525 6.32-3.016 15.401-3.721 13.731-.603 18.816-2.312 26.226-3.319 23.247-4.122 59.136-17.395 33.055-9.049 30.294-4.927 20.777-1.709 16.201-5.832 46.858-22.221 20.559-8.447 30.004-6.736 25.064-3.519 23.901-4.022 13.44-4.726 16.346-10.256 14.166-14.781 7.991-12.468 3.56-13.071-.581-13.675-2.325-12.87-5.085-14.177-6.757-13.474-10.606-8.245-10.171-9.552-4.94-4.323-4.577-4.626Z"/><path id="sf" fill="none" stroke="currentColor" stroke-linecap="round" stroke-width="6" d="m582.76 238.01 38.112-12.144" opacity=".55"/><g id="turns"><circle cx="601.099" cy="227.475" r="9" fill="currentColor" data-turn="1" opacity="0"/><circle cx="722.816" cy="60.887" r="9" fill="currentColor" data-turn="2" opacity="0"/><circle cx="781.942" cy="150.111" r="9" fill="currentColor" data-turn="3" opacity="0"/><circle cx="756.024" cy="87.448" r="9" fill="currentColor" data-turn="4" opacity="0"/><circle cx="825.814" cy="63.737" r="9" fill="currentColor" data-turn="5" opacity="0"/><circle cx="732.523" cy="354.866" r="9" fill="currentColor" data-turn="6" opacity="0"/><circle cx="495.25" cy="448.418" r="9" fill="currentColor" data-turn="7" opacity="0"/><circle cx="460.559" cy="474.056" r="9" fill="currentColor" data-turn="8" opacity="0"/><circle cx="239.773" cy="499.295" r="9" fill="currentColor" data-turn="9" opacity="0"/><circle cx="210.618" cy="619.954" r="9" fill="currentColor" data-turn="10" opacity="0"/><circle cx="241.293" cy="666.5" r="9" fill="currentColor" data-turn="11" opacity="0"/><circle cx="257.18" cy="755.464" r="9" fill="currentColor" data-turn="12" opacity="0"/><circle cx="241.721" cy="799.645" r="9" fill="currentColor" data-turn="13" opacity="0"/><circle cx="333.205" cy="920.496" r="9" fill="currentColor" data-turn="14" opacity="0"/><circle cx="214.752" cy="854.245" r="9" fill="currentColor" data-turn="15" opacity="0"/><circle cx="191.738" cy="477.218" r="9" fill="currentColor" data-turn="16" opacity="0"/><circle cx="443.3" cy="426.011" r="9" fill="currentColor" data-turn="17" opacity="0"/><circle cx="517.579" cy="392.927" r="9" fill="currentColor" data-turn="18" opacity="0"/><circle cx="649.4" cy="331.709" r="9" fill="currentColor" data-turn="19" opacity="0"/></g></svg>