<svg xmlns="http://www.w3.org/2000/svg" viewBox="0 0 1000 1000" fill="none" role="img" aria-label="Monsanto Park Circuit track layout"><path d="M83.35 790.669c6.112 -10.136 14.007 -21.597 20.955 -33.401c16.68 -28.358 21.18 -42.687 22.103 -45.163c22.514 -60.271 67.974 -176.079 100.149 -253.949c17.046 -41.271 31.313 -71.909 34.373 -77.932c33.221 -65.252 83.803 -56.717 136.826 -49.012c25.215 3.663 40.276 -1.965 51.935 -14.427c6.301 -6.726 12.067 -15 16.547 -25.905c9.086 -22.127 6.773 -38.367 5.29 -68.056c-0.286 -5.746 1.764 -9.956 6.739 -12.295c9.053 -4.254 17.971 -8.179 26.537 -11.607c85.411 -34.18 207.122 -50.347 287.194 -19.844c75.85 28.897 106.677 45.775 122.065 57.699c37.015 28.67 30.251 84.525 5.693 106.579c-24.55 22.047 -282.568 220.866 -318.152 246.959c-17.633 12.927 -59.793 27.196 -87.539 18.376c-34.211 -10.866 -67.323 -23.001 -91.114 -31.604c-28.465 -10.291 -59.25 -7.085 -69.756 24.26c-12.816 38.218 -22.768 70.556 -32.03 97.018c-30.736 87.893 -71.177 123.486 -143.061 130.099c-43.723 4.025 -79.008 7.346 -96.803 8.085c-5.331 0.221 -27.857 3.436 -19.434 -9.485c5.466 -8.388 12.211 -21.01 21.487 -36.397z" fill="none" stroke="currentColor" stroke-width="14" stroke-linecap="round" stroke-linejoin="round"/><path id="sf" d="M 67.936 781.374 L 98.764 799.965" fill="none" stroke="currentColor" stroke-width="6" opacity=".55"/><g id="turns"><circle cx="299.894" cy="336.521" r="9" data-turn="1" fill="currentColor" opacity="0"/><circle cx="436.795" cy="326.798" r="9" data-turn="2" fill="currentColor" opacity="0"/><circle cx="472.89" cy="215.464" r="9" data-turn="3" fill="currentColor" opacity="0"/><circle cx="928.689" cy="332.688" r="9" data-turn="4" fill="currentColor" opacity="0"/><circle cx="527.077" cy="611.159" r="9" data-turn="5" fill="currentColor" opacity="0"/><circle cx="367.348" cy="580.472" r="9" data-turn="6" fill="currentColor" opacity="0"/><circle cx="249.227" cy="806.069" r="9" data-turn="7" fill="currentColor" opacity="0"/><circle cx="62.233" cy="835.458" r="9" data-turn="8" fill="currentColor" opacity="0"/></g></svg>