<svg xmlns="http://www.w3.org/2000/svg" viewBox="0 0 1000 1000" fill="none" role="img" aria-label="Montjuïc track layout"><path d="M933.009 266.486c-5.656 -7.26 -16.388 -9.597 -24.483 -5.152c-8.587 4.705 -16.87 11.884 -24.603 21.337c-14.638 17.876 -46.321 34.776 -65.182 34.776c-3.089 0 -4.988 -0.48 -6.03 -0.884c-6.041 -2.358 -14.4 -6.315 -24.085 -10.906c-20.211 -9.587 -45.369 -21.512 -65.877 -26.351l-9.652 -2.203c-15.953 -3.593 -45.65 -10.272 -43.922 -18.427c1.848 -8.746 17.016 -11.849 29.445 -11.849c5.573 0 11.404 0.579 16.433 1.65c9.087 1.921 32.762 6.386 56.253 6.386c18.697 0 32.62 -2.772 42.573 -8.486c7.778 -4.455 13.12 -11.551 15.447 -20.514c6.5 -24.979 -11.768 -56.432 -13.874 -59.944c-3.057 -5.079 -6.825 -10.335 -10.467 -15.414c-7.734 -10.78 -15.729 -21.937 -17.421 -31.668c-2.974 -17.16 -16.638 -39.231 -27.987 -51.292c-8.069 -8.557 -22.172 -10.075 -31.815 -3.313c-17.992 12.581 -59.589 41.652 -75.879 52.892c-6.85 4.726 -18.231 7.126 -30.28 9.66c-20.248 4.268 -43.195 9.099 -58.741 27.109c-11.48 13.297 -22.542 20.754 -29.792 24.681a10.406 10.406 0 0 1 -9.616 0.041l-162.831 -85.899a26.138 26.138 0 0 0 -12.148 -3.014a25.996 25.996 0 0 0 -23.185 14.126l-112.364 217.92c-13.963 27.089 -16.087 59.07 -5.817 87.749l19.465 54.377c6.819 19.059 -1.199 39.853 -19.071 49.463c-30.398 16.349 -53.766 31.898 -69.442 46.19l-2.181 1.984c-36.843 33.561 -87.31 79.511 -69.117 137.179c14.459 45.839 39.01 109.551 58.739 160.74l8.079 21.002c13.455 35.077 58.526 59.57 109.6 59.57c32.219 0 62.131 -10.232 84.223 -28.815c52.646 -44.288 65.889 -92.267 73.802 -120.925c1.043 -3.77 1.992 -7.219 2.943 -10.293c20.164 -65.355 68.109 -112.129 138.663 -135.271c65.662 -21.532 189.091 -66.743 243.67 -118.007c39.813 -37.412 130.537 -166.047 150.006 -243.71a19.105 19.105 0 0 0 -3.476 -16.494z" fill="none" stroke="currentColor" stroke-width="14" stroke-linecap="round" stroke-linejoin="round"/><path id="sf" d="M 918.81 277.549 L 947.208 255.423" fill="none" stroke="currentColor" stroke-width="6" opacity=".55"/><g id="turns"><circle cx="930.222" cy="263.634" r="9" data-turn="1" fill="currentColor" opacity="0"/><circle cx="818.396" cy="317.433" r="9" data-turn="2" fill="currentColor" opacity="0"/><circle cx="669.467" cy="257.638" r="9" data-turn="3" fill="currentColor" opacity="0"/><circle cx="824.19" cy="237.051" r="9" data-turn="4" fill="currentColor" opacity="0"/><circle cx="792.849" cy="132.266" r="9" data-turn="5" fill="currentColor" opacity="0"/><circle cx="743.316" cy="60.065" r="9" data-turn="6" fill="currentColor" opacity="0"/><circle cx="645.723" cy="120.36" r="9" data-turn="7" fill="currentColor" opacity="0"/><circle cx="577.348" cy="141.644" r="9" data-turn="8" fill="currentColor" opacity="0"/><circle cx="531.218" cy="179.323" r="9" data-turn="9" fill="currentColor" opacity="0"/><circle cx="341.503" cy="90.644" r="9" data-turn="10" fill="currentColor" opacity="0"/><circle cx="201.002" cy="380.76" r="9" data-turn="11" fill="currentColor" opacity="0"/><circle cx="226.37" cy="491.937" r="9" data-turn="12" fill="currentColor" opacity="0"/><circle cx="62.963" cy="671.996" r="9" data-turn="13" fill="currentColor" opacity="0"/><circle cx="142.792" cy="896.98" r="9" data-turn="14" fill="currentColor" opacity="0"/></g></svg>