<svg xmlns="http://www.w3.org/2000/svg" viewBox="0 0 1000 1000" fill="none" role="img" aria-label="Autodromo Nazionale Monza track layout"><path d="M 261.674 618.921 L 276.472 444.915 L 283.193 371.966 L 283.918 368.988 L 286.001 367.274 L 288.588 366.868 L 291.775 367.274 L 294.772 367.499 L 297.549 367.274 L 299.442 365.785 L 300.925 363.665 L 301.303 361.770 L 301.303 359.649 L 290.828 319.859 L 289.345 309.031 L 288.777 299.241 L 289.535 288.594 L 293.447 236.713 L 294.961 228.231 L 296.823 220.336 L 299.631 211.855 L 303.354 202.697 L 307.645 193.764 L 313.987 183.749 L 320.518 175.493 L 329.321 166.109 L 338.850 157.808 L 349.483 150.184 L 360.873 143.597 L 373.746 137.191 L 386.651 132.724 L 400.849 128.709 L 416.909 125.912 L 433.347 124.423 L 497.397 118.919 L 575.834 114.227 L 580.504 113.821 L 582.934 112.513 L 584.984 110.393 L 587.572 101.234 L 588.708 98.708 L 590.569 96.994 L 593.756 95.956 L 604.389 94.016 L 615.968 91.490 L 632.407 86.166 L 705.796 61.489 L 712.138 60.000 L 718.133 60.000 L 723.906 61.083 L 728.008 62.752 L 731.952 65.098 L 735.675 67.669 L 740.345 72.767 L 742.964 76.783 L 744.825 81.700 L 745.772 87.204 L 748.927 122.077 L 754.922 181.628 L 754.732 186.952 L 753.786 190.380 L 752.303 193.358 L 749.874 195.478 L 745.393 198.456 L 697.403 224.397 L 658.374 246.277 L 634.079 259.676 L 622.310 266.488 L 609.058 275.827 L 599.530 283.090 L 591.326 290.309 L 548.732 326.896 L 518.505 354.326 L 454.613 410.448 L 416.151 444.284 L 410.914 449.607 L 408.863 452.991 L 408.484 456.374 L 408.484 460.435 L 409.810 469.367 L 410.188 474.240 L 410.188 481.278 L 409.620 485.112 L 408.106 489.985 L 405.866 495.714 L 402.142 501.489 L 397.094 507.444 L 391.320 512.316 L 386.651 515.925 L 384.221 518.722 L 382.360 522.512 L 380.656 529.550 L 376.743 561.671 L 372.642 595.913 L 340.901 902.961 L 339.575 914.014 L 338.282 919.157 L 335.663 924.436 L 332.098 928.721 L 327.996 932.556 L 322.222 936.346 L 315.880 938.692 L 308.592 940.000 L 302.408 939.549 L 296.634 938.286 L 289.913 935.714 L 283.382 932.737 L 278.523 929.353 L 272.717 924.887 L 266.186 917.849 L 261.706 911.488 L 257.794 904.675 L 254.417 896.600 L 251.262 887.667 L 248.833 878.509 L 247.697 870.659 L 246.403 858.749 L 246.214 846.839 L 246.025 835.560 L 245.457 813.229 L 245.078 793.649 L 245.457 772.400 L 247.886 744.565 L 257.036 656.502 L 261.674 618.921 Z" fill="none" stroke="currentColor" stroke-width="14" stroke-linecap="round" stroke-linejoin="round"/><path id="sf" d="M 243.739 617.396 L 279.610 620.447" fill="none" stroke="currentColor" stroke-width="6" opacity=".55"/><g id="turns"><circle cx="283.162" cy="372.300" r="9" data-turn="1" fill="currentColor" opacity="0"/><circle cx="301.245" cy="362.063" r="9" data-turn="2" fill="currentColor" opacity="0"/><circle cx="289.328" cy="308.739" r="9" data-turn="3" fill="currentColor" opacity="0"/><circle cx="310.911" cy="188.607" r="9" data-turn="4" fill="currentColor" opacity="0"/><circle cx="579.506" cy="113.908" r="9" data-turn="5" fill="currentColor" opacity="0"/><circle cx="593.252" cy="96.120" r="9" data-turn="6" fill="currentColor" opacity="0"/><circle cx="730.898" cy="64.471" r="9" data-turn="7" fill="currentColor" opacity="0"/><circle cx="752.952" cy="192.055" r="9" data-turn="8" fill="currentColor" opacity="0"/><circle cx="619.436" cy="268.514" r="9" data-turn="9" fill="currentColor" opacity="0"/><circle cx="408.988" cy="452.785" r="9" data-turn="10" fill="currentColor" opacity="0"/><circle cx="407.773" cy="490.836" r="9" data-turn="11" fill="currentColor" opacity="0"/><circle cx="382.675" cy="521.869" r="9" data-turn="12" fill="currentColor" opacity="0"/><circle cx="330.230" cy="930.468" r="9" data-turn="13" fill="currentColor" opacity="0"/></g></svg>