<svg xmlns="http://www.w3.org/2000/svg" viewBox="0 0 1000 1000" fill="none" role="img" aria-label="Mosport International Raceway track layout"><path d="M930.124 850.37l0 -0.002c14.995 20.883 12.707 49.246 -5.448 67.432l-8.769 8.789c-6.459 6.477 -15.042 10.042 -24.167 10.042a33.86 33.86 0 0 1 -24.609 -10.475l-43.284 -45.005a177.281 177.281 0 0 0 -70.434 -44.78l-400.701 -136.172c-38.906 -13.231 -74.444 -33.541 -105.616 -60.378l-150.064 -129.23c-43.018 -37.044 -49.44 -101.203 -14.624 -146.064l52.286 -67.394a82.329 82.329 0 0 0 10.033 -84.402l-1.236 -2.742c-5.092 -11.333 -5.297 -23.888 -0.581 -35.368c4.714 -11.474 13.675 -20.243 25.241 -24.678l206.962 -79.504c12.206 -4.691 24.903 -7.071 37.752 -7.071c56.237 0 102.41 44.176 105.125 100.569l9.706 201.37a61.46 61.46 0 0 0 9.861 30.552l13.473 20.74c16.239 24.981 43.703 39.894 73.464 39.894a87.669 87.669 0 0 0 40.899 -10.201l126.141 -66.884a102.502 102.502 0 0 1 43.292 -9.587c26.078 0 49.013 9.931 62.933 27.242c9.921 12.351 20.128 34.579 12.37 70.366c-12.216 56.311 -36.751 177.022 -50.285 243.969c-4.112 20.347 0.481 41.705 12.605 58.598z" fill="none" stroke="currentColor" stroke-width="14" stroke-linecap="round" stroke-linejoin="round"/><path id="sf" d="M 912.124 850.37 L 948.124 850.37" fill="none" stroke="currentColor" stroke-width="6" opacity=".55"/><g id="turns"><circle cx="939.476" cy="888.241" r="9" data-turn="1" fill="currentColor" opacity="0"/><circle cx="892.693" cy="936.613" r="9" data-turn="2" fill="currentColor" opacity="0"/><circle cx="73.821" cy="482.374" r="9" data-turn="3" fill="currentColor" opacity="0"/><circle cx="151.968" cy="243.692" r="9" data-turn="4" fill="currentColor" opacity="0"/><circle cx="146.895" cy="167.042" r="9" data-turn="5" fill="currentColor" opacity="0"/><circle cx="447.951" cy="69.369" r="9" data-turn="6" fill="currentColor" opacity="0"/><circle cx="530.962" cy="382.325" r="9" data-turn="7" fill="currentColor" opacity="0"/><circle cx="583.163" cy="446.169" r="9" data-turn="8" fill="currentColor" opacity="0"/><circle cx="897.662" cy="396.947" r="9" data-turn="9" fill="currentColor" opacity="0"/><circle cx="859.632" cy="739.866" r="9" data-turn="10" fill="currentColor" opacity="0"/></g></svg>