<svg xmlns="http://www.w3.org/2000/svg" viewBox="0 0 1000 1000" fill="none" role="img" aria-label="Autodromo Internazionale del Mugello track layout"><path d="M 496.925 486.162 L 520.017 434.936 L 541.222 390.984 L 584.386 317.482 L 619.133 256.881 L 649.132 189.004 L 690.246 83.701 L 696.613 73.275 L 703.087 67.275 L 710.263 62.250 L 724.292 60.000 L 736.162 62.100 L 745.766 67.950 L 752.888 76.575 L 757.960 86.626 L 758.446 106.801 L 755.370 128.177 L 744.471 187.429 L 744.039 195.004 L 745.712 201.604 L 749.651 209.329 L 755.802 215.554 L 772.312 225.455 L 799.559 243.305 L 805.710 251.780 L 809.056 262.356 L 810.243 271.356 L 809.811 280.656 L 806.358 291.157 L 799.829 302.482 L 679.995 484.812 L 677.513 491.862 L 676.649 498.387 L 676.973 504.088 L 678.214 509.938 L 681.883 519.688 L 694.401 546.164 L 696.829 555.014 L 696.829 562.664 L 695.534 570.615 L 692.836 577.965 L 689.545 583.890 L 680.372 596.415 L 566.527 735.469 L 561.347 740.044 L 554.765 744.619 L 548.020 747.470 L 542.409 749.120 L 535.934 749.420 L 475.289 748.970 L 467.465 750.320 L 454.030 755.345 L 443.941 761.870 L 436.171 768.695 L 429.696 777.545 L 423.545 788.271 L 419.283 798.846 L 391.874 876.923 L 387.827 888.474 L 382.809 899.799 L 375.040 911.649 L 368.026 920.049 L 357.828 928.225 L 348.278 934.225 L 335.167 938.275 L 322.595 940.000 L 309.754 939.400 L 292.488 935.575 L 284.395 933.625 L 275.438 930.175 L 222.185 902.199 L 213.012 896.424 L 203.516 886.448 L 197.527 877.223 L 192.185 865.823 L 189.757 851.872 L 189.757 841.672 L 191.754 822.172 L 224.451 652.367 L 226.555 645.992 L 231.411 637.441 L 238.587 631.966 L 245.763 628.141 L 257.525 626.341 L 297.614 625.966 L 305.491 624.466 L 312.667 621.316 L 319.682 615.991 L 328.314 605.791 L 333.063 593.115 L 390.039 393.459 L 393.492 383.934 L 400.345 373.434 L 408.384 365.559 L 416.585 360.759 L 426.459 358.208 L 436.279 358.283 L 448.095 361.134 L 459.480 368.409 L 467.357 377.709 L 471.134 387.234 L 473.292 400.435 L 471.620 412.285 L 465.954 426.910 L 449.714 451.811 L 413.887 495.987 L 410.974 502.513 L 408.762 509.938 L 407.952 519.238 L 407.898 562.064 L 406.118 568.964 L 398.618 581.640 L 242.310 792.096 L 239.180 799.746 L 234.918 809.796 L 233.569 817.897 L 233.785 833.872 L 236.483 843.022 L 243.443 855.173 L 252.399 863.648 L 266.644 871.073 L 277.273 872.423 L 293.082 870.923 L 307.110 865.673 L 319.736 856.898 L 332.739 843.847 L 345.958 823.522 L 392.737 719.944 L 496.925 486.162 Z" fill="none" stroke="currentColor" stroke-width="14" stroke-linecap="round" stroke-linejoin="round"/><path id="sf" d="M 480.515 478.765 L 513.334 493.560" fill="none" stroke="currentColor" stroke-width="6" opacity=".55"/><g id="turns"><circle cx="618.883" cy="257.316" r="9" data-turn="1" fill="currentColor" opacity="0"/><circle cx="728.444" cy="60.735" r="9" data-turn="2" fill="currentColor" opacity="0"/><circle cx="747.471" cy="205.054" r="9" data-turn="3" fill="currentColor" opacity="0"/><circle cx="808.253" cy="259.820" r="9" data-turn="4" fill="currentColor" opacity="0"/><circle cx="676.777" cy="497.421" r="9" data-turn="5" fill="currentColor" opacity="0"/><circle cx="696.572" cy="564.243" r="9" data-turn="6" fill="currentColor" opacity="0"/><circle cx="553.488" cy="745.159" r="9" data-turn="7" fill="currentColor" opacity="0"/><circle cx="448.420" cy="758.973" r="9" data-turn="8" fill="currentColor" opacity="0"/><circle cx="346.586" cy="934.747" r="9" data-turn="9" fill="currentColor" opacity="0"/><circle cx="196.227" cy="874.450" r="9" data-turn="10" fill="currentColor" opacity="0"/><circle cx="236.586" cy="633.493" r="9" data-turn="11" fill="currentColor" opacity="0"/><circle cx="317.276" cy="617.817" r="9" data-turn="12" fill="currentColor" opacity="0"/><circle cx="431.955" cy="358.250" r="9" data-turn="13" fill="currentColor" opacity="0"/><circle cx="410.522" cy="504.030" r="9" data-turn="14" fill="currentColor" opacity="0"/><circle cx="406.467" cy="567.610" r="9" data-turn="15" fill="currentColor" opacity="0"/><circle cx="252.272" cy="863.527" r="9" data-turn="16" fill="currentColor" opacity="0"/></g></svg>