<svg xmlns="http://www.w3.org/2000/svg" viewBox="0 0 1000 1000" fill="none" role="img" aria-label="Nivelles-Baulers track layout"><path d="M925.734 279.362c-48.78 42.699 -471.614 410.03 -505.265 438.409c-54.213 45.723 -78.315 50.195 -139.816 38.986c-55.301 -10.079 -112.686 -21.482 -145.813 -28.643c-24.709 -5.341 -57.125 -28.283 -66.776 -51.453c-9.39 -22.544 -14.344 -50.392 6.785 -85.4c21.129 -35.009 33.592 -53.997 46.429 -71.077c17.738 -23.607 54.256 -48.271 98.078 -33.154c43.822 15.117 58.951 55.696 62.605 94.684c2.607 27.825 6.639 65.498 9.39 96.274c2.347 26.255 40.691 32.622 61.822 16.708c46.055 -34.684 63.646 -49.067 102.773 -80.892c7.778 -6.329 6.001 -18.567 2.347 -36.602c-5.462 -26.971 -4.382 -31.218 2.088 -36.863c47.995 -41.906 141.532 -122.926 163.812 -142.423c20.611 -18.035 38.61 -21.482 68.604 -22.28c40.677 -1.078 61.039 -1.591 80.603 -18.301c19.564 -16.706 79.297 -68.161 125.73 -107.678c16.622 -14.146 27.65 -14.851 35.998 -4.775c8.77 10.588 5.746 21.227 -9.392 34.479z" fill="none" stroke="currentColor" stroke-width="14" stroke-linecap="round" stroke-linejoin="round"/><path id="sf" d="M 937.589 292.906 L 913.878 265.818" fill="none" stroke="currentColor" stroke-width="6" opacity=".55"/><g id="turns"><circle cx="349.87" cy="759.453" r="9" data-turn="1" fill="currentColor" opacity="0"/><circle cx="72.43" cy="684.901" r="9" data-turn="2" fill="currentColor" opacity="0"/><circle cx="189.227" cy="482.457" r="9" data-turn="3" fill="currentColor" opacity="0"/><circle cx="297.523" cy="692.357" r="9" data-turn="4" fill="currentColor" opacity="0"/><circle cx="460.55" cy="606.57" r="9" data-turn="5" fill="currentColor" opacity="0"/><circle cx="455.471" cy="547.264" r="9" data-turn="6" fill="currentColor" opacity="0"/><circle cx="646.033" cy="383.592" r="9" data-turn="7" fill="currentColor" opacity="0"/><circle cx="756.206" cy="367.989" r="9" data-turn="8" fill="currentColor" opacity="0"/><circle cx="932.809" cy="242.439" r="9" data-turn="9" fill="currentColor" opacity="0"/></g></svg>