<svg xmlns="http://www.w3.org/2000/svg" viewBox="0 0 1000 1000" fill="none" role="img" aria-label="Nürburgring track layout"><path d="M 727.393 199.048 L 567.704 362.007 L 534.566 394.611 L 518.609 406.950 L 503.061 418.521 L 468.413 442.303 L 461.149 443.262 L 456.537 440.769 L 454.211 435.015 L 455.762 426.768 L 460.537 408.548 L 468.209 392.629 L 483.431 364.947 L 484.655 358.363 L 484.288 350.052 L 481.431 340.973 L 475.228 332.535 L 468.903 326.973 L 461.271 323.073 L 452.497 321.283 L 446.457 321.539 L 409.769 326.973 L 393.078 331.512 L 378.264 336.243 L 367.368 342.955 L 361.369 348.453 L 358.798 354.143 L 358.675 362.646 L 360.430 370.893 L 367.776 377.861 L 377.611 380.738 L 395.159 379.843 L 404.831 380.227 L 410.463 382.912 L 415.809 389.049 L 416.870 396.209 L 415.442 413.918 L 412.381 440.193 L 404.994 482.899 L 400.995 504.571 L 397.363 523.175 L 393.935 535.705 L 379.529 579.242 L 366.756 621.180 L 362.471 634.158 L 361.695 640.679 L 361.205 646.880 L 363.042 654.999 L 365.980 661.903 L 370.388 668.936 L 376.836 675.137 L 381.406 678.078 L 400.709 687.284 L 423.767 697.896 L 430.460 702.883 L 434.092 708.636 L 435.806 713.751 L 436.092 719.952 L 435.520 723.404 L 433.317 731.076 L 426.052 738.108 L 397.200 753.388 L 359.083 774.932 L 340.923 786.823 L 322.762 799.737 L 294.685 825.245 L 279.790 839.885 L 265.955 856.955 L 252.569 874.344 L 240.408 892.372 L 218.330 929.835 L 211.311 936.995 L 203.393 939.872 L 196.537 940.000 L 188.988 937.699 L 182.580 932.904 L 178.173 926.447 L 176.581 918.839 L 176.745 911.487 L 179.601 904.135 L 191.273 892.308 L 285.544 798.075 L 296.644 786.951 L 300.848 780.430 L 304.765 771.544 L 307.540 761.123 L 308.112 747.122 L 305.908 734.656 L 299.419 715.221 L 297.787 705.248 L 297.787 688.754 L 300.684 675.393 L 342.188 545.742 L 360.226 489.228 L 366.347 467.108 L 365.205 459.756 L 360.716 451.189 L 357.451 447.545 L 353.166 445.180 L 281.953 413.662 L 273.791 406.630 L 269.383 399.661 L 266.894 391.351 L 266.322 379.843 L 268.077 372.299 L 272.240 363.924 L 281.993 351.394 L 342.555 278.130 L 402.546 205.058 L 409.035 199.879 L 417.319 193.870 L 428.501 188.564 L 471.678 176.161 L 662.260 126.104 L 664.627 123.802 L 664.913 120.094 L 663.199 113.957 L 661.607 106.541 L 662.913 101.299 L 671.034 96.504 L 703.315 81.800 L 723.475 76.110 L 792.607 60.000 L 802.646 60.000 L 811.829 64.539 L 818.644 72.019 L 822.072 78.859 L 823.419 85.380 L 823.337 95.034 L 820.276 104.176 L 728.862 197.578 L 728.862 197.578 L 727.393 199.048 Z" fill="none" stroke="currentColor" stroke-width="14" stroke-linecap="round" stroke-linejoin="round"/><path id="sf" d="M 740.249 211.647 L 714.537 186.450" fill="none" stroke="currentColor" stroke-width="6" opacity=".55"/><g id="turns"><circle cx="457.229" cy="441.142" r="9" data-turn="1" fill="currentColor" opacity="0"/><circle cx="481.923" cy="342.536" r="9" data-turn="2" fill="currentColor" opacity="0"/><circle cx="359.228" cy="365.241" r="9" data-turn="3" fill="currentColor" opacity="0"/><circle cx="412.835" cy="385.634" r="9" data-turn="4" fill="currentColor" opacity="0"/><circle cx="396.457" cy="526.487" r="9" data-turn="5" fill="currentColor" opacity="0"/><circle cx="364.596" cy="658.651" r="9" data-turn="6" fill="currentColor" opacity="0"/><circle cx="436.000" cy="717.970" r="9" data-turn="7" fill="currentColor" opacity="0"/><circle cx="280.906" cy="838.788" r="9" data-turn="8" fill="currentColor" opacity="0"/><circle cx="186.815" cy="936.073" r="9" data-turn="9" fill="currentColor" opacity="0"/><circle cx="305.322" cy="769.452" r="9" data-turn="10" fill="currentColor" opacity="0"/><circle cx="297.787" cy="696.383" r="9" data-turn="11" fill="currentColor" opacity="0"/><circle cx="363.821" cy="457.115" r="9" data-turn="12" fill="currentColor" opacity="0"/><circle cx="268.090" cy="395.346" r="9" data-turn="13" fill="currentColor" opacity="0"/><circle cx="414.245" cy="196.100" r="9" data-turn="14" fill="currentColor" opacity="0"/><circle cx="660.069" cy="126.679" r="9" data-turn="15" fill="currentColor" opacity="0"/><circle cx="667.956" cy="98.322" r="9" data-turn="16" fill="currentColor" opacity="0"/><circle cx="816.453" cy="69.615" r="9" data-turn="17" fill="currentColor" opacity="0"/></g></svg>