<svg xmlns="http://www.w3.org/2000/svg" viewBox="0 0 1000 1000" fill="none" role="img" aria-label="Okayama International Circuit track layout"><path d="M895.039 715.469l0.002 0a110.62 110.62 0 0 1 43.824 104.824l-9.537 66.544c-4.136 28.827 -29.177 50.568 -58.255 50.568a58.534 58.534 0 0 1 -21.346 -4.038l-502.272 -195.547c-19.31 -7.521 -34.697 -22.046 -43.313 -40.91c-16.287 -35.64 -1.75 -77.522 33.09 -95.357c47.175 -24.154 82.006 -44.518 100.729 -58.886c22.562 -17.319 33.256 -31.688 34.684 -46.602c1.564 -16.312 -8.049 -35.949 -29.386 -60.028c-30.581 -34.525 -65.885 -73.795 -88.595 -99a91.382 91.382 0 0 0 -52.212 -28.757l-28.796 -4.936c-18.575 -3.18 -35.411 -11.889 -48.685 -25.182c-25.722 -25.743 -74.616 -71.964 -113.109 -92.262c-34.948 -18.42 -55.572 -49.381 -51.309 -77.035c3.512 -22.824 22.865 -39.052 53.1 -44.522c6.412 -1.16 13.002 -1.75 19.582 -1.75c63.083 0 118.297 53.149 147.965 81.699c28.565 27.492 328.314 315.453 421.579 405.055l8.604 8.266a32.848 32.848 0 0 1 10.055 25.849a32.889 32.889 0 0 1 -13.276 24.4c-15.166 11.25 -37.402 10.604 -51.907 -1.48l-56.417 -47.019c-10.37 -8.635 -27.11 -6.408 -34.875 4.464l-52.275 72.997a23.413 23.413 0 0 0 -3.651 19.4a23.352 23.352 0 0 0 12.446 15.309l222.454 108.316c9.738 4.742 21.252 2.126 28.178 -5.872c4.451 -5.151 6.349 -11.758 5.352 -18.612c-1.322 -9.116 -4.732 -16.993 -10.127 -23.426c-10.043 -11.961 -20.327 -23.81 -30.56 -35.231a36.676 36.676 0 0 1 -9.392 -26.688a36.635 36.635 0 0 1 12.247 -25.481c15.27 -13.626 39.418 -14.746 55.842 -2.595z" fill="none" stroke="currentColor" stroke-width="14" stroke-linecap="round" stroke-linejoin="round"/><path id="sf" d="M 895.039 697.469 L 895.039 733.469" fill="none" stroke="currentColor" stroke-width="6" opacity=".55"/><g id="turns"><circle cx="933.019" cy="765.819" r="9" data-turn="1" fill="currentColor" opacity="0"/><circle cx="877.832" cy="937.01" r="9" data-turn="2" fill="currentColor" opacity="0"/><circle cx="312.338" cy="622.351" r="9" data-turn="3" fill="currentColor" opacity="0"/><circle cx="472.486" cy="497.424" r="9" data-turn="4" fill="currentColor" opacity="0"/><circle cx="332.123" cy="318.93" r="9" data-turn="5" fill="currentColor" opacity="0"/><circle cx="248.068" cy="294.922" r="9" data-turn="6" fill="currentColor" opacity="0"/><circle cx="63.247" cy="98.92" r="9" data-turn="7" fill="currentColor" opacity="0"/><circle cx="721.323" cy="584.797" r="9" data-turn="8" fill="currentColor" opacity="0"/><circle cx="581.794" cy="554.241" r="9" data-turn="9" fill="currentColor" opacity="0"/><circle cx="509.56" cy="657.957" r="9" data-turn="10" fill="currentColor" opacity="0"/><circle cx="768.359" cy="777.462" r="9" data-turn="11" fill="currentColor" opacity="0"/><circle cx="728.041" cy="664.818" r="9" data-turn="12" fill="currentColor" opacity="0"/></g></svg>