<svg xmlns="http://www.w3.org/2000/svg" viewBox="0 0 1000 1000" fill="none" role="img" aria-label="Circuit de Pedralbes track layout"><path d="M75.968 742.88l0 -0.002c-13.691 3.663 -20.65 -4.431 -12.455 -17.375c26.036 -41.111 119.435 -189.329 150.005 -237.962c7.984 -12.703 14.033 -22.727 26.038 -33.005c27.741 -23.738 59.436 -52.107 79.816 -70.056c7.638 -6.727 12.924 -15.644 14.152 -25.474c3.395 -27.213 6.793 -55.005 9.056 -73.533c1.482 -12.122 7.926 -23.159 23.208 -27.792c10.988 -3.328 15.632 -1.019 24.34 8.108c23.21 24.317 129.631 136.063 165.855 174.852c7.476 8 14.156 9.449 23.214 4.633c14.154 -7.525 47.546 -25.474 67.358 -34.738c8.8 -4.114 27.858 -10.46 43.023 -15.632c30.569 -10.421 141.515 -48.053 159.063 -53.845c12.107 -3.995 23.617 -0.141 28.304 7.529c8.487 13.894 44.719 66.583 60.572 90.319c3.895 5.839 3.79 12.75 -4.529 15.636c-31.707 11.004 -657.203 226.967 -709.28 244.912c-15.947 5.503 -29.861 10.321 -53.775 17.373c-29.436 8.679 -57.171 16.209 -93.964 26.051" fill="none" stroke="currentColor" stroke-width="14" stroke-linecap="round" stroke-linejoin="round"/><path id="sf" d="M 57.968 742.88 L 93.968 742.88" fill="none" stroke="currentColor" stroke-width="6" opacity=".55"/><g id="turns"><circle cx="61.252" cy="740.022" r="9" data-turn="1" fill="currentColor" opacity="0"/><circle cx="228.599" cy="465.6" r="9" data-turn="2" fill="currentColor" opacity="0"/><circle cx="330.201" cy="370.302" r="9" data-turn="3" fill="currentColor" opacity="0"/><circle cx="372.926" cy="256.271" r="9" data-turn="4" fill="currentColor" opacity="0"/><circle cx="567.778" cy="447.895" r="9" data-turn="5" fill="currentColor" opacity="0"/><circle cx="866.347" cy="340.691" r="9" data-turn="6" fill="currentColor" opacity="0"/><circle cx="939.817" cy="447.892" r="9" data-turn="7" fill="currentColor" opacity="0"/></g></svg>