<svg xmlns="http://www.w3.org/2000/svg" viewBox="0 0 1000 1000" fill="none" role="img" aria-label="Pescara Circuit track layout"><path d="M799.831 823.96l0.002 0c-1.148 1.641 -1.757 1.332 -3.846 -0.239c-5.626 -4.268 -18.115 -13.625 -23.179 -16.823c-3.341 -2.115 -5.335 -3.762 -7.754 -4.433c-9.143 -2.543 -35.095 -9.904 -45.871 -10.834c-5.714 -0.493 -10.043 1.563 -14.284 4.761c-2.633 1.98 -4.883 3.437 -7.267 4.188c-6.287 1.964 -26.284 7.383 -36.405 14.19c-4.484 3.015 -9.472 7.627 -11.43 13.87c-2.285 7.303 -4 15.836 -17.874 16.489c-2.447 0.117 -23.997 0.816 -28.08 0.906c-3.834 0.086 -12.442 0.495 -15.671 -0.575c-5.708 -1.888 -18.856 -7.631 -23.592 -9.765c-2.934 -1.322 -5.628 -2.543 -8.652 -4.511c-2.633 -1.714 -8.238 -5.661 -10.857 -7.385c-2.289 -1.51 -6.281 -3.445 -8.326 -5.91c-1.221 -1.475 -10.094 -13.05 -12.893 -16.493c-1.467 -1.804 -6.778 -0.638 -10.202 -0.327c-1.8 0.164 -1.463 0.395 -4.245 -2.705c-2.279 -2.547 -5.305 -0.493 -8.488 0.984c-3.181 1.477 -5.303 -0.409 -11.098 -0.082c-3.676 0.211 -4.006 3.367 -8.736 7.22c-2.561 2.087 -6.315 -0.108 -8.733 0.331c-2.694 0.491 -11.843 4.104 -16.25 5.086c-4.403 0.984 -9.141 0.736 -13.056 2.952c-3.916 2.22 -10.771 3.549 -14.938 2.547c-3.758 -0.904 -4.986 -1.309 -7.758 1.886c-2.199 2.545 -8.157 14.361 -10.041 19.449c-1.763 4.806 -7.342 1.972 -11.428 8.453c-2.467 3.924 -7.668 6.563 -10.849 6.317c-2.085 -0.162 -6.86 1.721 -9.55 4.924c-2.025 2.404 -3.543 3.267 -4.734 -0.741c-1.227 -4.1 -1.614 -6.152 -4.816 -7.629c-3.02 -1.397 -9.108 -6.082 -13.633 -10.341c-2.529 -2.379 -7.999 -1.643 -13.956 -1.643c-2.222 0 -1.549 -1.156 -2.94 -5.908c-0.814 -2.788 -1.792 -5.331 -8.001 -7.878c-4.155 -1.706 -10.28 -4.593 -17.054 -5.988c-8.042 -1.659 -9.715 -2.465 -14.206 -5.333c-3.989 -2.557 -6.287 -3.042 -10.276 -8.457c-2.923 -3.95 -7.43 -7.956 -11.759 -8.122c-2.322 -0.088 -7.222 0.505 -11.1 4.515c-5.798 5.988 -13.175 10.106 -17.549 11.978c-3.265 1.399 -5.464 1.643 -7.672 0.902c-2.205 -0.739 -8.408 -2.868 -13.142 -4.92c-3.826 -1.659 -8.832 -4.358 -10.366 -6.24c-1.144 -1.395 -10.693 -13.789 -13.144 -16.984c-2.441 -3.202 -3.345 -3.94 -4.562 -5.17c-1.232 -1.232 -5.069 -2.872 -8.66 -4.268c-3.106 -1.207 -5.869 -0.495 -7.59 2.214c-1.939 3.069 -4.652 7.224 -6.53 10.587c-1.272 2.269 -2.617 4.349 -4.816 7.22c-1.54 2.009 -2.621 3.449 -6.205 7.389c-3.177 3.482 -9.302 2.13 -15.016 1.393c-3.541 -0.46 -7.592 -1.729 -11.266 -1.232c-3.67 0.491 -9.222 2.952 -12.005 4.186c-2.062 0.914 -3.664 -1.643 -0.976 -2.379c2.694 -0.741 3.103 -3.449 0.976 -5.256c-1.189 -1.015 -3.664 -2.954 -7.34 -5.906c-3.185 -2.557 -5.387 -5.006 -7.672 -8.613c-2.058 -3.249 -4.493 -3.86 -7.676 -5.252c-2.43 -1.066 -4.654 -2.629 -7.181 -2.874c-5.898 -0.571 -8.922 -4.957 -9.55 -7.383c-0.491 -1.888 -2.042 -3.777 -3.267 -5.994c-1.23 -2.214 -9.472 -12.471 -11.917 -15.425c-2.449 -2.956 -4.384 -5.677 -4.654 -8.371c-0.329 -3.277 -0.243 -5.331 -0.573 -8.531c-0.229 -2.218 -1.637 -1.763 -4.816 -0.655c-2.124 0.734 -4.239 -1.481 -1.635 -3.693c1.097 -0.929 2.422 -2.592 3.838 -4.842c1.964 -3.12 1.628 -5.839 1.385 -9.194c-0.323 -4.595 0.037 -6.111 1.557 -8.042c4.971 -6.319 8.279 -12.066 8.893 -15.673c1.307 -7.631 4.998 -15.609 7.424 -19.693c2.7 -4.511 5.632 -7.467 9.554 -8.287c4.104 -0.859 8.652 -4.433 11.346 -7.138c2.688 -2.709 7.571 -7.486 8.568 -11.244c1.313 -4.924 4.883 -18.003 7.017 -24.124c1.637 -4.677 2.214 -6.017 1.637 -10.339c-0.575 -4.27 0.092 -6.426 3.83 -12.555c44.328 -72.621 94.769 -157.792 115.341 -193.245c3.089 -5.325 10.939 -17.23 15.591 -22.401c4.648 -5.166 182.754 -229.425 189.127 -236.974c5.477 -6.504 10.405 -5.153 15.343 0.411a1995235.75 1995235.75 0 0 0 324.032 365.214c1.387 1.561 -2.518 2.31 -1.146 3.852c1.54 1.745 6.422 7.389 8.447 9.478c1.117 1.156 2.578 -2.201 3.14 -1.561c1.354 1.52 93.861 105.702 106.221 119.537c1.272 1.434 1.974 2.649 -0.082 4.928c-1.639 1.804 -6.518 6.006 -9.634 8.776c-2.126 1.888 -2.756 2.072 -0.98 3.693c18.69 17.068 24.486 27.244 30.364 34.875c3.124 4.051 11.919 13.13 16.898 17.972c2.107 2.046 0.608 3.713 -0.082 4.265c-2.365 1.888 -1.178 1.504 -6.203 4.759c-5.957 3.856 -47.18 29.541 -53.141 33.479c-4.386 2.903 -21.628 17.89 -26.037 22.072c-4.409 4.182 -7.312 4.255 -11.426 5.988c-2.533 1.068 -17.465 9.437 -21.059 12.228c-2.694 2.089 -5.29 4.998 -6.696 7.549c-3.423 6.238 -8.582 14.151 -14.443 22.565" fill="none" stroke="currentColor" stroke-width="14" stroke-linecap="round" stroke-linejoin="round"/><path id="sf" d="M 799.831 805.96 L 799.831 841.96" fill="none" stroke="currentColor" stroke-width="6" opacity=".55"/><g id="turns"><circle cx="799.831" cy="823.96" r="9" data-turn="1" fill="currentColor" opacity="0"/><circle cx="716.689" cy="791.577" r="9" data-turn="2" fill="currentColor" opacity="0"/><circle cx="658.495" cy="816.779" r="9" data-turn="3" fill="currentColor" opacity="0"/><circle cx="641.205" cy="842.81" r="9" data-turn="4" fill="currentColor" opacity="0"/><circle cx="589.641" cy="845.797" r="9" data-turn="5" fill="currentColor" opacity="0"/><circle cx="521.285" cy="800.44" r="9" data-turn="6" fill="currentColor" opacity="0"/><circle cx="420.929" cy="818.651" r="9" data-turn="7" fill="currentColor" opacity="0"/><circle cx="376.768" cy="860.1" r="9" data-turn="8" fill="currentColor" opacity="0"/><circle cx="327.283" cy="822.977" r="9" data-turn="9" fill="currentColor" opacity="0"/><circle cx="300.874" cy="814.051" r="9" data-turn="10" fill="currentColor" opacity="0"/><circle cx="275.337" cy="796.452" r="9" data-turn="11" fill="currentColor" opacity="0"/><circle cx="244.602" cy="814.082" r="9" data-turn="12" fill="currentColor" opacity="0"/><circle cx="187.179" cy="775.715" r="9" data-turn="13" fill="currentColor" opacity="0"/><circle cx="165.532" cy="803.858" r="9" data-turn="14" fill="currentColor" opacity="0"/><circle cx="126.983" cy="808.115" r="9" data-turn="15" fill="currentColor" opacity="0"/><circle cx="89.131" cy="772.608" r="9" data-turn="16" fill="currentColor" opacity="0"/><circle cx="60.27" cy="730.591" r="9" data-turn="17" fill="currentColor" opacity="0"/><circle cx="84.892" cy="669.235" r="9" data-turn="18" fill="currentColor" opacity="0"/><circle cx="109.681" cy="650.047" r="9" data-turn="19" fill="currentColor" opacity="0"/><circle cx="123.789" cy="600.863" r="9" data-turn="20" fill="currentColor" opacity="0"/><circle cx="451.939" cy="139.768" r="9" data-turn="21" fill="currentColor" opacity="0"/><circle cx="789.502" cy="519.004" r="9" data-turn="22" fill="currentColor" opacity="0"/><circle cx="901.613" cy="639.984" r="9" data-turn="23" fill="currentColor" opacity="0"/><circle cx="894.072" cy="660.443" r="9" data-turn="24" fill="currentColor" opacity="0"/><circle cx="939.362" cy="714.797" r="9" data-turn="25" fill="currentColor" opacity="0"/><circle cx="820.21" cy="794.46" r="9" data-turn="26" fill="currentColor" opacity="0"/></g></svg>