<svg xmlns="http://www.w3.org/2000/svg" viewBox="0 0 1000 1000" fill="none" role="img" aria-label="Phoenix street circuit track layout"><path d="M97.909 504.097l0 0c17.644 0 449.942 -2.731 456.561 -2.734c3.763 0 14.949 -0.26 31.368 1.56c8.343 0.923 9.314 3.881 9.314 11.954c0 17.153 0.365 74.72 1.225 128.259c0.11 7.019 2.892 9.484 8.819 9.484c7.845 0 110.531 -0.779 127.682 -0.779c5.658 0 7.718 -0.781 7.718 -8.578c0 -4.098 0.124 -35.086 -0.124 -57.436c-0.06 -5.171 1.594 -7.602 6.617 -7.536c19.85 0.258 178.164 0.521 188.457 0.258c4.909 -0.124 6.165 -3.212 1.712 -8.836c-5.148 -6.497 -16.664 -18.711 -25.242 -28.587c-5.06 -5.83 -5.881 -8.836 -13.477 -3.639c-12.007 8.216 -18.828 11.621 -28.952 14.749c-9.462 2.923 -20.491 4.09 -26.371 4.09c-5.338 0 -60.38 -0.483 -75.175 -0.581c-16.998 -0.11 -25.544 1.026 -31.735 -8.641c-4.545 -7.094 -50.239 -87.064 -62.491 -107.856c-6.519 -11.061 -12.874 -15.073 -28.182 -15.073l-330.472 0c-7.731 0 -9.926 -4.278 -9.926 -10.136c0 -16.762 -0.369 -43.27 -0.369 -57.305c0 -6.252 -1.453 -8.967 -6.248 -8.967c-39.333 0 -91.529 -0.388 -124.247 -0.388c-8.461 0 -8.454 2.255 -8.454 10.525l0 54.187c0 10.919 -0.324 12.087 -6.617 12.087l-63.227 0c-19.116 0 -37.125 14.814 -36.024 40.934c1.101 26.12 21.684 38.983 37.861 38.983" fill="none" stroke="currentColor" stroke-width="14" stroke-linecap="round" stroke-linejoin="round"/><path id="sf" d="M 83.509 514.897 L 112.309 493.297" fill="none" stroke="currentColor" stroke-width="6" opacity=".55"/><g id="turns"><circle cx="592.606" cy="505.124" r="9" data-turn="1" fill="currentColor" opacity="0"/><circle cx="599.533" cy="651.27" r="9" data-turn="2" fill="currentColor" opacity="0"/><circle cx="738.782" cy="650.529" r="9" data-turn="3" fill="currentColor" opacity="0"/><circle cx="742.407" cy="579.58" r="9" data-turn="4" fill="currentColor" opacity="0"/><circle cx="939.985" cy="575.273" r="9" data-turn="5" fill="currentColor" opacity="0"/><circle cx="906.964" cy="535.613" r="9" data-turn="6" fill="currentColor" opacity="0"/><circle cx="740.827" cy="552.063" r="9" data-turn="7" fill="currentColor" opacity="0"/><circle cx="662.794" cy="427.442" r="9" data-turn="8" fill="currentColor" opacity="0"/><circle cx="308.248" cy="422.232" r="9" data-turn="9" fill="currentColor" opacity="0"/><circle cx="301.656" cy="348.328" r="9" data-turn="10" fill="currentColor" opacity="0"/><circle cx="166.775" cy="349.901" r="9" data-turn="11" fill="currentColor" opacity="0"/><circle cx="165.228" cy="421.614" r="9" data-turn="12" fill="currentColor" opacity="0"/><circle cx="72.558" cy="432.882" r="9" data-turn="13" fill="currentColor" opacity="0"/></g></svg>