<svg xmlns="http://www.w3.org/2000/svg" viewBox="0 0 1000 1000" fill="none" role="img" aria-label="Autódromo Internacional do Algarve track layout"><path d="M325.173 429.4L257.517 197.225 242.303 141.929 241.764 134.996 245.332 128.57 252.401 121.468 261.354 115.803 304.102 83.928 334.059 62.959 344.224 60 352.167 60.507 448.568 84.012 453.819 88.832 455.973 94.158 456.579 99.147 454.964 105.234 449.241 111.068 394.309 143.451 385.962 150.384 379.028 160.446 376.806 166.533 374.113 176.679 375.191 192.913 480.477 561.045 485.93 577.533 492.797 583.367 500.269 583.536 507.54 579.477 511.848 572.46 512.993 558.255 524.437 450.2 525.985 428.64 523.158 403.697 518.041 386.364 511.108 370.723 457.724 269.262 454.964 258.017 456.243 245.757 460.08 235.019 469.37 222.168 510.367 173.467 516.426 171.015 523.292 169.915 533.66 171.945 542.007 177.694 546.114 184.796 578.427 407.417 580.446 417.394 585.63 429.823 590.611 439.631 602.056 452.145 618.347 463.474 727.202 519.447 736.357 528.155 746.926 543.29 756.755 568.824 758.236 579.308 756.485 587.763 752.85 593.513 746.051 599.685 629.522 635.281 621.982 639.339 611.211 648.217 599.699 660.899 591.285 676.541 587.245 694.55 573.243 787.809 574.387 796.518 579.033 803.028 586.64 810.469 597.882 811.906 607.037 810.046 611.144 806.833 683.579 719.154 694.013 713.828 705.121 711.46 719.258 714.842 730.837 725.158 739.184 736.741 742.55 745.027 745.984 762.022 745.647 771.745 743.493 782.99 738.242 794.235 723.701 814.358 650.525 902.46 634.705 915.819 620.636 925.204 609.393 930.615 591.89 936.787 575.397 939.915 554.596 940 538.305 937.463 521.879 933.067 505.655 925.457 489.431 916.072 476.102 903.221 464.994 890.369 453.146 872.952 327.327 436.925 325.173 429.4" fill="none" stroke="currentColor" stroke-width="14" stroke-linecap="round" stroke-linejoin="round"/><path id="sf" d="M 307.891 434.434 L 342.455 424.367" fill="none" stroke="currentColor" stroke-width="6" opacity=".55"/><g id="turns"><circle cx="242.696" cy="133.317" r="9" data-turn="1" fill="currentColor" opacity="0"/><circle cx="343.247" cy="60.284" r="9" data-turn="2" fill="currentColor" opacity="0"/><circle cx="456.049" cy="94.78" r="9" data-turn="3" fill="currentColor" opacity="0"/><circle cx="377.456" cy="164.754" r="9" data-turn="4" fill="currentColor" opacity="0"/><circle cx="499.837" cy="583.526" r="9" data-turn="5" fill="currentColor" opacity="0"/><circle cx="523.188" cy="403.962" r="9" data-turn="6" fill="currentColor" opacity="0"/><circle cx="455.551" cy="252.383" r="9" data-turn="7" fill="currentColor" opacity="0"/><circle cx="529.991" cy="171.227" r="9" data-turn="8" fill="currentColor" opacity="0"/><circle cx="590.501" cy="439.414" r="9" data-turn="9" fill="currentColor" opacity="0"/><circle cx="756.755" cy="586.462" r="9" data-turn="10" fill="currentColor" opacity="0"/><circle cx="607.407" cy="652.408" r="9" data-turn="11" fill="currentColor" opacity="0"/><circle cx="588.356" cy="810.688" r="9" data-turn="12" fill="currentColor" opacity="0"/><circle cx="707.625" cy="712.06" r="9" data-turn="13" fill="currentColor" opacity="0"/><circle cx="578.486" cy="939.33" r="9" data-turn="14" fill="currentColor" opacity="0"/></g></svg>