<svg xmlns="http://www.w3.org/2000/svg" viewBox="0 0 1000 1000" fill="none" role="img" aria-label="Red Bull Ring track layout"><path d="M 646.525 719.854 L 585.909 735.954 L 435.748 776.829 L 425.397 777.611 L 418.497 771.359 L 406.873 748.850 L 370.089 699.142 L 330.173 642.401 L 298.803 592.303 L 270.194 542.908 L 223.378 440.836 L 210.480 413.637 L 190.681 381.593 L 160.214 344.313 L 109.629 293.511 L 62.813 246.696 L 60.000 240.443 L 60.318 233.800 L 65.679 230.517 L 77.941 228.329 L 116.264 223.874 L 154.587 222.389 L 194.184 222.780 L 231.870 226.453 L 275.555 233.487 L 409.049 259.279 L 469.984 267.329 L 601.620 272.878 L 612.342 276.551 L 618.924 283.898 L 621.419 292.026 L 620.782 300.545 L 617.332 308.595 L 604.168 327.431 L 593.764 339.936 L 574.603 356.896 L 553.583 368.307 L 528.105 376.748 L 500.451 381.202 L 471.576 379.327 L 359.420 361.273 L 344.345 363.148 L 332.084 367.525 L 321.415 374.950 L 311.967 384.876 L 306.022 396.677 L 302.837 409.573 L 302.253 421.375 L 304.111 434.271 L 307.561 443.806 L 361.914 538.844 L 371.044 548.848 L 385.482 557.992 L 402.149 561.743 L 418.178 560.258 L 435.111 553.224 L 445.514 544.784 L 456.183 531.497 L 466.215 518.601 L 476.937 507.581 L 489.782 498.749 L 504.857 489.840 L 525.929 482.102 L 547.904 477.335 L 721.951 473.661 L 855.816 470.379 L 869.935 470.691 L 883.736 475.537 L 895.095 483.978 L 904.172 495.389 L 911.072 510.473 L 938.408 602.619 L 940.000 611.060 L 938.408 617.313 L 935.276 622.158 L 924.607 630.599 L 910.488 639.040 L 892.229 648.262 L 871.528 657.094 L 847.005 665.222 L 646.525 719.854 Z" fill="none" stroke="currentColor" stroke-width="14" stroke-linecap="round" stroke-linejoin="round"/><path id="sf" d="M 651.146 737.250 L 641.904 702.457" fill="none" stroke="currentColor" stroke-width="6" opacity=".55"/><g id="turns"><circle cx="425.567" cy="777.598" r="9" data-turn="1" fill="currentColor" opacity="0"/><circle cx="195.250" cy="388.989" r="9" data-turn="2" fill="currentColor" opacity="0"/><circle cx="60.281" cy="234.588" r="9" data-turn="3" fill="currentColor" opacity="0"/><circle cx="619.239" cy="284.923" r="9" data-turn="4" fill="currentColor" opacity="0"/><circle cx="316.882" cy="379.712" r="9" data-turn="5" fill="currentColor" opacity="0"/><circle cx="397.962" cy="560.801" r="9" data-turn="6" fill="currentColor" opacity="0"/><circle cx="486.531" cy="500.985" r="9" data-turn="7" fill="currentColor" opacity="0"/><circle cx="887.548" cy="478.370" r="9" data-turn="8" fill="currentColor" opacity="0"/><circle cx="938.539" cy="616.798" r="9" data-turn="9" fill="currentColor" opacity="0"/></g></svg>