<svg xmlns="http://www.w3.org/2000/svg" viewBox="0 0 1000 1000" fill="none" role="img" aria-label="Reims-Gueux track layout"><path d="M926.479 518.328c2.771 1.142 13.076 5.743 13.495 12.574c0.537 8.755 -7.625 13.216 -10.891 14.796c-80.261 38.779 -399.556 188.951 -498.875 235.675c-7.072 3.325 -18.808 9.671 -57.57 4.746c-31.575 -4.012 -62.536 -8.948 -103.934 -46.986c-9.173 -8.42 -30.34 -27.661 -35.677 -32.663c-17.179 -16.109 -57.695 -53.257 -90.729 -85.92c-3.366 -3.328 -36.542 -31.326 -42.723 -53.695c-7.046 -25.508 -6.054 -32.195 0.884 -59.069c16.736 -64.888 27.747 -105.164 35.231 -137.827c7.454 -32.513 3.01 -53.551 -14.97 -75.624c-21.141 -25.957 -39.198 -49.226 -58.577 -74.732c-4.586 -6.03 -1.616 -9.119 7.046 -6.709c83.681 23.269 151.505 40.718 215.367 56.381c38.636 9.476 57.92 14.096 66.503 16.781c10.249 3.203 42.719 14.092 49.769 16.331c7.044 2.239 27.743 9.847 45.802 17.9c17.078 7.617 393.528 162.49 479.848 198.04z" fill="none" stroke="currentColor" stroke-width="14" stroke-linecap="round" stroke-linejoin="round"/><path id="sf" d="M 933.339 501.686 L 919.62 534.97" fill="none" stroke="currentColor" stroke-width="6" opacity=".55"/><g id="turns"><circle cx="939.99" cy="531.585" r="9" data-turn="1" fill="currentColor" opacity="0"/><circle cx="414.241" cy="786.682" r="9" data-turn="2" fill="currentColor" opacity="0"/><circle cx="101.299" cy="571.736" r="9" data-turn="3" fill="currentColor" opacity="0"/><circle cx="136.274" cy="322.333" r="9" data-turn="4" fill="currentColor" opacity="0"/><circle cx="61.954" cy="212.385" r="9" data-turn="5" fill="currentColor" opacity="0"/></g></svg>