<svg xmlns="http://www.w3.org/2000/svg" viewBox="0 0 1000 1000" fill="none" role="img" aria-label="Circuit Paul Ricard track layout"><path d="M 521.515 538.756 L 623.787 616.740 L 675.938 657.055 L 679.208 658.189 L 682.272 657.953 L 684.716 656.630 L 686.127 654.597 L 686.747 651.951 L 687.573 624.538 L 688.365 618.772 L 689.604 615.653 L 691.842 612.297 L 695.318 608.043 L 700.207 603.837 L 705.886 600.717 L 712.014 598.921 L 718.313 598.496 L 725.473 598.921 L 731.979 601.143 L 737.074 604.262 L 741.343 608.280 L 749.501 617.212 L 757.453 624.538 L 766.609 631.438 L 776.386 637.015 L 785.955 641.269 L 796.145 644.152 L 806.127 646.374 L 817.556 647.272 L 829.570 647.272 L 839.139 645.948 L 848.537 643.680 L 857.900 640.560 L 867.263 636.779 L 875.215 632.336 L 880.310 629.217 L 884.785 626.996 L 889.053 625.672 L 893.356 625.436 L 897.831 626.334 L 902.100 628.792 L 905.783 632.100 L 908.227 635.456 L 909.639 638.811 L 910.878 642.829 L 911.670 648.359 L 911.670 655.306 L 910.465 660.411 L 908.640 665.326 L 905.990 670.430 L 903.546 674.022 L 883.959 699.639 L 877.453 708.761 L 871.153 718.780 L 864.819 730.596 L 861.962 737.497 L 860.757 741.703 L 860.138 745.720 L 860.757 749.738 L 862.169 753.330 L 864.200 756.874 L 867.676 761.128 L 872.151 764.909 L 878.279 769.116 L 884.578 772.235 L 890.912 774.031 L 896.592 774.693 L 902.306 774.456 L 908.227 773.133 L 913.735 771.148 L 919.208 768.690 L 923.305 765.996 L 926.954 763.113 L 930.017 759.568 L 933.287 755.551 L 935.938 750.399 L 937.969 746.193 L 939.174 741.514 L 939.793 736.835 L 940.000 732.581 L 939.587 639.237 L 939.587 632.762 L 939.174 627.894 L 938.382 623.404 L 936.351 617.212 L 934.079 610.737 L 931.463 605.822 L 927.986 600.717 L 923.511 595.566 L 918.417 590.225 L 912.909 585.782 L 908.021 582.427 L 903.339 579.969 L 898.830 577.984 L 862.169 563.711 L 818.554 547.216 L 776.592 531.619 L 726.678 513.139 L 682.272 496.219 L 676.764 493.761 L 671.670 490.878 L 634.389 465.262 L 627.642 460.583 L 624.406 456.991 L 613.804 440.732 L 610.947 438.085 L 606.885 435.628 L 602.788 434.966 L 599.759 434.966 L 596.489 436.526 L 593.838 438.511 L 579.587 451.886 L 576.523 454.108 L 573.046 454.769 L 569.398 454.108 L 528.847 438.983 L 400.688 391.059 L 348.916 371.445 L 194.286 313.737 L 158.210 300.172 L 154.561 298.376 L 151.497 295.918 L 149.880 293.697 L 148.021 291.050 L 145.990 287.695 L 144.578 284.339 L 136.420 264.961 L 134.182 261.180 L 131.945 256.926 L 128.468 252.484 L 125.232 247.568 L 121.962 244.024 L 115.628 238.210 L 109.535 233.342 L 104.028 229.986 L 97.694 227.292 L 92.014 225.733 L 88.330 225.307 L 84.269 225.969 L 80.172 227.292 L 76.936 229.325 L 73.666 232.208 L 71.842 234.429 L 70.602 237.360 L 61.033 265.623 L 60.000 269.404 L 60.000 271.200 L 60.826 273.657 L 62.651 275.453 L 65.508 276.304 L 71.015 276.115 L 90.155 272.996 L 95.663 272.996 L 101.170 273.657 L 105.852 275.643 L 109.122 278.337 L 111.979 281.456 L 113.597 284.339 L 115.215 288.120 L 115.835 291.239 L 116.041 293.933 L 115.628 297.478 L 113.804 308.396 L 113.804 311.090 L 114.423 313.973 L 115.628 316.667 L 118.072 318.888 L 121.756 322.008 L 143.752 335.147 L 161.687 345.166 L 177.969 352.067 L 192.255 358.069 L 199.587 361.898 L 207.539 366.104 L 216.076 371.917 L 227.298 379.479 L 242.169 391.484 L 253.976 400.181 L 261.308 407.554 L 271.291 417.999 L 275.594 421.118 L 281.480 424.474 L 303.511 436.715 L 310.224 439.409 L 315.525 439.834 L 320.413 439.173 L 325.301 437.424 L 329.776 434.493 L 332.840 431.374 L 336.110 426.931 L 338.933 423.387 L 342.616 420.456 L 346.265 419.133 L 350.361 418.471 L 355.663 418.471 L 361.170 418.897 L 366.059 420.456 L 369.088 422.489 L 391.119 439.409 L 420.241 461.906 L 453.253 486.199 L 485.026 510.918 L 521.515 538.756 Z" fill="none" stroke="currentColor" stroke-width="14" stroke-linecap="round" stroke-linejoin="round"/><path id="sf" d="M 532.429 524.442 L 510.600 553.069" fill="none" stroke="currentColor" stroke-width="6" opacity=".55"/><g id="turns"><circle cx="682.946" cy="657.588" r="9" data-turn="1" fill="currentColor" opacity="0"/><circle cx="695.179" cy="608.214" r="9" data-turn="2" fill="currentColor" opacity="0"/><circle cx="778.662" cy="638.027" r="9" data-turn="3" fill="currentColor" opacity="0"/><circle cx="899.980" cy="627.571" r="9" data-turn="4" fill="currentColor" opacity="0"/><circle cx="861.184" cy="750.823" r="9" data-turn="5" fill="currentColor" opacity="0"/><circle cx="933.632" cy="609.898" r="9" data-turn="6" fill="currentColor" opacity="0"/><circle cx="675.825" cy="493.230" r="9" data-turn="7" fill="currentColor" opacity="0"/><circle cx="628.346" cy="461.071" r="9" data-turn="8" fill="currentColor" opacity="0"/><circle cx="604.542" cy="435.249" r="9" data-turn="9" fill="currentColor" opacity="0"/><circle cx="573.407" cy="454.701" r="9" data-turn="10" fill="currentColor" opacity="0"/><circle cx="152.065" cy="296.374" r="9" data-turn="11" fill="currentColor" opacity="0"/><circle cx="80.403" cy="227.218" r="9" data-turn="12" fill="currentColor" opacity="0"/><circle cx="61.172" cy="273.998" r="9" data-turn="13" fill="currentColor" opacity="0"/><circle cx="109.563" cy="278.818" r="9" data-turn="14" fill="currentColor" opacity="0"/><circle cx="115.818" cy="316.839" r="9" data-turn="15" fill="currentColor" opacity="0"/><circle cx="203.443" cy="363.937" r="9" data-turn="16" fill="currentColor" opacity="0"/><circle cx="318.753" cy="439.397" r="9" data-turn="17" fill="currentColor" opacity="0"/><circle cx="351.354" cy="418.471" r="9" data-turn="18" fill="currentColor" opacity="0"/></g></svg>