<svg xmlns="http://www.w3.org/2000/svg" viewBox="0 0 1000 1000" fill="none" role="img" aria-label="Riverside International Raceway track layout"><path d="M188.634 709.732l635.658 -637.374c24.164 -18.581 60.409 -15.795 82.711 5.575c19.444 17.515 31.598 56.676 10.222 77.117l-270.431 257.366c-8.365 6.503 -17.658 22.298 -17.658 36.234l-13.939 216.485c0 13.009 -3.719 41.812 -15.799 53.89l-55.759 57.605c-10.224 12.078 -44.608 34.376 -64.124 37.164c-15.639 2.234 -44.608 19.51 -51.114 26.015c-11.305 11.303 -38.103 19.51 -52.971 20.441c-10.244 0.64 -33.455 13.007 -42.749 23.227l-37.174 44.598c-13.939 19.51 -49.254 12.078 -65.053 -0.929c-13.78 -11.348 -35.313 -47.387 -11.151 -69.685l227.686 -214.625c14.868 -12.078 12.082 -29.732 0 -41.81c-9.405 -11.287 -27.881 -12.078 -42.749 0l-218.392 203.476c-30.669 19.512 -65.984 13.007 -85.5 -5.577c-16.178 -15.404 -27.879 -29.73 -28.807 -48.311c-0.558 -11.137 2.786 -39.953 32.527 -34.378l55.759 5.575c20.445 -0.929 23.233 -6.503 28.807 -12.078" fill="none" stroke="currentColor" stroke-width="14" stroke-linecap="round" stroke-linejoin="round"/><path id="sf" d="M 175.889 697.021 L 201.379 722.443" fill="none" stroke="currentColor" stroke-width="6" opacity=".55"/><g id="turns"><circle cx="926.058" cy="141.358" r="9" data-turn="1" fill="currentColor" opacity="0"/><circle cx="633.688" cy="430.081" r="9" data-turn="2" fill="currentColor" opacity="0"/><circle cx="604.962" cy="711.376" r="9" data-turn="3" fill="currentColor" opacity="0"/><circle cx="413.999" cy="849.417" r="9" data-turn="4" fill="currentColor" opacity="0"/><circle cx="360.488" cy="864.895" r="9" data-turn="5" fill="currentColor" opacity="0"/><circle cx="282.63" cy="937.654" r="9" data-turn="6" fill="currentColor" opacity="0"/><circle cx="209.621" cy="873.044" r="9" data-turn="7" fill="currentColor" opacity="0"/><circle cx="456.983" cy="625.59" r="9" data-turn="8" fill="currentColor" opacity="0"/><circle cx="176.514" cy="809.59" r="9" data-turn="9" fill="currentColor" opacity="0"/><circle cx="81.766" cy="720.628" r="9" data-turn="10" fill="currentColor" opacity="0"/><circle cx="175.995" cy="719.213" r="9" data-turn="11" fill="currentColor" opacity="0"/></g></svg>