<svg xmlns="http://www.w3.org/2000/svg" viewBox="0 0 1000 1000" fill="none" role="img" aria-label="Autódromo Hermanos Rodríguez track layout"><path d="M 220.710 194.837 L 439.062 225.157 L 509.884 234.450 L 584.481 241.165 L 620.436 245.641 L 713.202 258.732 L 874.872 282.744 L 908.204 289.459 L 913.897 291.697 L 916.904 294.275 L 918.440 298.412 L 918.824 302.211 L 912.746 342.230 L 913.514 345.757 L 915.433 348.945 L 932.451 358.170 L 937.377 360.747 L 940.000 364.885 L 940.000 368.751 L 936.609 393.712 L 931.299 416.096 L 922.982 437.801 L 913.514 457.336 L 839.301 583.294 L 750.309 723.022 L 744.615 732.586 L 743.847 738.351 L 744.999 743.167 L 747.686 746.694 L 774.172 762.973 L 776.795 765.550 L 777.179 769.688 L 775.324 773.215 L 770.782 777.353 L 721.136 814.794 L 716.209 817.033 L 712.051 817.643 L 708.276 816.354 L 699.192 810.589 L 697.656 806.790 L 697.656 799.126 L 720.368 621.956 L 720.048 616.530 L 717.745 611.443 L 714.354 607.238 L 709.044 603.439 L 682.558 587.092 L 673.089 578.478 L 667.395 572.713 L 661.701 561.860 L 655.623 545.852 L 649.610 536.288 L 642.764 529.573 L 635.215 524.758 L 624.979 520.281 L 543.152 507.800 L 534.068 504.952 L 528.438 500.136 L 525.751 496.948 L 523.511 492.471 L 512.891 459.574 L 509.501 453.130 L 504.190 447.093 L 490.947 439.090 L 430.361 406.464 L 412.896 399.138 L 387.561 393.034 L 184.563 363.596 L 180.404 362.036 L 178.165 359.458 L 176.246 355.321 L 175.862 349.894 L 172.471 297.734 L 168.313 261.649 L 166.777 257.511 L 163.770 254.595 L 159.612 252.696 L 154.302 253.306 L 148.608 258.461 L 141.378 269.314 L 137.220 272.502 L 132.294 274.401 L 126.664 274.130 L 120.202 271.213 L 112.653 267.686 L 105.423 265.447 L 71.004 261.649 L 65.310 259.750 L 62.623 257.511 L 60.384 253.306 L 60.000 249.168 L 62.239 239.265 L 67.165 226.174 L 73.627 215.254 L 83.096 202.163 L 94.100 193.210 L 108.111 186.155 L 120.970 182.696 L 133.445 182.357 L 151.615 184.595 L 220.710 194.837 Z" fill="none" stroke="currentColor" stroke-width="14" stroke-linecap="round" stroke-linejoin="round"/><path id="sf" d="M 223.185 177.009 L 218.234 212.666" fill="none" stroke="currentColor" stroke-width="6" opacity=".55"/><g id="turns"><circle cx="917.160" cy="294.964" r="9" data-turn="1" fill="currentColor" opacity="0"/><circle cx="912.927" cy="343.064" r="9" data-turn="2" fill="currentColor" opacity="0"/><circle cx="940.000" cy="368.264" r="9" data-turn="3" fill="currentColor" opacity="0"/><circle cx="744.255" cy="740.057" r="9" data-turn="4" fill="currentColor" opacity="0"/><circle cx="777.107" cy="768.914" r="9" data-turn="5" fill="currentColor" opacity="0"/><circle cx="704.172" cy="813.750" r="9" data-turn="6" fill="currentColor" opacity="0"/><circle cx="718.914" cy="614.025" r="9" data-turn="7" fill="currentColor" opacity="0"/><circle cx="671.442" cy="576.810" r="9" data-turn="8" fill="currentColor" opacity="0"/><circle cx="641.112" cy="528.520" r="9" data-turn="9" fill="currentColor" opacity="0"/><circle cx="529.884" cy="501.373" r="9" data-turn="10" fill="currentColor" opacity="0"/><circle cx="508.178" cy="451.627" r="9" data-turn="11" fill="currentColor" opacity="0"/><circle cx="415.157" cy="400.087" r="9" data-turn="12" fill="currentColor" opacity="0"/><circle cx="178.429" cy="359.762" r="9" data-turn="13" fill="currentColor" opacity="0"/><circle cx="161.712" cy="253.655" r="9" data-turn="14" fill="currentColor" opacity="0"/><circle cx="131.517" cy="274.363" r="9" data-turn="15" fill="currentColor" opacity="0"/><circle cx="60.594" cy="253.701" r="9" data-turn="16" fill="currentColor" opacity="0"/></g></svg>