<svg xmlns="http://www.w3.org/2000/svg" viewBox="0 0 1000 1000" fill="none" role="img" aria-label="Rouen-Les-Essarts track layout"><path d="M250.722 931.221c2.311 -12.13 6.822 -30.718 9.537 -38.124c3.18 -8.665 14.048 -23.879 27.748 -32.064c26.587 -15.884 52.312 -30.909 96.533 -59.791c7.539 -4.92 13.11 -11.267 12.717 -24.259c-0.578 -19.064 0.867 -57.771 1.452 -70.187c0.629 -13.578 4.041 -31.779 9.534 -54.013c2.686 -10.892 -1.449 -16.75 -9.251 -17.331c-7.804 -0.58 -16.185 -1.445 -30.057 -2.311c-8.083 -0.505 -15.319 -0.867 -25.148 -9.246c-13.859 -11.813 -37.572 -45.344 -45.376 -60.942c-3.767 -7.531 -4.219 -13.866 -4.335 -19.352c-0.868 -41.305 -3.449 -188.902 -3.758 -246.38c-0.29 -54.013 42.196 -123.624 85.843 -139.51c30.634 -11.153 211.606 -75.005 278.902 -94.594c44.657 -12.996 67.198 16.9 74.136 48.094c15.126 68.016 21.879 113.986 19.942 129.112c-3.032 23.683 -5.343 35.238 -10.402 56.323c-1.447 6.032 -5.349 22.056 -8.815 31.195c-18.497 48.81 -60.124 147.013 -72.546 174.168c-9.247 20.22 -21.547 49.581 -26.299 60.365c-7.965 18.083 -22.066 29.859 -33.815 36.396c-30.637 17.044 -61.275 34.661 -104.914 58.636c-14.643 8.04 -37.575 31.193 -41.043 58.922c-3.468 27.729 -8.72 57.977 -10.114 65.276c-4.915 25.708 -21.68 41.592 -47.111 54.59c-29.002 14.823 -56.072 28.597 -82.661 41.592c-15.45 7.554 -31.214 19.644 -38.732 35.242c-5.472 11.357 -7.612 16.138 -9.247 21.373c-2.893 9.24 -14.518 6.251 -12.719 -3.18z" fill="none" stroke="currentColor" stroke-width="14" stroke-linecap="round" stroke-linejoin="round"/><path id="sf" d="M 233.04 927.851 L 268.404 934.59" fill="none" stroke="currentColor" stroke-width="6" opacity=".55"/><g id="turns"><circle cx="266.296" cy="882.059" r="9" data-turn="1" fill="currentColor" opacity="0"/><circle cx="395.091" cy="789.79" r="9" data-turn="2" fill="currentColor" opacity="0"/><circle cx="407.161" cy="639.64" r="9" data-turn="3" fill="currentColor" opacity="0"/><circle cx="353.075" cy="629.989" r="9" data-turn="4" fill="currentColor" opacity="0"/><circle cx="295.437" cy="555.044" r="9" data-turn="5" fill="currentColor" opacity="0"/><circle cx="363.279" cy="163.94" r="9" data-turn="6" fill="currentColor" opacity="0"/><circle cx="696.787" cy="64.619" r="9" data-turn="7" fill="currentColor" opacity="0"/><circle cx="749.465" cy="234.415" r="9" data-turn="8" fill="currentColor" opacity="0"/><circle cx="619.755" cy="580.373" r="9" data-turn="9" fill="currentColor" opacity="0"/><circle cx="456.746" cy="697.387" r="9" data-turn="10" fill="currentColor" opacity="0"/><circle cx="433.694" cy="802.205" r="9" data-turn="11" fill="currentColor" opacity="0"/><circle cx="280.952" cy="900.544" r="9" data-turn="12" fill="currentColor" opacity="0"/><circle cx="256.502" cy="939.979" r="9" data-turn="13" fill="currentColor" opacity="0"/></g></svg>