<svg xmlns="http://www.w3.org/2000/svg" viewBox="0 0 1000 1000" fill="none" role="img" aria-label="Sebring International Raceway track layout"><path d="M894.104 60l0 0.002c24.601 0 43.774 19.166 43.774 42.729l0 807.177c0 16.59 -13.517 30.092 -30.121 30.092l-732.925 0c-23.318 0 -42.299 -18.96 -42.299 -42.269l0 -51.863c0 -18.068 14.716 -32.768 32.792 -32.768l361.862 0c43.908 0 85.887 -16.38 118.181 -46.116l150.318 -138.44a53.093 53.093 0 0 0 17.058 -38.134l2.132 -148.399a15.885 15.885 0 0 0 -4.603 -11.48c-3.047 -3.085 -7.11 -4.782 -11.437 -4.782l-229.162 0a1.927 1.927 0 0 0 -1.943 1.902l-0.061 2.81c-0.35 16.327 -13.928 29.622 -30.288 29.622l-2.694 0c-10.462 0 -19.361 7.812 -20.72 18.176l-1.114 8.916c-8.486 68.395 -24.294 195.698 -202.787 195.698l-227.816 0a20.06 20.06 0 0 1 -18.565 -12.362a20.019 20.019 0 0 1 4.265 -21.875l437.149 -441.006c8.053 -8.083 21.801 -9.028 30.85 -2.106l8.582 6.572c10.505 8.069 26.247 6.908 35.477 -2.538l115.075 -117.835c17.388 -17.801 40.654 -27.931 65.53 -28.524l133.461 -3.201z" fill="none" stroke="currentColor" stroke-width="14" stroke-linecap="round" stroke-linejoin="round"/><path id="sf" d="M 912.104 60 L 876.104 60" fill="none" stroke="currentColor" stroke-width="6" opacity=".55"/><g id="turns"><circle cx="928.924" cy="76.705" r="9" data-turn="1" fill="currentColor" opacity="0"/><circle cx="928.368" cy="931.805" r="9" data-turn="2" fill="currentColor" opacity="0"/><circle cx="145.707" cy="928.342" r="9" data-turn="3" fill="currentColor" opacity="0"/><circle cx="142.238" cy="822.636" r="9" data-turn="4" fill="currentColor" opacity="0"/><circle cx="808.373" cy="610.635" r="9" data-turn="5" fill="currentColor" opacity="0"/><circle cx="808.755" cy="429.208" r="9" data-turn="6" fill="currentColor" opacity="0"/><circle cx="569.606" cy="425.784" r="9" data-turn="7" fill="currentColor" opacity="0"/><circle cx="556.337" cy="453.33" r="9" data-turn="8" fill="currentColor" opacity="0"/><circle cx="519.674" cy="466.502" r="9" data-turn="9" fill="currentColor" opacity="0"/><circle cx="63.869" cy="670.873" r="9" data-turn="10" fill="currentColor" opacity="0"/><circle cx="518.185" cy="201.187" r="9" data-turn="11" fill="currentColor" opacity="0"/><circle cx="561.754" cy="217.435" r="9" data-turn="12" fill="currentColor" opacity="0"/><circle cx="723.418" cy="71.735" r="9" data-turn="13" fill="currentColor" opacity="0"/></g></svg>