<svg xmlns="http://www.w3.org/2000/svg" viewBox="0 0 1000 1000" fill="none" role="img" aria-label="Sepang International Circuit track layout"><path d="M317.649 529.429L90.322 548.149 79.877 547.306 70.444 542.584 63.959 535.754 60.421 526.478 60 516.022 63.79 505.059 72.634 496.796 84.594 493.001 98.576 495.784 124.518 505.059 133.193 503.626 140.521 496.374 142.879 487.52 140.521 475.883 132.772 464.078 115.084 442.406 107.588 429.167 102.703 413.483 100.345 397.714 100.345 379.838 104.64 335.82 111.547 315.161 122.412 294.08 133.361 280.503 150.207 265.241 167.894 253.604 186.424 246.773 290.528 212.791 368.438 182.097 420.574 159.498 454.181 144.235 465.804 139.513 474.479 139.85 481.975 144.572 484.671 154.017 499.158 234.884 508.002 276.54 520.467 327.05 529.564 346.529 539.755 360.443 557.274 374.441 574.625 383.716 591.891 388.017 608.821 388.776 628.109 385.825 647.818 378.151 661.799 368.116 689.089 338.856 702.481 330.761 723.538 323.509 741.478 322.919 759.165 325.28 773.484 331.182 786.286 341.386 939.158 515.769 940 524.285 936.462 533.983 910.436 592.42 902.603 597.901 893.338 600.093 753.775 608.188 622.718 623.535 550.873 635.341 544.051 640.906 541.861 650.098 547.925 660.385 599.135 688.718 610.337 700.018 618.17 716.714 622.129 734.085 621.539 758.876 618.17 779.704 613.538 800.027 601.325 825.999 583.047 852.561 573.025 858.885 563.423 860.487 552.557 858.464 543.882 852.814 383.767 720.846 372.565 716.714 358.162 715.871 342.412 719.834 284.043 749.769 268.461 754.66 249.931 757.19 233.675 757.021 203.354 751.54 182.718 743.023 169.326 732.398 151.386 708.788 145.069 691.079 144.142 680.286 151.639 668.143 167.726 661.481 802.711 544.692 811.807 536.681 818.461 521.334 815.092 508.517 803.553 496.543 784.602 493.591 317.649 529.429" fill="none" stroke="currentColor" stroke-width="14" stroke-linecap="round" stroke-linejoin="round"/><path id="sf" d="M 319.059 547.374 L 316.239 511.485" fill="none" stroke="currentColor" stroke-width="6" opacity=".55"/><g id="turns"><circle cx="60.527" cy="514.497" r="9" data-turn="1" fill="currentColor" opacity="0"/><circle cx="139.976" cy="496.913" r="9" data-turn="2" fill="currentColor" opacity="0"/><circle cx="105.183" cy="421.447" r="9" data-turn="3" fill="currentColor" opacity="0"/><circle cx="125.296" cy="290.503" r="9" data-turn="4" fill="currentColor" opacity="0"/><circle cx="476.165" cy="140.912" r="9" data-turn="5" fill="currentColor" opacity="0"/><circle cx="588.048" cy="387.06" r="9" data-turn="6" fill="currentColor" opacity="0"/><circle cx="759.948" cy="325.602" r="9" data-turn="7" fill="currentColor" opacity="0"/><circle cx="939.401" cy="518.225" r="9" data-turn="8" fill="currentColor" opacity="0"/><circle cx="904.853" cy="596.326" r="9" data-turn="9" fill="currentColor" opacity="0"/><circle cx="542.682" cy="646.652" r="9" data-turn="10" fill="currentColor" opacity="0"/><circle cx="612.401" cy="704.417" r="9" data-turn="11" fill="currentColor" opacity="0"/><circle cx="569.612" cy="859.455" r="9" data-turn="12" fill="currentColor" opacity="0"/><circle cx="369.462" cy="716.532" r="9" data-turn="13" fill="currentColor" opacity="0"/><circle cx="145.608" cy="677.912" r="9" data-turn="14" fill="currentColor" opacity="0"/><circle cx="818.007" cy="519.608" r="9" data-turn="15" fill="currentColor" opacity="0"/></g></svg>