<svg xmlns="http://www.w3.org/2000/svg" viewBox="0 0 1000 1000" fill="none" role="img" aria-label="Shanghai International Circuit track layout"><path d="M 293.425 805.177 L 227.171 821.794 L 215.093 822.912 L 200.560 822.912 L 187.596 818.758 L 178.725 815.003 L 166.989 807.494 L 158.528 799.904 L 152.046 791.276 L 147.202 781.130 L 143.176 770.904 L 142.767 760.039 L 143.176 747.577 L 144.814 738.150 L 147.611 729.122 L 152.865 721.213 L 160.166 714.423 L 176.337 707.313 L 191.280 707.313 L 202.948 711.786 L 207.793 717.059 L 211.068 722.731 L 211.409 730.640 L 209.021 741.905 L 204.176 758.841 L 202.948 766.031 L 205.814 773.221 L 212.637 780.731 L 224.373 785.204 L 237.269 782.568 L 244.161 778.094 L 248.596 770.585 L 252.622 762.995 L 256.647 752.849 L 259.104 741.585 L 259.922 728.723 L 257.875 717.858 L 251.393 705.795 L 246.958 698.285 L 233.653 682.068 L 198.103 644.040 L 170.674 608.250 L 148.020 583.804 L 119.772 551.768 L 110.902 536.669 L 106.808 525.804 L 77.741 440.323 L 68.461 414.678 L 60.409 389.433 L 60.000 383.042 L 63.616 377.770 L 70.917 374.734 L 83.404 377.051 L 96.368 385.679 L 107.217 394.706 L 118.134 406.370 L 133.487 422.188 L 146.792 441.761 L 170.264 482.824 L 201.720 538.187 L 211.818 553.606 L 221.917 565.669 L 233.243 576.614 L 246.549 583.804 L 260.741 589.076 L 275.275 592.032 L 292.197 592.032 L 307.140 589.076 L 321.673 583.804 L 336.207 574.696 L 349.990 563.432 L 360.839 550.650 L 372.575 525.405 L 390.725 486.978 L 398.435 475.314 L 406.487 467.405 L 416.585 461.414 L 431.528 454.942 L 445.652 453.824 L 457.798 454.942 L 468.715 459.097 L 478.404 465.488 L 485.228 471.160 L 491.300 477.951 L 521.186 535.950 L 528.487 543.859 L 537.358 546.496 L 545.818 544.978 L 553.529 541.942 L 583.415 502.397 L 587.440 494.488 L 587.440 487.378 L 584.984 480.187 L 511.907 355.960 L 466.259 282.142 L 416.176 199.297 L 409.353 197.060 L 402.461 198.898 L 395.979 204.570 L 388.337 213.198 L 381.036 222.225 L 374.213 226.779 L 365.683 229.415 L 356.813 227.897 L 347.943 219.988 L 337.435 208.324 L 332.181 198.898 L 328.974 190.270 L 327.337 177.407 L 328.155 165.744 L 330.202 154.479 L 333.819 143.934 L 343.508 131.152 L 352.787 123.961 L 365.683 118.289 L 379.467 115.333 L 390.384 114.215 L 403.689 114.934 L 421.020 119.088 L 432.347 123.961 L 444.083 130.353 L 460.186 145.452 L 474.379 165.424 L 627.834 400.378 L 723.565 544.978 L 773.239 620.313 L 816.840 688.459 L 874.565 774.659 L 936.384 865.094 L 940.000 873.003 L 939.591 880.512 L 934.337 885.785 L 925.876 885.066 L 908.476 876.758 L 898.378 869.567 L 887.119 861.339 L 768.804 699.723 L 763.550 696.767 L 753.861 695.968 L 605.590 731.040 L 293.425 805.177 Z" fill="none" stroke="currentColor" stroke-width="14" stroke-linecap="round" stroke-linejoin="round"/><path id="sf" d="M 297.804 822.636 L 289.046 787.718" fill="none" stroke="currentColor" stroke-width="6" opacity=".55"/><g id="turns"><circle cx="203.091" cy="711.942" r="9" data-turn="1" fill="currentColor" opacity="0"/><circle cx="219.051" cy="783.176" r="9" data-turn="2" fill="currentColor" opacity="0"/><circle cx="115.395" cy="544.317" r="9" data-turn="3" fill="currentColor" opacity="0"/><circle cx="65.655" cy="376.922" r="9" data-turn="4" fill="currentColor" opacity="0"/><circle cx="244.699" cy="582.804" r="9" data-turn="5" fill="currentColor" opacity="0"/><circle cx="452.915" cy="454.493" r="9" data-turn="6" fill="currentColor" opacity="0"/><circle cx="538.760" cy="546.244" r="9" data-turn="7" fill="currentColor" opacity="0"/><circle cx="587.440" cy="492.979" r="9" data-turn="8" fill="currentColor" opacity="0"/><circle cx="409.149" cy="197.114" r="9" data-turn="9" fill="currentColor" opacity="0"/><circle cx="360.515" cy="228.531" r="9" data-turn="10" fill="currentColor" opacity="0"/><circle cx="341.506" cy="133.792" r="9" data-turn="11" fill="currentColor" opacity="0"/><circle cx="936.833" cy="883.280" r="9" data-turn="12" fill="currentColor" opacity="0"/><circle cx="761.804" cy="696.623" r="9" data-turn="13" fill="currentColor" opacity="0"/></g></svg>