<svg xmlns="http://www.w3.org/2000/svg" viewBox="0 0 1000 1000" fill="none" role="img" aria-label="Silverstone Circuit track layout"><path d="M 550.012 68.330 L 645.723 60.000 L 662.733 61.027 L 675.815 65.363 L 684.337 71.012 L 694.508 82.823 L 700.926 96.289 L 706.117 113.235 L 713.412 141.992 L 720.882 170.235 L 725.231 201.446 L 727.090 221.074 L 729.580 268.660 L 730.632 309.285 L 732.281 325.147 L 738.313 339.982 L 749.711 360.694 L 754.516 372.505 L 754.306 381.406 L 752.201 391.847 L 736.033 434.640 L 734.981 451.872 L 737.471 464.196 L 743.293 474.695 L 759.286 497.004 L 763.003 507.275 L 763.424 519.371 L 760.724 530.383 L 750.974 542.479 L 738.523 551.380 L 721.478 561.308 L 708.221 569.125 L 698.857 578.255 L 688.090 596.285 L 666.907 636.054 L 550.433 850.420 L 512.240 909.874 L 501.438 924.423 L 492.740 932.183 L 482.569 937.318 L 471.978 940.000 L 462.228 939.201 L 451.426 936.748 L 442.307 932.754 L 434.205 926.306 L 427.331 916.036 L 425.262 912.042 L 414.881 889.447 L 403.272 869.249 L 390.821 852.588 L 382.299 842.374 L 372.760 831.876 L 355.925 814.644 L 318.363 769.740 L 314.610 767.344 L 309.420 766.773 L 304.264 769.226 L 288.482 783.491 L 283.081 785.374 L 277.680 784.803 L 273.121 782.920 L 266.667 776.758 L 259.828 769.740 L 251.306 758.443 L 245.098 746.346 L 240.714 733.965 L 236.997 719.986 L 236.576 714.337 L 237.628 708.688 L 240.714 703.325 L 248.184 691.457 L 362.799 541.966 L 388.542 508.872 L 393.908 502.653 L 403.272 496.491 L 414.460 493.809 L 423.614 493.524 L 436.275 494.608 L 471.557 499.971 L 483.201 501.341 L 495.230 501.854 L 508.943 499.971 L 521.394 496.776 L 532.582 490.557 L 605.671 432.472 L 610.441 429.277 L 616.263 426.310 L 622.260 425.739 L 626.820 427.394 L 630.993 431.160 L 633.483 435.439 L 645.934 479.031 L 649.686 485.194 L 654.842 488.959 L 660.874 489.245 L 667.538 486.278 L 671.676 480.914 L 674.377 475.266 L 679.568 461.001 L 683.706 448.905 L 686.827 437.037 L 688.476 425.511 L 689.528 413.358 L 688.686 400.748 L 686.196 395.100 L 679.778 387.853 L 442.903 171.605 L 436.485 167.554 L 427.542 162.989 L 416.564 161.391 L 405.131 162.704 L 393.522 168.352 L 389.348 173.488 L 386.438 181.019 L 381.668 220.275 L 378.967 228.320 L 373.180 234.825 L 364.447 239.104 L 354.908 240.473 L 344.316 237.735 L 336.846 232.656 L 332.287 226.722 L 328.744 219.761 L 328.113 212.230 L 329.586 204.128 L 335.373 190.947 L 365.885 130.466 L 375.670 118.883 L 385.210 109.184 L 398.923 97.373 L 410.111 89.556 L 424.245 83.622 L 436.485 79.628 L 462.438 76.376 L 550.012 68.330 Z" fill="none" stroke="currentColor" stroke-width="14" stroke-linecap="round" stroke-linejoin="round"/><path id="sf" d="M 548.452 50.398 L 551.573 86.263" fill="none" stroke="currentColor" stroke-width="6" opacity=".55"/><g id="turns"><circle cx="679.070" cy="67.521" r="9" data-turn="1" fill="currentColor" opacity="0"/><circle cx="721.156" cy="172.199" r="9" data-turn="2" fill="currentColor" opacity="0"/><circle cx="732.431" cy="325.518" r="9" data-turn="3" fill="currentColor" opacity="0"/><circle cx="754.412" cy="376.921" r="9" data-turn="4" fill="currentColor" opacity="0"/><circle cx="735.758" cy="455.718" r="9" data-turn="5" fill="currentColor" opacity="0"/><circle cx="762.651" cy="522.524" r="9" data-turn="6" fill="currentColor" opacity="0"/><circle cx="702.477" cy="574.725" r="9" data-turn="7" fill="currentColor" opacity="0"/><circle cx="476.249" cy="938.919" r="9" data-turn="8" fill="currentColor" opacity="0"/><circle cx="403.427" cy="869.519" r="9" data-turn="9" fill="currentColor" opacity="0"/><circle cx="311.816" cy="767.036" r="9" data-turn="10" fill="currentColor" opacity="0"/><circle cx="279.743" cy="785.021" r="9" data-turn="11" fill="currentColor" opacity="0"/><circle cx="236.660" cy="713.886" r="9" data-turn="12" fill="currentColor" opacity="0"/><circle cx="402.606" cy="496.929" r="9" data-turn="13" fill="currentColor" opacity="0"/><circle cx="519.128" cy="497.358" r="9" data-turn="14" fill="currentColor" opacity="0"/><circle cx="623.612" cy="426.230" r="9" data-turn="15" fill="currentColor" opacity="0"/><circle cx="658.859" cy="489.149" r="9" data-turn="16" fill="currentColor" opacity="0"/><circle cx="688.299" cy="399.869" r="9" data-turn="17" fill="currentColor" opacity="0"/><circle cx="394.872" cy="167.695" r="9" data-turn="18" fill="currentColor" opacity="0"/><circle cx="364.973" cy="238.847" r="9" data-turn="19" fill="currentColor" opacity="0"/><circle cx="413.623" cy="88.081" r="9" data-turn="20" fill="currentColor" opacity="0"/></g></svg>