<svg xmlns="http://www.w3.org/2000/svg" viewBox="0 0 1000 1000" fill="none" role="img" aria-label="Sochi Autodrom track layout"><path d="M859.709 381.021L807.967 460.994 796.332 472.98 780.382 485.23 762.813 494.723 737.732 502.519 671.35 520.232 572.836 546.748 467.502 574.75 460.644 574.007 458.14 571.992 456.561 565.469 453.825 556.241 449.472 549.506 401.813 502.996 384.707 490.481 363.517 481.995 337.974 479.768 313.124 484.753 292.126 495.731 275.714 511.004 265.697 526.013 257.683 544.256 254.717 563.984 256.103 585.992 261.806 604.713 291.433 666.231 292.126 673.231 289.391 678.747 282.572 683.732 124.995 777.493 120.18 779.456 112.667 779.721 107.196 776.486 103.536 771.713 64.546 684.474 60.886 669.731 60 657.746 61.117 644.488 71.173 593.735 72.984 589.493 76.875 587.477 81.883 585.992 210.256 566.742 213.454 565.469 216.42 562.976 218.694 559.741 226.669 527.975 227.362 523.255 227.825 517.262 227.131 512.012 187.255 399.742 187.255 395.234 188.835 391.257 191.802 387.279 196.117 384.256 236.262 368.028 254.717 363.733 272.054 360.498 295.787 358.747 316.745 359.013 340.709 361.505 363.286 365.748 402.969 372.271 424.159 377.733 445.85 385.529 469.313 395.022 550.028 431.773 572.181 439.516 592.215 443.759 614.561 445.774 637.6 444.766 659.06 440.736 691.885 431.243 698.049 432.728 700.553 436.759 710.802 471.76 715.618 476.745 723.824 479.768 732.685 479.238 745.476 476.268 759.847 469.002 772.599 457.494 783.117 442.751 806.349 409.235 807.505 405.257 807.043 402.022 802.728 398.522 781.499 382.771 777.608 377.256 776.259 369.513 778.764 362.513 812.513 310.276 842.603 261.008 866.798 223.779 872.269 220.279 879.088 222.241 933.142 246.265 938.151 249.288 940 253.743 938.613 258.781 859.709 381.021" fill="none" stroke="currentColor" stroke-width="14" stroke-linecap="round" stroke-linejoin="round"/><path id="sf" d="M 874.828 390.789 L 844.59 371.253" fill="none" stroke="currentColor" stroke-width="6" opacity=".55"/><g id="turns"><circle cx="801.258" cy="467.906" r="9" data-turn="1" fill="currentColor" opacity="0"/><circle cx="463.102" cy="574.273" r="9" data-turn="2" fill="currentColor" opacity="0"/><circle cx="447.088" cy="547.18" r="9" data-turn="3" fill="currentColor" opacity="0"/><circle cx="365.744" cy="482.887" r="9" data-turn="4" fill="currentColor" opacity="0"/><circle cx="291.167" cy="675.165" r="9" data-turn="5" fill="currentColor" opacity="0"/><circle cx="111.596" cy="779.088" r="9" data-turn="6" fill="currentColor" opacity="0"/><circle cx="60.733" cy="667.654" r="9" data-turn="7" fill="currentColor" opacity="0"/><circle cx="74.275" cy="588.824" r="9" data-turn="8" fill="currentColor" opacity="0"/><circle cx="214.696" cy="564.425" r="9" data-turn="9" fill="currentColor" opacity="0"/><circle cx="227.783" cy="516.946" r="9" data-turn="10" fill="currentColor" opacity="0"/><circle cx="188.171" cy="392.929" r="9" data-turn="11" fill="currentColor" opacity="0"/><circle cx="416.932" cy="375.87" r="9" data-turn="12" fill="currentColor" opacity="0"/><circle cx="632.489" cy="444.99" r="9" data-turn="13" fill="currentColor" opacity="0"/><circle cx="697.352" cy="432.56" r="9" data-turn="14" fill="currentColor" opacity="0"/><circle cx="716.738" cy="477.158" r="9" data-turn="15" fill="currentColor" opacity="0"/><circle cx="807.439" cy="404.797" r="9" data-turn="16" fill="currentColor" opacity="0"/><circle cx="776.965" cy="373.563" r="9" data-turn="17" fill="currentColor" opacity="0"/><circle cx="871.26" cy="220.925" r="9" data-turn="18" fill="currentColor" opacity="0"/><circle cx="939.295" cy="252.044" r="9" data-turn="19" fill="currentColor" opacity="0"/></g></svg>