<svg xmlns="http://www.w3.org/2000/svg" fill="none" aria-label="Circuit de Spa-Francorchamps track layout" role="img" viewBox="0 0 1000 1000"><path fill="none" stroke="currentColor" stroke-linecap="round" stroke-linejoin="round" stroke-width="14" d="m392.334 153.321-48.406-84.587-.514-3.797 2.147-3.371L350.036 60l4.988 1.377 15.934 8.022 38.67 18.559 18.595 11.44 19.35 14.335 17.355 14.525 13.756 15 73.924 88.147 5.201 4.937 8.919 5.553 15.934 10.301 6.984 6.93 5.896 9.399 3.779 8.544 2.51 9.588 2.146 17.706 1.24 6.265 2.147 5.791 4.112 7.595 36.523 58.433 23.251 37.119 6.44 13.861 4.112 10.3 4.837 16.566 29.177 101.818 44.747 154.602 10.371 37.167.544 6.028-1.089 6.693-3.567 5.364-5.201 4.509-6.621 3.561-3.931 3.797-2.69 4.462-2.147 6.74.363 6.693 8.949 40.063-.181 6.93-1.421 6.266-4.838 6.93-5.744 4.699-101.982 70.489-6.44 2.706-6.44.19-6.803-1.994-5.563-4.034-3.931-5.791-1.602-5.839-.363-6.266 1.965-5.838 3.568-6.028 5.2-4.225 44.566-27.531 4.838-4.937 2.661-4.936 1.088-5.792-.544-7.167-18.443-54.161-5.715-22.119-13.061-68.259-6.44-39.16-1.421-6.693-3.235-7.168-4.294-5.838-6.44-6.266-7.165-4.699-7.861-3.133-8.255-1.329-26.667-1.804-10.189 1.139-9.312 2.658-9.463 4.035-7.71 5.174-8.95 8.259-5.714 8.26-6.259 11.867-25.246 63.131-22.555 56.154-4.837 8.734-5.715 6.029-7.861 4.462-7.891 2.231-7.317.237-7.347-1.566-6.259-2.896-10.4-6.74-6.803-2.896-8.224-1.329-8.224.902-7.528 2.421-6.44 4.509-4.112 5.127-5.019 6.93-41.331 64.888-4.112 3.797-5.019 2.706-6.077 1.329-6.803-.427-5.896-2.706-27.937-20.363-16.447-12.057-4.112-5.364-4.294-6.503-2.509-6.266-1.784-7.404-.363-7.595 1.24-9.161 2.872-7.833 3.749-10.063 5.563-15.237 9.645-17.23 10.582-15 16.085-18.085 26.849-26.202 15.752-12.294 13.424-7.833 69.087-36.027 10.007-6.266 9.494-7.405 8.768-8.259 7.498-8.972 6.985-9.398 9.312-17.184 7.528-16.566 17.174-38.259 3.023-8.306 1.814-8.924.333-11.203-1.784-10.063-10.189-26.202-11.096-28.86L448.813 403l-3.417-13.386-3.205-15.901-1.965-14.763-1.27-12.531-3.93-57.958.725-3.797 2.328-2.706 3.568-.902 6.077.902h6.289l4.293-.902 2.842-3.133.726-3.56-1.784-4.699-22.011-36.028Z"/><path id="sf" fill="none" stroke="currentColor" stroke-linecap="round" stroke-width="6" d="m374.966 163.238 34.736-19.834" opacity=".55"/><g id="turns"><circle cx="345.172" cy="62.177" r="9" fill="currentColor" data-turn="1" opacity="0"/><circle cx="555.678" cy="234.319" r="9" fill="currentColor" data-turn="2" opacity="0"/><circle cx="591.004" cy="261.29" r="9" fill="currentColor" data-turn="3" opacity="0"/><circle cx="606.422" cy="313.878" r="9" fill="currentColor" data-turn="4" opacity="0"/><circle cx="770.641" cy="765.051" r="9" fill="currentColor" data-turn="5" opacity="0"/><circle cx="747.411" cy="791.332" r="9" fill="currentColor" data-turn="6" opacity="0"/><circle cx="754.158" cy="854.032" r="9" fill="currentColor" data-turn="7" opacity="0"/><circle cx="617.562" cy="935.009" r="9" fill="currentColor" data-turn="8" opacity="0"/><circle cx="673.187" cy="861.765" r="9" fill="currentColor" data-turn="9" opacity="0"/><circle cx="620.528" cy="645.795" r="9" fill="currentColor" data-turn="10" opacity="0"/><circle cx="529.434" cy="640.974" r="9" fill="currentColor" data-turn="11" opacity="0"/><circle cx="437.877" cy="809.713" r="9" fill="currentColor" data-turn="12" opacity="0"/><circle cx="377.635" cy="797.054" r="9" fill="currentColor" data-turn="13" opacity="0"/><circle cx="301.611" cy="887.901" r="9" fill="currentColor" data-turn="14" opacity="0"/><circle cx="229.862" cy="831.51" r="9" fill="currentColor" data-turn="15" opacity="0"/><circle cx="426.743" cy="627.577" r="9" fill="currentColor" data-turn="16" opacity="0"/><circle cx="485.172" cy="508.674" r="9" fill="currentColor" data-turn="17" opacity="0"/><circle cx="435.518" cy="285.883" r="9" fill="currentColor" data-turn="18" opacity="0"/><circle cx="461.215" cy="277.595" r="9" fill="currentColor" data-turn="19" opacity="0"/></g></svg>