<svg xmlns="http://www.w3.org/2000/svg" fill="none" aria-label="Suzuka International Racing Course track layout" role="img" viewBox="0 0 1000 1000"><path fill="none" stroke="currentColor" stroke-linecap="round" stroke-linejoin="round" stroke-width="14" d="m811.484 516.013 54.289 65.351 63.5 77.822 5.814 8.231 3.234 8.581L940 683.73l-.123 7.583-.941 5.836-7.411 22.898-3.521 5.986-5.118 4.54-4.298 2.444-7.738 1.896-7.042-.249-7.738-2.594-7.206-5.687-7.329-11.075-37.461-57.519-7.083-6.036-6.101-1.945-9.211-1.597-19.366-.149-9.744-2.794-6.878-4.839-5.2-6.336-2.456-6.185-8.721-33.125-3.644-8.48-5.813-7.284-6.756-4.938-8.516-3.991-8.72-1.646-22.518-.35-10.399-1.995-7.124-3.392-7.37-5.687-5.404-7.932-3.316-8.082-1.515-7.632.082-7.284 1.392-6.185 11.054-30.231 1.679-6.136.286-8.082-1.187-5.338-2.907-7.732-4.34-6.585-8.311-5.887-10.112-5.487-11.996-6.036-10.563-4.24-7.861-2.195-11.054-1.846-12.528-.2-9.867.399-8.23 2.195-6.673 2.844-10.399 4.44-10.932 6.136-12.569 10.276-9.826 10.426-41.31 50.086-2.129 2.893-6.591 1.547-60.348 5.437-3.89-.499-4.135-2.793-1.679-4.739-.737-3.991-9.171-37.714-12.241-70.838-2.334-13.02-.573-6.585.655-6.785 1.31-7.034 2.784-7.283 3.153-7.234 9.744-22.348 1.023-3.443-.737-3.142-1.842-2.894-3.152-2.145-3.644-1.147-3.521.249-4.012 2.694-3.317 4.789-14.207 24.544-11.545 18.508-7.533 10.975-6.223 7.233-5.364 4.59-9.212 7.283-9.703 5.188-10.153 3.043-17.687 2.594-16.745.699-12.61-.948-15.026-3.293-16.458-4.639-18.424-6.884-11.628-5.388-10.194-6.136-9.417-7.034-9.949-8.93-10.276-11.374-6.796-9.927-6.101-10.875-15.066-40.108-8.066-17.56-4.094-7.034-5.568-5.188-7.287-3.293-8.721-1.646-10.44.249-9.662 1.397-9.458 2.095-9.212 3.792-7.533 5.737-4.545 7.283-1.76 7.134.532 8.979 2.047 6.685 2.989 6.734 5.118 5.638 10.112 9.478 12.651 10.526 12.365 10.825 15.68 11.873 17.933 12.222 18.342 11.474 20.511 9.777 18.342 9.379 18.833 7.184 30.584 10.575 33.654 13.12 40.737 14.268 40.409 12.771 27.963 9.678 36.152 13.818 8.27 2.095 8.229.25 8.721-1.647 8.475-2.344 15.271-5.887 14.043-7.034 11.791-7.283 12.201-9.478 22.804-21.352 31.239-29.133 8.68-7.184 6.182-4.34 5.65-3.741 4.012-2.395 2.17-.199 2.866 1.197 7.042 6.286 5.077 4.24 4.135 1.197 3.889-.748 4.586-3.043 7.533-6.834 8.475-6.087 9.457-3.99 11.546-.998 10.768.598 11.381 2.345 11.382 4.44 9.662 4.639 12.119 8.232 10.891 10.126 11.177 12.472Z"/><path id="sf" fill="none" stroke="currentColor" stroke-linecap="round" stroke-width="6" d="m826.923 503.299-30.878 25.428" opacity=".55"/><g id="turns"><circle cx="939.174" cy="679.928" r="9" fill="currentColor" data-turn="1" opacity="0"/><circle cx="913.844" cy="734.18" r="9" fill="currentColor" data-turn="2" opacity="0"/><circle cx="836.781" cy="651.686" r="9" fill="currentColor" data-turn="3" opacity="0"/><circle cx="787.194" cy="641.486" r="9" fill="currentColor" data-turn="4" opacity="0"/><circle cx="757.993" cy="577.657" r="9" fill="currentColor" data-turn="5" opacity="0"/><circle cx="688.932" cy="557.389" r="9" fill="currentColor" data-turn="6" opacity="0"/><circle cx="690.105" cy="466.342" r="9" fill="currentColor" data-turn="7" opacity="0"/><circle cx="498.942" cy="519.834" r="9" fill="currentColor" data-turn="8" opacity="0"/><circle cx="427.831" cy="525.24" r="9" fill="currentColor" data-turn="9" opacity="0"/><circle cx="398.699" cy="381.441" r="9" fill="currentColor" data-turn="10" opacity="0"/><circle cx="411.392" cy="324.262" r="9" fill="currentColor" data-turn="11" opacity="0"/><circle cx="334.821" cy="407.968" r="9" fill="currentColor" data-turn="12" opacity="0"/><circle cx="128.025" cy="269.758" r="9" fill="currentColor" data-turn="13" opacity="0"/><circle cx="61.805" cy="285.568" r="9" fill="currentColor" data-turn="14" opacity="0"/><circle cx="437.245" cy="489.995" r="9" fill="currentColor" data-turn="15" opacity="0"/><circle cx="589.447" cy="388.947" r="9" fill="currentColor" data-turn="16" opacity="0"/><circle cx="614.044" cy="400.597" r="9" fill="currentColor" data-turn="17" opacity="0"/><circle cx="645.835" cy="380.317" r="9" fill="currentColor" data-turn="18" opacity="0"/></g></svg>