<svg xmlns="http://www.w3.org/2000/svg" viewBox="0 0 1000 1000" fill="none" role="img" aria-label="Circuit Mont-Tremblant track layout"><path d="M940 747.736l0 0.002c-0.037 4.607 -0.958 9.386 -2.728 13.631c-2.247 5.387 -5.847 10.303 -9.701 14.415c-3.928 4.189 -8.659 8.373 -14.208 11.062c-6.781 3.287 -14.402 5.42 -21.803 6.474a67.54 67.54 0 0 1 -21.209 -0.356c-6.539 -1.177 -13.32 -3.375 -19.239 -6.995c-29.738 -18.197 -58.1 -38.721 -87.081 -57.754c-24.384 -16.013 -47.99 -33.066 -72.939 -47.339c-15.733 -8.999 -32.789 -16.167 -49.92 -22.97c-30.55 -12.135 -61.852 -22.714 -93.031 -33.741c-53.082 -18.772 -107.107 -35.775 -159.823 -55.669c-6.603 -2.493 -11.361 -7.282 -15.851 -10.835c-4.912 -3.889 -10.945 -7.816 -15.192 -13.698c-3.973 -5.501 -7.88 -12.329 -8.616 -19.881c-2.865 -29.3 0.153 -59.502 -2.401 -87.781c-0.244 -2.687 -2.914 -6.158 -5.755 -9.599c-2.544 -3.082 -5.894 -5.927 -9.404 -8.07c-5.874 -3.582 -12.128 -6.776 -18.514 -8.848c-22.601 -7.339 -45.759 -14.13 -68.698 -19.361c-2.008 -0.456 -5.151 0.256 -8.385 1.269c-3.34 1.046 -6.731 2.593 -9.142 4.49c-2.149 1.691 -4.204 4.357 -5.559 6.995c-2.051 3.995 -3.899 8.25 -4.11 11.844c-0.372 6.318 1.547 13.567 2.401 21.246c1.586 14.269 4.345 28.841 4.867 43.631c0.209 5.95 -1.447 11.506 -2.896 16.496c-2.141 7.384 -4.605 14.984 -8.187 22.126c-4.576 9.122 -10.44 17.382 -15.718 25.604c-6.13 9.546 -11.504 20.436 -19.699 29.511c-9.93 10.997 -21.787 20.229 -33.248 29.122c-10.608 8.23 -21.993 15.268 -33.049 22.382c-7.81 5.029 -15.935 11.351 -25.155 15.002c-4.615 1.826 -9.648 1.214 -13.385 -1.304c-3.043 -2.047 -3.447 -3.172 -5.465 -5.792c-2.122 -2.761 -4.728 -8.095 -5.915 -11.287c-0.853 -2.296 -1.056 -4.808 -1.15 -7.192c-0.156 -3.827 -0.162 -7.796 0.395 -11.615c0.458 -3.15 1.404 -6.285 2.63 -9.208c1.232 -2.939 2.695 -5.931 4.769 -8.459c10.626 -12.961 22.761 -24.832 33.18 -37.841c2.898 -3.618 5.479 -7.783 6.873 -12.071c1.478 -4.537 1.296 -9.732 1.842 -14.74c1.588 -14.55 4.451 -29.048 4.507 -43.532c0.07 -18.414 -2.781 -36.926 -4.144 -55.442c-2.325 -31.582 -5.751 -63.223 -6.938 -94.811c-0.254 -6.744 0.153 -13.93 2.663 -20.237c7.049 -17.708 16.494 -34.981 25.915 -51.635c2.081 -3.686 5.505 -6.455 8.549 -9.208c3.492 -3.158 7.077 -6.985 11.379 -8.819c3.095 -1.318 6.562 -1.744 9.93 -2.018c3.682 -0.297 6.334 1.064 7.894 1.529c2.026 0.608 3.61 1.541 4.9 2.149c1.289 0.608 2.19 0.796 2.401 0.782c0.33 -0.023 2.74 -1.42 4.636 -3.123c1.287 -1.158 2.564 -3.099 3.749 -5.207c1.298 -2.311 2.112 -5.739 4.175 -9.273c1.156 -1.977 2.364 -5.71 6.447 -7.646c4.857 -2.3 9.896 -1.832 13.483 -2.374c12.204 -1.846 24.672 -4.761 37.587 -5.499c13.758 -0.786 27.444 0.452 40.778 1.042c12.151 0.536 24.865 0.231 37.39 2.44c8.23 1.451 17.186 3.815 24.566 8.784c12.959 8.729 23.627 20.538 34.627 30.747c5.321 4.937 11.948 9.84 16.443 16.725c3.584 5.489 5.483 12.198 6.117 18.35c0.559 5.397 -1.101 10.565 -2.597 14.902c-1.699 4.916 -3.895 10.317 -7.564 14.771c-3.526 4.28 -8.301 6.967 -12.366 9.372c-7.014 4.149 -14.49 6.527 -20.256 10.184c-2.063 1.306 -4.079 3.473 -5.327 5.596c-1.351 2.288 -2.348 5.354 -2.632 8.07c-0.295 2.831 0.023 6.109 0.888 8.719c1.117 3.365 3.559 6.922 5.886 10.9c18.473 31.578 37.337 62.963 55.906 94.549c11.455 19.488 21.308 40.129 33.641 57.818c1.083 1.553 4.818 2.665 9.11 4.523c11.113 4.81 22.292 10.219 32.984 13.111c4.374 -1.494 6.357 -4.998 8.715 -8.784c2.595 -3.659 5.006 -7.757 7.99 -11.713c2.81 -3.725 5.657 -8.246 9.9 -11.844c3.24 -2.749 7.264 -4.902 11.574 -5.921c45.055 -10.643 90.605 -20.526 136.08 -29.38c5.448 -1.062 10.997 -0.786 16.113 -0.033c7.067 1.038 14.083 2.957 20.718 5.303c5.209 1.84 9.996 4.47 14.47 7.126c4.785 2.841 10.029 5.849 14.47 10.051c4.363 4.134 8.011 9.063 10.982 14.122c5.194 8.842 8.833 18.256 13.221 26.844c6.103 11.948 11.92 23.966 18.547 35.333c3.942 6.762 8.772 13.193 13.582 19.816c4.314 5.941 8.565 11.846 13.252 17.147c5.491 6.21 11.514 12.081 17.693 17.828c32.38 30.133 65.554 59.562 97.996 89.801c5.149 4.797 11.621 9.668 15.821 16.463c3.203 5.188 4.085 11.398 4.339 16.756c0.033 0.651 0.033 1.293 0.033 1.953" fill="none" stroke="currentColor" stroke-width="14" stroke-linecap="round" stroke-linejoin="round"/><path id="sf" d="M 958 747.736 L 922 747.736" fill="none" stroke="currentColor" stroke-width="6" opacity=".55"/><g id="turns"><circle cx="353.524" cy="538.188" r="9" data-turn="1" fill="currentColor" opacity="0"/><circle cx="344.289" cy="431.683" r="9" data-turn="2" fill="currentColor" opacity="0"/><circle cx="227.601" cy="395.29" r="9" data-turn="3" fill="currentColor" opacity="0"/><circle cx="223.879" cy="483.372" r="9" data-turn="4" fill="currentColor" opacity="0"/><circle cx="179.175" cy="571.658" r="9" data-turn="5" fill="currentColor" opacity="0"/><circle cx="74.536" cy="639.907" r="9" data-turn="6" fill="currentColor" opacity="0"/><circle cx="105.688" cy="540.545" r="9" data-turn="7" fill="currentColor" opacity="0"/><circle cx="103.854" cy="314.013" r="9" data-turn="8" fill="currentColor" opacity="0"/><circle cx="151.123" cy="237.214" r="9" data-turn="9" fill="currentColor" opacity="0"/><circle cx="181.125" cy="236.565" r="9" data-turn="10" fill="currentColor" opacity="0"/><circle cx="196.47" cy="213.861" r="9" data-turn="11" fill="currentColor" opacity="0"/><circle cx="342.846" cy="214.808" r="9" data-turn="12" fill="currentColor" opacity="0"/><circle cx="406.015" cy="279.197" r="9" data-turn="13" fill="currentColor" opacity="0"/><circle cx="356.866" cy="343.501" r="9" data-turn="14" fill="currentColor" opacity="0"/><circle cx="454.02" cy="520.527" r="9" data-turn="15" fill="currentColor" opacity="0"/><circle cx="494.773" cy="536.767" r="9" data-turn="16" fill="currentColor" opacity="0"/><circle cx="522.634" cy="503.322" r="9" data-turn="17" fill="currentColor" opacity="0"/><circle cx="736.01" cy="493.129" r="9" data-turn="18" fill="currentColor" opacity="0"/><circle cx="939.372" cy="739.773" r="9" data-turn="19" fill="currentColor" opacity="0"/></g></svg>