<svg xmlns="http://www.w3.org/2000/svg" viewBox="0 0 1000 1000" fill="none" role="img" aria-label="Valencia Street Circuit track layout"><path d="M911.111 165.385l0 0.002a24.687 24.687 0 0 1 -2.545 21.292c-4.059 6.393 -10.728 10.6 -18.303 11.546l-62.658 7.826c-75.688 25.261 -110.338 107.123 -113.351 114.589l-83.357 344.329c-2.306 9.533 -10.842 16.189 -20.759 16.189c-2.756 0 -5.461 -0.524 -8.037 -1.559l-19.117 -7.684c-6.104 -2.455 -14.524 0.481 -16.015 8.72l-10.93 60.452c-3.04 16.801 -19.126 28.498 -36.68 25.784l-103.776 -16.266a20.141 20.141 0 0 0 -8.423 0.464c-13.594 3.694 -45.511 12.393 -61.474 16.957c-11.289 3.226 -32.467 21.277 -59.272 44.13c-15.856 13.517 -33.831 28.84 -54.973 45.716c-42.173 33.666 -82.068 62.78 -102.09 77.142c-4.552 3.261 -9.865 4.987 -15.367 4.987a26.931 26.931 0 0 1 -21.491 -10.78c-4.836 -6.499 -6.203 -14.695 -3.74 -22.496c1.184 -3.771 3.111 -7.485 5.72 -11.008c8.043 -10.87 20.793 -34.575 25.899 -44.266a5.563 5.563 0 0 0 0.42 -4.193l-7.251 -24.794c-4.669 -15.942 -2.962 -32.822 4.799 -47.54l8.352 -15.838c7.492 -14.214 20.916 -24.14 36.829 -27.234l99.402 -19.347a66.369 66.369 0 0 1 22.897 -0.397l36.236 5.768a18.031 18.031 0 0 0 8.559 -0.721l69.229 -23.415a5.755 5.755 0 0 0 1.93 -1.093l36.53 -31.268a32.226 32.226 0 0 1 15.614 -7.297c13.64 -2.273 34.834 -6.896 51.287 -10.632c-15.896 -9.163 -94.027 -54.281 -130.582 -84.784c-31.378 -26.191 -53.316 -60.4 -63.603 -78.461c-6.658 -11.687 -8.129 -25.775 -4.042 -38.642l41.813 -131.54c2.659 -8.356 10.398 -13.964 19.26 -13.964a20.333 20.333 0 0 1 10.074 2.672l9.639 5.499c9.737 5.557 22.397 5.085 31.696 -1.139l22.727 -15.24a74.042 74.042 0 0 1 16.489 -8.279l72.31 -25.642l-6.269 -17.628a18.702 18.702 0 0 1 0.618 -14.691a19.048 19.048 0 0 1 11.129 -9.758l71.848 -23.878a49.547 49.547 0 0 0 22.207 -14.993l27.526 -32.369c35.912 -32.452 75.688 -54.498 96.205 -64.752a98.211 98.211 0 0 1 37.157 -10.113l82.668 -5.743a18.568 18.568 0 0 1 14.776 7.216a18.127 18.127 0 0 1 3.203 15.992l-4.005 14.707z" fill="none" stroke="currentColor" stroke-width="14" stroke-linecap="round" stroke-linejoin="round"/><path id="sf" d="M 929.111 165.385 L 893.111 165.385" fill="none" stroke="currentColor" stroke-width="6" opacity=".55"/><g id="turns"><circle cx="909.657" cy="184.781" r="9" data-turn="1" fill="currentColor" opacity="0"/><circle cx="823.57" cy="207.466" r="9" data-turn="2" fill="currentColor" opacity="0"/><circle cx="618.384" cy="679.529" r="9" data-turn="3" fill="currentColor" opacity="0"/><circle cx="572.662" cy="672.578" r="9" data-turn="4" fill="currentColor" opacity="0"/><circle cx="543.358" cy="761.138" r="9" data-turn="5" fill="currentColor" opacity="0"/><circle cx="410.014" cy="750.516" r="9" data-turn="6" fill="currentColor" opacity="0"/><circle cx="340.792" cy="770.015" r="9" data-turn="7" fill="currentColor" opacity="0"/><circle cx="91.285" cy="927.442" r="9" data-turn="8" fill="currentColor" opacity="0"/><circle cx="121.015" cy="848.913" r="9" data-turn="9" fill="currentColor" opacity="0"/><circle cx="111.282" cy="798.249" r="9" data-turn="10" fill="currentColor" opacity="0"/><circle cx="140.298" cy="742.571" r="9" data-turn="11" fill="currentColor" opacity="0"/><circle cx="275.691" cy="711.298" r="9" data-turn="12" fill="currentColor" opacity="0"/><circle cx="327.154" cy="717.943" r="9" data-turn="13" fill="currentColor" opacity="0"/><circle cx="399.211" cy="693.951" r="9" data-turn="14" fill="currentColor" opacity="0"/><circle cx="445.862" cy="656.554" r="9" data-turn="15" fill="currentColor" opacity="0"/><circle cx="504.366" cy="643.636" r="9" data-turn="16" fill="currentColor" opacity="0"/><circle cx="305.23" cy="463.356" r="9" data-turn="17" fill="currentColor" opacity="0"/><circle cx="358.79" cy="298.261" r="9" data-turn="18" fill="currentColor" opacity="0"/><circle cx="403.833" cy="308.067" r="9" data-turn="19" fill="currentColor" opacity="0"/><circle cx="530.665" cy="253.017" r="9" data-turn="20" fill="currentColor" opacity="0"/><circle cx="524.981" cy="222.398" r="9" data-turn="21" fill="currentColor" opacity="0"/><circle cx="619.288" cy="182.762" r="9" data-turn="22" fill="currentColor" opacity="0"/><circle cx="771.168" cy="69.286" r="9" data-turn="23" fill="currentColor" opacity="0"/><circle cx="888.515" cy="66.802" r="9" data-turn="24" fill="currentColor" opacity="0"/><circle cx="889.128" cy="101.066" r="9" data-turn="25" fill="currentColor" opacity="0"/></g></svg>