<svg xmlns="http://www.w3.org/2000/svg" viewBox="0 0 1000 1000" fill="none" role="img" aria-label="Las Vegas Street Circuit track layout"><path d="M 719.658 841.267 L 744.401 813.436 L 749.648 807.590 L 753.402 801.245 L 754.653 793.700 L 751.465 786.904 L 746.258 782.557 L 736.894 779.010 L 727.973 777.561 L 719.376 778.060 L 711.343 780.459 L 693.745 791.052 L 677.478 807.191 L 671.222 811.338 L 657.539 814.386 L 650.152 814.236 L 636.792 809.739 L 629.405 805.642 L 622.544 799.796 L 611.161 784.406 L 606.560 771.365 L 603.411 385.028 L 605.793 379.182 L 610.435 376.234 L 690.112 377.733 L 714.007 377.583 L 726.480 374.685 L 731.525 370.338 L 745.612 356.598 L 751.949 347.654 L 756.793 338.010 L 760.304 329.566 L 762.403 318.574 L 763.856 305.483 L 763.453 297.788 L 759.093 295.040 L 747.549 293.741 L 743.513 291.192 L 740.042 285.846 L 738.670 277.502 L 739.315 271.406 L 750.496 252.069 L 752.433 246.923 L 757.116 238.029 L 755.420 228.685 L 746.339 222.689 L 729.467 220.790 L 603.129 217.593 L 556.469 210.797 L 541.050 203.352 L 524.016 185.814 L 509.405 156.584 L 487.043 104.020 L 472.674 88.880 L 457.780 78.637 L 442.643 73.041 L 418.950 65.396 L 392.068 60.000 L 388.395 60.899 L 384.883 63.598 L 382.139 72.791 L 379.353 79.087 L 351.462 133.600 L 334.106 166.028 L 325.064 182.467 L 315.781 198.306 L 299.757 226.137 L 283.288 263.561 L 274.570 291.842 L 265.004 324.370 L 258.586 347.654 L 253.783 370.838 L 249.948 394.322 L 245.871 428.749 L 244.862 448.835 L 243.813 472.769 L 244.257 537.574 L 244.499 574.599 L 244.620 602.680 L 239.252 749.430 L 237.637 824.729 L 237.597 862.303 L 236.144 907.572 L 238.687 911.220 L 242.158 912.419 L 250.473 912.269 L 256.608 914.617 L 270.412 928.458 L 282.481 935.353 L 298.546 938.501 L 368.496 940.000 L 460.000 938.901 L 535.278 939.350 L 572.049 938.851 L 602.160 934.654 L 633.644 928.658 L 641.837 924.910 L 648.457 920.763 L 653.745 915.767 L 719.658 841.267 Z" fill="none" stroke="currentColor" stroke-width="14" stroke-linecap="round" stroke-linejoin="round"/><path id="sf" d="M 706.206 829.308 L 733.111 853.227" fill="none" stroke="currentColor" stroke-width="6" opacity=".55"/><g id="turns"><circle cx="753.464" cy="791.165" r="9" data-turn="1" fill="currentColor" opacity="0"/><circle cx="662.086" cy="813.373" r="9" data-turn="2" fill="currentColor" opacity="0"/><circle cx="606.117" cy="378.976" r="9" data-turn="3" fill="currentColor" opacity="0"/><circle cx="724.127" cy="375.232" r="9" data-turn="4" fill="currentColor" opacity="0"/><circle cx="763.667" cy="301.870" r="9" data-turn="5" fill="currentColor" opacity="0"/><circle cx="739.766" cy="284.169" r="9" data-turn="6" fill="currentColor" opacity="0"/><circle cx="755.750" cy="230.503" r="9" data-turn="7" fill="currentColor" opacity="0"/><circle cx="547.261" cy="206.351" r="9" data-turn="8" fill="currentColor" opacity="0"/><circle cx="483.819" cy="100.622" r="9" data-turn="9" fill="currentColor" opacity="0"/><circle cx="389.260" cy="60.688" r="9" data-turn="10" fill="currentColor" opacity="0"/><circle cx="283.587" cy="262.882" r="9" data-turn="11" fill="currentColor" opacity="0"/><circle cx="236.149" cy="907.408" r="9" data-turn="12" fill="currentColor" opacity="0"/><circle cx="259.288" cy="917.304" r="9" data-turn="13" fill="currentColor" opacity="0"/><circle cx="282.098" cy="935.134" r="9" data-turn="14" fill="currentColor" opacity="0"/><circle cx="641.803" cy="924.926" r="9" data-turn="15" fill="currentColor" opacity="0"/></g></svg>