<svg xmlns="http://www.w3.org/2000/svg" viewBox="0 0 1000 1000" fill="none" role="img" aria-label="Circuit Gilles-Villeneuve track layout"><path d="M 596.549 697.206 L 607.354 747.490 L 615.404 784.553 L 619.876 811.967 L 620.485 834.582 L 613.508 895.229 L 614.796 902.478 L 619.662 907.022 L 637.658 914.985 L 641.236 917.640 L 642.954 922.898 L 642.310 928.207 L 639.769 933.517 L 634.903 937.601 L 628.749 940.000 L 620.699 940.000 L 611.826 938.060 L 590.645 932.087 L 576.226 927.237 L 562.487 919.784 L 549.357 911.106 L 519.052 885.121 L 501.055 868.275 L 497.656 863.017 L 496.834 858.677 L 497.048 854.338 L 500.197 844.690 L 501.270 838.717 L 500.626 833.867 L 498.515 829.783 L 463.989 787.667 L 457.871 782.409 L 446.207 774.190 L 439.230 768.421 L 431.609 758.313 L 427.351 747.490 L 424.382 736.413 L 423.344 727.530 L 423.559 661.829 L 423.559 656.315 L 421.233 651.976 L 416.976 648.607 L 409.569 646.922 L 399.623 649.321 L 393.898 650.036 L 386.922 648.096 L 380.982 644.267 L 376.760 640.183 L 372.932 635.129 L 370.607 630.535 L 367.422 621.397 L 364.667 610.115 L 361.519 596.127 L 361.089 584.335 L 357.046 534.050 L 357.476 506.841 L 358.120 484.940 L 360.016 460.896 L 362.556 441.905 L 365.097 426.947 L 382.879 355.273 L 385.848 348.739 L 390.106 346.135 L 394.542 345.165 L 401.090 344.655 L 406.171 342.970 L 411.072 340.111 L 416.367 334.547 L 420.375 328.064 L 423.988 319.181 L 441.556 247.711 L 448.532 208.964 L 450.858 181.754 L 451.931 153.830 L 451.717 144.692 L 450.643 135.095 L 437.727 71.537 L 437.298 67.709 L 437.727 64.339 L 440.697 60.970 L 446.421 60.000 L 450.035 61.225 L 452.575 64.084 L 453.398 66.483 L 454.901 80.675 L 457.012 102.372 L 457.871 109.570 L 460.626 117.533 L 469.928 136.524 L 478.193 153.370 L 519.911 261.188 L 524.777 275.125 L 586.602 571.113 L 589.142 583.365 L 588.534 587.449 L 585.779 590.614 L 580.878 592.503 L 577.729 595.668 L 576.441 599.241 L 576.656 603.836 L 587.890 655.090 L 596.549 697.206 Z" fill="none" stroke="currentColor" stroke-width="14" stroke-linecap="round" stroke-linejoin="round"/><path id="sf" d="M 614.147 693.425 L 578.950 700.988" fill="none" stroke="currentColor" stroke-width="6" opacity=".55"/><g id="turns"><circle cx="620.183" cy="823.378" r="9" data-turn="1" fill="currentColor" opacity="0"/><circle cx="614.521" cy="900.933" r="9" data-turn="2" fill="currentColor" opacity="0"/><circle cx="642.148" cy="928.544" r="9" data-turn="3" fill="currentColor" opacity="0"/><circle cx="497.962" cy="863.489" r="9" data-turn="4" fill="currentColor" opacity="0"/><circle cx="499.844" cy="832.354" r="9" data-turn="5" fill="currentColor" opacity="0"/><circle cx="463.962" cy="787.644" r="9" data-turn="6" fill="currentColor" opacity="0"/><circle cx="433.230" cy="760.463" r="9" data-turn="7" fill="currentColor" opacity="0"/><circle cx="419.972" cy="650.978" r="9" data-turn="8" fill="currentColor" opacity="0"/><circle cx="383.253" cy="645.731" r="9" data-turn="9" fill="currentColor" opacity="0"/><circle cx="385.339" cy="349.860" r="9" data-turn="10" fill="currentColor" opacity="0"/><circle cx="415.260" cy="335.711" r="9" data-turn="11" fill="currentColor" opacity="0"/><circle cx="451.579" cy="143.463" r="9" data-turn="12" fill="currentColor" opacity="0"/><circle cx="445.142" cy="60.217" r="9" data-turn="13" fill="currentColor" opacity="0"/><circle cx="458.719" cy="112.022" r="9" data-turn="14" fill="currentColor" opacity="0"/><circle cx="524.233" cy="273.566" r="9" data-turn="15" fill="currentColor" opacity="0"/><circle cx="588.726" cy="581.357" r="9" data-turn="16" fill="currentColor" opacity="0"/><circle cx="576.612" cy="602.892" r="9" data-turn="17" fill="currentColor" opacity="0"/></g></svg>