<svg xmlns="http://www.w3.org/2000/svg" viewBox="0 0 1000 1000" fill="none" role="img" aria-label="Watkins Glen International track layout"><path d="M331.083 240.379L341.995 74.484 345.001 67.52 352.084 61.671 362.338 60 371.974 60.39 488.923 82.283 504.118 89.079 517.172 97.491 529.114 110.526 538.214 125.455 543.774 138.937 547.438 152.473 548.88 162.389 552.133 193.529 555.963 205.729 561.234 217.65 570.622 232.023 581.988 244.222 619.502 275.084 634.409 292.52 645.198 308.174 653.31 324.217 662.946 351.625 666.364 374.075 667.805 394.241 680.859 784.132 679.994 794.048 677.03 804.41 672.912 813.1 666.652 821.902 659.117 829.311 647.751 836.553 635.274 840.786 623.62 842.067 610.525 841.51 598.46 837.834 586.518 830.87 576.14 821.623 493.164 720.627 483.24 714.945 475.004 712.661 462.898 712.772 448.979 717.897 441.196 724.47 435.06 733.272 432.219 740.068 430.819 755.722 438.602 911.032 436.79 919.221 432.672 927.745 428.101 932.591 421.018 937.27 411.218 940 400.964 939.554 391.452 935.599 383.916 929.471 377.945 920.67 373.539 912.147 372.138 901.785 349.531 633.668 351.508 624.867 356.655 618.46 364.603 613.168 372.715 611.887 384.08 613.057 396.722 617.012 488.758 660.63 498.312 661.355 505.806 659.962 514.619 654.113 521.454 646.425 526.272 635.952 526.561 626.705 493.453 483.594 487.934 474.403 481.263 466.715 472.163 460.03 462.362 456.911 456.226 455.351 346.978 448.499 335.324 442.427 327.212 433.458 320.829 421.648 319.141 408.167 331.083 240.379" fill="none" stroke="currentColor" stroke-width="14" stroke-linecap="round" stroke-linejoin="round"/><path id="sf" d="M 313.125 239.149 L 349.041 241.609" fill="none" stroke="currentColor" stroke-width="6" opacity=".55"/><g id="turns"><circle cx="348.048" cy="65.004" r="9" data-turn="1" fill="currentColor" opacity="0"/><circle cx="516.215" cy="96.874" r="9" data-turn="2" fill="currentColor" opacity="0"/><circle cx="557.449" cy="209.091" r="9" data-turn="3" fill="currentColor" opacity="0"/><circle cx="647.001" cy="311.739" r="9" data-turn="4" fill="currentColor" opacity="0"/><circle cx="656.522" cy="830.964" r="9" data-turn="5" fill="currentColor" opacity="0"/><circle cx="474.05" cy="712.669" r="9" data-turn="6" fill="currentColor" opacity="0"/><circle cx="421.497" cy="936.954" r="9" data-turn="7" fill="currentColor" opacity="0"/><circle cx="356.708" cy="618.425" r="9" data-turn="8" fill="currentColor" opacity="0"/><circle cx="506.925" cy="659.22" r="9" data-turn="9" fill="currentColor" opacity="0"/><circle cx="479.449" cy="465.383" r="9" data-turn="10" fill="currentColor" opacity="0"/><circle cx="333.994" cy="440.956" r="9" data-turn="11" fill="currentColor" opacity="0"/></g></svg>