<svg xmlns="http://www.w3.org/2000/svg" viewBox="0 0 1000 1000" fill="none" role="img" aria-label="Yas Marina Circuit track layout"><path d="M 494.881 553.005 L 617.274 536.416 L 623.738 534.257 L 628.598 529.201 L 631.959 522.213 L 632.580 515.282 L 630.770 508.010 L 611.173 424.726 L 607.812 415.636 L 603.210 408.932 L 595.557 402.513 L 589.145 399.331 L 554.449 388.537 L 542.918 382.686 L 534.334 376.834 L 526.578 369.505 L 520.735 362.631 L 516.392 356.893 L 511.117 344.281 L 509.204 334.680 L 509.049 324.227 L 511.169 311.842 L 515.099 298.833 L 523.734 265.712 L 526.785 241.170 L 527.095 223.729 L 525.544 208.617 L 515.978 130.900 L 509.618 81.929 L 508.377 76.248 L 507.187 71.646 L 503.516 66.931 L 497.259 61.761 L 493.485 60.454 L 489.141 60.000 L 485.005 60.682 L 480.558 62.443 L 477.248 65.795 L 475.232 68.919 L 472.698 74.146 L 465.097 96.757 L 457.858 129.480 L 396.635 312.013 L 372.746 382.686 L 359.509 422.112 L 349.581 452.677 L 339.239 490.626 L 317.366 560.504 L 296.528 623.450 L 294.098 629.586 L 293.477 634.187 L 294.098 636.857 L 296.425 639.527 L 301.699 639.698 L 321.193 637.369 L 325.485 637.369 L 328.949 641.516 L 340.015 683.556 L 342.290 691.453 L 349.270 708.893 L 355.631 721.392 L 369.333 741.332 L 384.949 759.512 L 404.598 776.385 L 487.900 842.115 L 506.877 857.511 L 521.821 868.191 L 541.780 881.087 L 558.896 890.972 L 586.560 904.323 L 611.845 915.685 L 649.437 933.467 L 665.518 939.943 L 674.567 940.000 L 684.133 938.068 L 692.872 933.012 L 697.526 928.524 L 700.628 924.093 L 703.731 917.560 L 705.489 911.197 L 706.523 905.289 L 705.695 895.517 L 703.731 888.416 L 700.938 881.542 L 696.853 875.406 L 691.062 869.839 L 683.875 865.010 L 676.273 861.658 L 665.208 860.067 L 577.511 853.023 L 566.704 851.602 L 562.050 850.580 L 557.138 848.819 L 510.031 819.391 L 505.274 815.811 L 502.068 811.721 L 498.656 802.972 L 487.693 751.672 L 488.417 747.638 L 490.951 744.912 L 494.777 743.832 L 533.869 737.981 L 538.471 736.049 L 541.418 734.515 L 544.521 731.334 L 547.623 725.482 L 548.347 718.267 L 548.451 682.760 L 545.607 676.682 L 542.091 673.046 L 536.765 671.001 L 529.474 669.410 L 523.114 668.558 L 514.633 668.274 L 506.257 668.899 L 424.661 681.454 L 417.629 681.965 L 408.683 681.624 L 399.945 680.090 L 393.946 678.102 L 389.965 674.466 L 385.828 670.035 L 363.438 629.358 L 351.856 610.668 L 349.426 605.157 L 347.719 597.828 L 347.150 591.579 L 347.047 584.080 L 348.288 578.967 L 351.287 575.274 L 355.010 573.400 L 363.542 571.866 L 494.881 553.005 Z" fill="none" stroke="currentColor" stroke-width="14" stroke-linecap="round" stroke-linejoin="round"/><path id="sf" d="M 492.463 535.168 L 497.298 570.841" fill="none" stroke="currentColor" stroke-width="6" opacity=".55"/><g id="turns"><circle cx="628.836" cy="528.708" r="9" data-turn="1" fill="currentColor" opacity="0"/><circle cx="603.149" cy="408.881" r="9" data-turn="2" fill="currentColor" opacity="0"/><circle cx="511.083" cy="344.108" r="9" data-turn="3" fill="currentColor" opacity="0"/><circle cx="526.912" cy="233.999" r="9" data-turn="4" fill="currentColor" opacity="0"/><circle cx="488.912" cy="60.038" r="9" data-turn="5" fill="currentColor" opacity="0"/><circle cx="293.823" cy="635.676" r="9" data-turn="6" fill="currentColor" opacity="0"/><circle cx="328.271" cy="640.704" r="9" data-turn="7" fill="currentColor" opacity="0"/><circle cx="352.728" cy="715.689" r="9" data-turn="8" fill="currentColor" opacity="0"/><circle cx="690.318" cy="934.490" r="9" data-turn="9" fill="currentColor" opacity="0"/><circle cx="561.687" cy="850.450" r="9" data-turn="10" fill="currentColor" opacity="0"/><circle cx="502.086" cy="811.744" r="9" data-turn="11" fill="currentColor" opacity="0"/><circle cx="488.699" cy="747.335" r="9" data-turn="12" fill="currentColor" opacity="0"/><circle cx="543.936" cy="731.934" r="9" data-turn="13" fill="currentColor" opacity="0"/><circle cx="544.356" cy="675.388" r="9" data-turn="14" fill="currentColor" opacity="0"/><circle cx="394.202" cy="678.187" r="9" data-turn="15" fill="currentColor" opacity="0"/><circle cx="348.200" cy="579.331" r="9" data-turn="16" fill="currentColor" opacity="0"/></g></svg>