<svg xmlns="http://www.w3.org/2000/svg" viewBox="0 0 1000 1000" fill="none" role="img" aria-label="Korean International Circuit track layout"><path d="M937.979 116.312a22.899 22.899 0 0 0 -16.61 -13.18l-33.321 -6.315c-19.782 -3.745 -40.974 1.164 -57.14 13.24l-607.134 453.239c-1.252 0.927 -2.691 0.593 -3.581 -0.422c-0.485 -0.542 -0.669 -1.173 -0.577 -1.993l50.103 -452.944c1.103 -9.896 -3.833 -19.295 -12.563 -23.938a29.467 29.467 0 0 0 -13.739 -3.444c-12.376 0 -23.521 7.883 -27.748 19.608l-19.788 54.907c-1.588 4.393 -6.2 5.161 -9.188 3.495l-32.739 -18.065a24.024 24.024 0 0 0 -11.556 -2.998c-12.02 0 -22.013 8.701 -23.764 20.689c-6.591 45.124 -17.539 125.175 -16.782 154.356c0.467 17.922 7.285 44.799 20.265 79.877c6.978 18.855 2.265 40.153 -12.004 54.269a775.564 775.564 0 0 0 -23.079 23.875c-28.199 30.427 -34.986 74.581 -17.292 112.496l41.483 88.875c8.37 17.93 25.649 30.435 45.087 32.619c8.347 0.941 17.772 1.414 28.021 1.414c22.362 0 44.872 -2.243 60.33 -4.16c1.432 0 2.316 0.788 2.715 1.261c0.473 0.548 0.99 1.492 0.788 2.834c-3.647 24.024 -10.598 73.378 -16.203 134.025c-3.683 39.836 14.592 67.239 51.47 77.159a68.553 68.553 0 0 0 17.793 2.357c30.227 0 57.14 -19.639 66.971 -48.867l2.255 -6.698c4.175 -12.397 15.675 -20.725 28.618 -20.725c3.256 0 6.477 0.548 9.569 1.631c26.349 9.215 57.646 18.376 79.251 24.439c20.408 5.73 42.695 -1.743 55.73 -18.593l67.871 -87.798c5.615 -7.262 16.166 -9.593 24.509 -5.386c15.245 7.715 32.86 14.175 52.354 19.223a33.355 33.355 0 0 0 8.302 1.06c17.951 0 32.631 -14.243 33.417 -32.424c0.757 -17.461 1.809 -36.136 2.505 -48.028c0.675 -11.353 -4.764 -22.172 -14.2 -28.229c-36.889 -23.693 -56.231 -47.692 -57.486 -71.342c-1.357 -25.553 19.006 -47.553 36.333 -61.513c4.86 -3.917 9.028 -8.791 12.384 -14.468l227.167 -384.115a23.267 23.267 0 0 0 1.203 -21.302z" fill="none" stroke="currentColor" stroke-width="14" stroke-linecap="round" stroke-linejoin="round"/><path id="sf" d="M 921.533 123.629 L 954.424 108.994" fill="none" stroke="currentColor" stroke-width="6" opacity=".55"/><g id="turns"><circle cx="937.979" cy="116.312" r="9" data-turn="1" fill="currentColor" opacity="0"/><circle cx="860.239" cy="97.05" r="9" data-turn="2" fill="currentColor" opacity="0"/><circle cx="222.463" cy="563.809" r="9" data-turn="3" fill="currentColor" opacity="0"/><circle cx="261.603" cy="87.056" r="9" data-turn="4" fill="currentColor" opacity="0"/><circle cx="192.054" cy="158.981" r="9" data-turn="5" fill="currentColor" opacity="0"/><circle cx="130.059" cy="140.901" r="9" data-turn="6" fill="currentColor" opacity="0"/><circle cx="102.316" cy="319.6" r="9" data-turn="7" fill="currentColor" opacity="0"/><circle cx="124.302" cy="420.258" r="9" data-turn="8" fill="currentColor" opacity="0"/><circle cx="67.59" cy="500.953" r="9" data-turn="9" fill="currentColor" opacity="0"/><circle cx="133.005" cy="696.418" r="9" data-turn="10" fill="currentColor" opacity="0"/><circle cx="246.91" cy="702.66" r="9" data-turn="11" fill="currentColor" opacity="0"/><circle cx="245.624" cy="893.989" r="9" data-turn="12" fill="currentColor" opacity="0"/><circle cx="386.907" cy="845.744" r="9" data-turn="13" fill="currentColor" opacity="0"/><circle cx="514.273" cy="869.62" r="9" data-turn="14" fill="currentColor" opacity="0"/><circle cx="622.522" cy="755.904" r="9" data-turn="15" fill="currentColor" opacity="0"/><circle cx="713.63" cy="773.069" r="9" data-turn="16" fill="currentColor" opacity="0"/><circle cx="728.514" cy="679.787" r="9" data-turn="17" fill="currentColor" opacity="0"/><circle cx="660.837" cy="595.607" r="9" data-turn="18" fill="currentColor" opacity="0"/><circle cx="705.55" cy="527.698" r="9" data-turn="19" fill="currentColor" opacity="0"/></g></svg>