<svg xmlns="http://www.w3.org/2000/svg" viewBox="0 0 1000 1000" fill="none" role="img" aria-label="Circuit Zandvoort track layout"><path d="M 167.488 467.676 L 266.126 229.226 L 303.615 141.721 L 312.096 132.054 L 323.588 126.616 L 336.125 125.005 L 347.741 127.422 L 358.680 134.873 L 366.301 144.238 L 370.357 155.919 L 370.664 168.909 L 359.786 194.184 L 328.505 270.311 L 318.426 305.756 L 314.370 342.712 L 316.521 377.351 L 313.263 391.449 L 305.581 400.914 L 290.217 413.401 L 273.685 419.946 L 228.023 437.769 L 216.285 446.631 L 213.089 459.721 L 212.659 471.503 L 217.391 483.486 L 226.241 492.045 L 237.303 496.576 L 254.265 496.174 L 337.908 469.489 L 376.748 462.239 L 410.242 461.131 L 439.865 463.346 L 467.889 468.079 L 487.862 474.222 L 520.557 481.170 L 550.733 483.788 L 572.120 479.357 L 597.870 472.610 L 628.844 457.002 L 665.227 433.238 L 689.871 421.557 L 711.811 415.213 L 740.757 411.991 L 763.558 412.494 L 858.631 418.335 L 880.571 423.370 L 900.913 433.540 L 915.356 445.926 L 924.636 459.117 L 933.670 474.222 L 938.464 491.642 L 940.000 510.070 L 938.279 528.094 L 932.994 546.421 L 921.563 566.359 L 877.867 625.972 L 861.765 652.455 L 825.260 731.301 L 807.745 737.443 L 786.112 739.960 L 765.401 738.953 L 741.003 734.825 L 715.683 726.165 L 688.580 713.175 L 661.724 694.043 L 645.130 675.615 L 642.119 664.337 L 644.762 652.455 L 655.086 637.552 L 669.836 628.086 L 691.530 620.131 L 728.589 614.291 L 764.295 605.329 L 796.867 592.842 L 814.874 580.155 L 821.696 564.949 L 822.618 548.334 L 816.779 531.820 L 801.722 516.816 L 788.202 512.084 L 717.957 503.524 L 647.220 503.726 L 572.058 512.788 L 508.512 528.799 L 469.179 541.185 L 425.791 557.296 L 384.308 574.918 L 350.506 594.957 L 338.092 600.294 L 329.242 598.582 L 320.946 587.103 L 312.096 570.387 L 299.927 562.835 L 284.317 562.231 L 269.076 569.380 L 260.964 580.356 L 257.215 592.138 L 260.964 616.103 L 295.011 814.879 L 295.748 828.171 L 291.999 841.765 L 285.977 853.244 L 280.138 860.595 L 265.696 870.363 L 250.270 873.887 L 184.880 874.995 L 171.544 874.290 L 152.124 871.269 L 132.027 864.724 L 115.495 857.172 L 93.494 839.852 L 79.175 820.719 L 69.403 804.306 L 62.274 782.152 L 60.000 762.718 L 62.028 730.998 L 68.051 708.442 L 162.387 479.559 L 167.488 467.676 Z" fill="none" stroke="currentColor" stroke-width="14" stroke-linecap="round" stroke-linejoin="round"/><path id="sf" d="M 150.855 460.796 L 184.121 474.557" fill="none" stroke="currentColor" stroke-width="6" opacity=".55"/><g id="turns"><circle cx="347.453" cy="127.362" r="9" data-turn="1" fill="currentColor" opacity="0"/><circle cx="318.249" cy="307.364" r="9" data-turn="2" fill="currentColor" opacity="0"/><circle cx="309.588" cy="395.978" r="9" data-turn="3" fill="currentColor" opacity="0"/><circle cx="213.734" cy="474.225" r="9" data-turn="4" fill="currentColor" opacity="0"/><circle cx="383.912" cy="462.002" r="9" data-turn="5" fill="currentColor" opacity="0"/><circle cx="553.668" cy="483.180" r="9" data-turn="6" fill="currentColor" opacity="0"/><circle cx="701.540" cy="418.183" r="9" data-turn="7" fill="currentColor" opacity="0"/><circle cx="911.719" cy="442.807" r="9" data-turn="8" fill="currentColor" opacity="0"/><circle cx="868.897" cy="640.725" r="9" data-turn="9" fill="currentColor" opacity="0"/><circle cx="817.647" cy="733.971" r="9" data-turn="10" fill="currentColor" opacity="0"/><circle cx="643.051" cy="660.145" r="9" data-turn="11" fill="currentColor" opacity="0"/><circle cx="822.353" cy="553.094" r="9" data-turn="12" fill="currentColor" opacity="0"/><circle cx="338.742" cy="600.015" r="9" data-turn="13" fill="currentColor" opacity="0"/><circle cx="280.478" cy="564.032" r="9" data-turn="14" fill="currentColor" opacity="0"/><circle cx="284.098" cy="855.610" r="9" data-turn="15" fill="currentColor" opacity="0"/><circle cx="105.399" cy="849.223" r="9" data-turn="16" fill="currentColor" opacity="0"/></g></svg>