<svg xmlns="http://www.w3.org/2000/svg" viewBox="0 0 1000 1000" fill="none" role="img" aria-label="Zeltweg track layout"><path d="M74 748.95l509.969 -507.55c35.032 -28.986 56.99 -35.441 94.187 -38.003c37.176 -2.56 79.763 13.994 93.147 26.549c51.164 47.996 63.881 61.552 149.867 146.28c14.008 13.806 17.755 20.8 18.733 33.836c0.896 11.786 -4.412 22.155 -18.733 36.439c-14.821 14.784 -19.566 18.469 -23.938 18.22c-5.89 -0.354 -10.052 -4.478 -14.049 -8.329c-76.35 -73.816 -121.247 -120.251 -184.733 -183.759c-11.282 -11.286 -25.125 -14.577 -41.11 -14.055c-16.736 0.561 -32.099 8.182 -39.548 15.617c-170.621 170.058 -345.633 344.176 -520.375 517.962c-8.264 8.225 -23.105 4.478 -29.142 -2.081c-7.971 -8.683 -15.965 -17.346 5.724 -41.126" fill="none" stroke="currentColor" stroke-width="14" stroke-linecap="round" stroke-linejoin="round"/><path id="sf" d="M 61.303 736.192 L 86.698 761.708" fill="none" stroke="currentColor" stroke-width="6" opacity=".55"/><g id="turns"><circle cx="763.244" cy="223.992" r="9" data-turn="1" fill="currentColor" opacity="0"/><circle cx="939.916" cy="414.801" r="9" data-turn="2" fill="currentColor" opacity="0"/><circle cx="897.511" cy="464.728" r="9" data-turn="3" fill="currentColor" opacity="0"/><circle cx="683.228" cy="262.464" r="9" data-turn="4" fill="currentColor" opacity="0"/><circle cx="61.289" cy="780.581" r="9" data-turn="5" fill="currentColor" opacity="0"/></g></svg>