<svg xmlns="http://www.w3.org/2000/svg" viewBox="0 0 1000 1000" fill="none" role="img" aria-label="Zolder track layout"><path d="M248.74 708.211c-40.853 26.193 -34.407 72.585 14.925 96.426c7.929 3.832 12.311 6.142 46.742 24.253c17.481 9.195 35.944 38.886 35.944 61.611c0 26.993 -14.931 34.231 -31.424 39.706c-14.732 4.891 -36.255 9.27 -59.312 9.781c-17.676 0.39 -53.619 -9.586 -71.488 -42.444c-16.536 -30.403 -30.742 -56.885 -55.974 -103.662c-18.461 -34.231 2.161 -62.589 23.371 -76.868c20.322 -13.682 232.737 -157.024 265.616 -179.128c1.436 -0.968 2.509 -1.732 3.249 -2.182c22.98 -14.083 8.249 -19.95 13.553 -31.686c5.768 -12.764 14.141 -6.066 21.274 -18.266c2.322 -3.974 4.648 -8.043 7.202 -12.049c15.712 -24.646 50.965 -88.363 57.154 -100.342c24.744 -47.92 28.085 -52.81 29.851 -93.297c0.597 -13.689 -1.934 -26.794 -5.107 -36.186c-16.302 -48.311 -21.985 -62.643 -32.208 -100.73c-5.303 -19.757 -2.356 -26.6 15.124 -40.096c8.82 -6.811 44.3 -32.409 53.615 -38.135c15.91 -9.779 48.757 -4.687 66.579 12.716c20.032 19.558 26.909 26.6 51.654 46.549c10.601 8.549 20.352 16.261 30.442 22.103c10.418 6.03 20.495 10.367 31.817 14.671c33.978 12.908 88.69 34.103 104.679 40.098c18.266 6.847 14.925 20.341 4.32 27.772c-18.259 12.8 -20.041 13.796 -28.085 18.583c-15.124 8.998 -21.409 30.513 -33.781 39.118c-19.161 13.326 -118.028 81.196 -181.388 124.421c-1.375 0.936 -18.225 11.79 -41.132 26.573c-10.603 6.847 -10.015 15.843 -1.375 27.97c8.989 12.613 3.82 23.015 -5.564 29.079c-32.083 20.723 -296.103 191.733 -330.276 213.639z" fill="none" stroke="currentColor" stroke-width="14" stroke-linecap="round" stroke-linejoin="round"/><path id="sf" d="M 258.456 723.364 L 239.025 693.058" fill="none" stroke="currentColor" stroke-width="6" opacity=".55"/><g id="turns"><circle cx="222.18" cy="746.225" r="9" data-turn="1" fill="currentColor" opacity="0"/><circle cx="340.368" cy="914.083" r="9" data-turn="2" fill="currentColor" opacity="0"/><circle cx="197.367" cy="915.257" r="9" data-turn="3" fill="currentColor" opacity="0"/><circle cx="121.166" cy="763.268" r="9" data-turn="4" fill="currentColor" opacity="0"/><circle cx="431.272" cy="526.711" r="9" data-turn="5" fill="currentColor" opacity="0"/><circle cx="436.159" cy="500.159" r="9" data-turn="6" fill="currentColor" opacity="0"/><circle cx="548.465" cy="261.575" r="9" data-turn="7" fill="currentColor" opacity="0"/><circle cx="511.553" cy="119.744" r="9" data-turn="8" fill="currentColor" opacity="0"/><circle cx="591.068" cy="61.035" r="9" data-turn="9" fill="currentColor" opacity="0"/><circle cx="879.008" cy="215.144" r="9" data-turn="10" fill="currentColor" opacity="0"/><circle cx="834.886" cy="253.316" r="9" data-turn="11" fill="currentColor" opacity="0"/><circle cx="813.44" cy="282.128" r="9" data-turn="12" fill="currentColor" opacity="0"/><circle cx="578.436" cy="446.734" r="9" data-turn="13" fill="currentColor" opacity="0"/><circle cx="588.214" cy="483.933" r="9" data-turn="14" fill="currentColor" opacity="0"/></g></svg>