<?xml version="1.0" encoding="UTF-8"?> <svg xmlns="http://www.w3.org/2000/svg" id="uuid-4e928c0f-4bd9-40f9-a82f-bd9889a4ac1d" data-name="Layer 2" width="480" height="480" viewBox="0 0 480 480"><g id="uuid-e9c28175-7f9c-47fe-8588-0ac6c1174222" data-name="uuid-b3c54bee-a0c2-471c-b048-5a53920b166b"><rect width="480" height="480" style="fill: none; stroke-width: 0px;"></rect><path d="M7.97638,333.59507l134.64591-163.92018-33.17313,163.92018H7.97638ZM143.11128,167.72413l67.32164-81.96009-16.58656,81.96009h-50.73508ZM126.52472,251.63234l67.32164-81.95747-16.58656,81.95745h-50.73508v.00002Z" style="fill: #cc2229; fill-rule: evenodd; stroke-width: 0px;"></path><g><path d="M185.41505,337.68844c9.83519,0,10.62656-3.62543,10.62656-20.02007,0-16.62599-.79137-20.36975-10.62656-20.36975-9.83519-.00262-10.62393,3.7411-10.62393,20.36975,0,16.39465.78875,20.02007,10.62393,20.02007Z" style="fill: none; stroke-width: 0px;"></path><path d="M377.22663,337.68844c9.83256,0,10.62398-3.62543,10.62398-20.02007,0-16.62599-.79142-20.36975-10.62398-20.36975s-10.62389,3.7411-10.62389,20.36975c0,16.39465.79132,20.02007,10.62389,20.02007Z" style="fill: none; stroke-width: 0px;"></path><path d="M382.49517,381.77473c-2.10583,0-3.7831,0-3.7831,3.29154,0,3.24946.98581,3.55447,3.7831,3.55447,2.20837,0,3.82001-.26292,3.82001-3.55447,0-3.20477-1.77723-3.29154-3.82001-3.29154Z" style="fill: none; stroke-width: 0px;"></path><path d="M231.93312,364.60189h-6.19135v11.45994h6.19135v.00265c3.39412-.08678,4.05137-.92018,4.05137-5.5315,0-4.65601-.49429-5.97052-4.05137-5.93109Z" style="fill: none; stroke-width: 0px;"></path><path d="M333.47428,373.03581c-3.58871,0-3.82001,1.01216-3.82001,5.09507h7.73722c0-4.74539-.52319-5.09507-3.91721-5.09507Z" style="fill: none; stroke-width: 0px;"></path><path d="M242.73848,317.66837c0-16.62599-.79132-20.36975-10.62656-20.36975-9.83256-.00262-10.62389,3.7411-10.62389,20.36975,0,16.39465.7887,20.02007,10.62389,20.02007,9.83786,0,10.62656-3.62543,10.62656-20.02007Z" style="fill: none; stroke-width: 0px;"></path><path d="M164.90595,381.77473c-2.10583,0-3.78582,0-3.78582,3.29154,0,3.24946.98591,3.55447,3.78582,3.55447,2.20837,0,3.82264-.26292,3.82264-3.55447,0-3.20477-1.77985-3.29154-3.82264-3.29154Z" style="fill: none; stroke-width: 0px;"></path><path d="M200.532,373.03577c-2.86563,0-3.68852,1.09893-3.68852,6.8907,0,5.22654-.09992,8.2578,3.68852,8.2578,4.24849,0,4.08552-2.76835,4.08552-8.2578,0-4.91367-.49429-6.8907-4.08552-6.8907Z" style="fill: none; stroke-width: 0px;"></path><path d="M418.93362,373.03577c-3.68847,0-3.9856,1.40654-3.9856,7.63998,0,6.14668.29713,7.50588,3.9856,7.50588,3.69125,0,3.99095-1.36185,3.99095-7.50588,0-6.23344-.29713-7.63998-3.99095-7.63998Z" style="fill: none; stroke-width: 0px;"></path><path d="M454.25729,381.77473c-2.10851,0-3.78844,0-3.78844,3.29154,0,3.24946.99115,3.55447,3.78844,3.55447,2.20837,0,3.82001-.26292,3.82001-3.55447,0-3.20477-1.77723-3.29154-3.82001-3.29154Z" style="fill: none; stroke-width: 0px;"></path><path d="M137.97418,311.83456l25.81694-.13885c-.04637,1.83356-.06557,3.78125-.06557,5.85436,0,23.76906,2.46076,31.38012,21.6895,31.38012s21.6895-7.61105,21.6895-31.38011c0-23.88215-2.45814-31.49318-21.6895-31.49318-12.39918,0-17.8249,3.16568-20.11582,11.81426l-23.72858.1347,3.59915-23.31688,30.90693-.15511,2.22416-14.41236-43.55256.21558-16.48663,87.88856,12.64301-.06836,7.06948-36.32272ZM185.41505,297.29862c9.83519,0,10.62656,3.74375,10.62656,20.36975,0,16.39465-.79137,20.02007-10.62656,20.02007s-10.62393-3.62543-10.62393-20.02007c0-16.62864.78875-20.37237,10.62393-20.36975Z" style="fill: #fff; stroke-width: 0px;"></path><path d="M253.80142,317.55008c0-23.88215-2.46076-31.49318-21.6895-31.49318-19.23136,0-21.6895,7.61104-21.6895,31.49317,0,23.76906,2.46076,31.38012,21.6895,31.38012s21.6895-7.61105,21.6895-31.38011ZM221.48803,317.66837c0-16.62864.79132-20.37237,10.62389-20.36975,9.83524,0,10.62656,3.74375,10.62656,20.36975,0,16.39465-.7887,20.02007-10.62656,20.02007-9.83519,0-10.62389-3.62543-10.62389-20.02007Z" style="fill: #fff; stroke-width: 0px;"></path><path d="M289.96383,324.6958h-9.74586c0,6.43847.69932,12.99004-5.5341,12.99004-4.6534,0-4.6534-2.57119-4.74015-8.19471v-31.49583h17.64867v-3.93777l-1.24087-7.3013h1.24087v-.00004h-17.64867v-13.93124h-11.06562v13.93126h-5.79698v11.23909h5.79703v31.61413c0,15.57441,3.68852,19.31814,15.80572,19.31814,11.94107,0,15.45346-5.61823,15.27996-24.23178Z" style="fill: #fff; stroke-width: 0px;"></path><polygon points="253.08107 286.75622 253.08112 286.75622 253.08112 286.7562 253.08107 286.75622" style="fill: #fff; stroke-width: 0px;"></polygon><path d="M377.22663,348.93019c19.22874,0,21.6895-7.61105,21.6895-31.38011,0-23.88215-2.46076-31.49318-21.6895-31.49318s-21.6895,7.61104-21.6895,31.49317c0,23.76906,2.46076,31.38012,21.6895,31.38012ZM377.22663,297.29862c9.83256,0,10.62398,3.74375,10.62398,20.36975,0,16.39465-.79142,20.02007-10.62398,20.02007s-10.62389-3.62543-10.62389-20.02007c0-16.62864.79132-20.36975,10.62389-20.36975Z" style="fill: #fff; stroke-width: 0px;"></path><path d="M426.29483,286.0569c-5.35525,0-10.09545,1.98754-12.29333,8.78096h-.43639l.26288-8.08163h-10.80006v61.47466h11.06037v-37.93694c-.17351-7.96335,1.75615-12.99531,8.34455-12.99531,3.04107,0,4.44654,1.25198,5.08979,3.53877v-14.73151c-.39719-.02904-.803-.04901-1.22781-.04901Z" style="fill: #fff; stroke-width: 0px;"></path><polygon points="287.59239 294.05754 296.79927 348.23089 312.86793 348.23089 321.0311 298.81823 321.29923 298.81823 329.54915 348.23089 345.35487 348.23089 355.89205 286.75623 345.18137 286.75623 337.27845 338.15909 336.92877 338.15909 328.06113 286.75623 314.27444 286.75623 305.3147 338.15909 305.05182 338.15909 297.23571 286.75623 287.59239 286.75623 286.35152 286.75623 287.59239 294.05754" style="fill: #fff; stroke-width: 0px;"></polygon><rect x="255.7627" y="359.20708" width="4.15386" height="4.69809" style="fill: #fff; stroke-width: 0px;"></rect><path d="M250.56508,368.81884c-2.00859,0-3.79106.74928-4.61133,3.2968h-.16297l.09729-3.02863h-4.05137v23.04612h4.14862v-14.22307c-.0631-2.98398.6625-4.87424,3.13113-4.87424,1.94292,0,2.10588,1.3592,2.10588,3.68589v1.18571h3.88836v-1.84296c0-4.34314-.88861-7.24561-4.54561-7.24561Z" style="fill: #fff; stroke-width: 0px;"></path><path d="M231.93574,359.20711h-10.93675v32.92604h4.7454v-10.666h6.19135c6.45696,0,8.79415-1.62212,8.79415-10.93153,0-9.22267-2.1716-11.32851-8.79415-11.32851ZM231.93312,376.06448v-.00265h-6.19135v-11.45994h6.19135c3.55708-.03943,4.05137,1.27508,4.05137,5.93109,0,4.61132-.65726,5.44472-4.05137,5.5315Z" style="fill: #fff; stroke-width: 0px;"></path><polygon points="438.58826 348.23089 438.58826 320.7128 441.30933 320.7128 456.67856 348.23089 470.02362 348.23089 450.35315 315.68083 466.68473 286.75622 454.2179 286.75622 441.30933 310.64361 438.58826 310.64361 438.58826 260.41332 427.52264 260.41332 427.52264 286.10591 427.52264 300.83742 427.52264 348.23089 438.58826 348.23089" style="fill: #fff; stroke-width: 0px;"></polygon><path d="M185.0575,368.81884c-2.43711,0-4.51142.35489-5.43423,3.73321h-.13144v-3.46773h-4.15386v23.04612h4.15124v-12.68773c0-4.12495.49162-6.40958,4.11704-6.40958,2.66847,0,3.22848,1.13837,3.22848,4.47725v14.62007h4.15124v-15.18791c0-5.61821-1.38286-8.12369-5.92847-8.12369Z" style="fill: #fff; stroke-width: 0px;"></path><path d="M165.03744,368.82148c-3.95146,0-7.41129.26557-7.41129,6.98272h4.15129c0-2.98919,1.4512-3.20477,3.26263-3.20477,3.45716,0,3.68852,1.31451,3.68852,5.04774v2.98393h-.13144c-.98853-2.58695-3.06284-2.63428-5.17135-2.63428-4.28268,0-6.45691,1.53797-6.45691,7.06945,0,6.23344,2.53703,7.33238,6.45691,7.33238,2.00859,0,4.54561-.08678,5.36851-3.16273h.09992l-.16826,2.8972h4.15124v-14.44391c0-7.72672-2.30567-8.86773-7.83976-8.86773ZM164.90595,388.62074c-2.79991,0-3.78582-.30501-3.78582-3.55447,0-3.29154,1.67998-3.29154,3.78582-3.29154,2.04278,0,3.82264.08677,3.82264,3.29154,0,3.29155-1.61426,3.55447-3.82264,3.55447Z" style="fill: #fff; stroke-width: 0px;"></path><path d="M152.16569,368.81884c-2.01121,0-3.78844.74928-4.61133,3.2968h-.16564l.09992-3.02863h-4.05132v23.04612h4.15119v-14.22307c-.06572-2.98398.65993-4.87424,3.12856-4.87424,1.94287,0,2.10851,1.3592,2.10851,3.68589v1.18571h3.88573v-1.84296c0-4.34314-.88861-7.24561-4.54561-7.24561Z" style="fill: #fff; stroke-width: 0px;"></path><path d="M204.68324,372.15767h-.16569c-.88857-2.81044-3.09694-3.33889-5.20282-3.33889-5.93109,0-6.62255,4.35105-6.62255,11.10768,0,7.0695.19983,12.47213,6.62255,12.47213,2.43711,0,4.34578-.70459,5.40003-3.73321h.13144l-.16297,3.46505h4.15124v-32.92336h-4.15124v12.9506ZM200.532,388.18428c-3.78844,0-3.68852-3.03127-3.68852-8.2578,0-5.79177.82289-6.8907,3.68852-6.8907,3.59123,0,4.08552,1.97703,4.08552,6.8907,0,5.48946.16297,8.2578-4.08552,8.2578Z" style="fill: #fff; stroke-width: 0px;"></path><path d="M131.06505,379.44536h6.22555v1.18571c0,6.2387-1.38286,6.36751-5.8969,6.36751-5.27121,0-6.05996-.70455-6.12568-7.59525v-7.55321c.06572-6.36486.59416-7.50588,6.12568-7.50588,4.11704,0,5.8969-.04204,5.8969,4.78487h4.71125c.16297-10.58184-4.57981-10.18751-10.60815-10.18751-7.63998,0-10.87108,1.93499-10.87108,12.90856v7.55321c0,11.15234,2.96555,12.9953,10.87108,12.9953,8.7941,0,10.63967-2.01912,10.63967-11.7702v-5.96795h-10.96832v4.78485Z" style="fill: #fff; stroke-width: 0px;"></path><polygon points="276.11666 369.08696 271.30549 369.08696 268.3058 376.46139 265.30868 369.08696 260.56857 369.08696 265.60581 380.01849 259.91656 392.11068 259.91656 369.08696 255.7627 369.08696 255.7627 392.13308 259.90602 392.13308 259.91656 392.13308 264.85126 392.13308 268.3058 383.70703 271.79978 392.13308 276.67667 392.13308 271.07418 380.01849 276.11666 369.08696" style="fill: #fff; stroke-width: 0px;"></polygon><path d="M321.88814,383.31008c0,2.41345.26293,4.87423-2.07431,4.87423-1.74571,0-1.74571-.96486-1.78248-3.07596v-11.80437h6.62517v-4.21699h-6.62517v-5.22653h-4.14862v5.22653h-2.1716l.00005.00005v4.21433h2.1716v11.85167c0,5.83906,1.38281,7.24561,5.93109,7.24561,4.47722,0,5.79698-2.1111,5.73126-9.08857h-3.657Z" style="fill: #fff; stroke-width: 0px;"></path><path d="M305.4935,368.81884c-2.43711,0-4.51147.35489-5.43685,3.73321h-.12882v-3.46773h-4.15386v23.04612h4.15386v-12.68773c0-4.12495.49162-6.40958,4.11704-6.40958,2.66584,0,3.22586,1.13837,3.22586,4.47725v14.62007h4.15386v-15.18791c0-5.61821-1.38553-8.12369-5.93109-8.12369Z" style="fill: #fff; stroke-width: 0px;"></path><rect x="288.46522" y="359.20711" width="4.74545" height="32.92597" style="fill: #fff; stroke-width: 0px;"></rect><path d="M333.47428,388.18435c-3.72272,0-3.82001-1.58008-3.82001-6.54104h11.89109c0-10.05344-.95434-12.82179-8.07107-12.82179-6.98272,0-7.96863,3.59911-7.96863,11.85691,0,8.91507,1.34866,11.72286,7.96863,11.72286,4.93994,0,8.07107-.35494,8.07107-7.59525h-4.15376c0,3.42564-1.61164,3.3783-3.91731,3.3783ZM333.47428,373.03581c3.39402,0,3.91721.34969,3.91721,5.09507h-7.73722c0-4.08291.23131-5.09507,3.82001-5.09507Z" style="fill: #fff; stroke-width: 0px;"></path><path d="M418.93095,368.82143c-7.20869,0-8.13412,2.85513-8.13412,11.80963,0,8.91506.92534,11.77019,8.13412,11.77019,7.21403,0,8.13947-2.85513,8.13947-11.77019,0-8.9571-.92534-11.80963-8.13947-11.80963ZM418.93362,388.18163c-3.68847,0-3.9856-1.3592-3.9856-7.50588,0-6.23344.29713-7.63998,3.9856-7.63998,3.69382,0,3.99095,1.40654,3.99095,7.63998,0,6.14403-.2997,7.50588-3.99095,7.50588Z" style="fill: #fff; stroke-width: 0px;"></path><path d="M438.61716,368.81884c-2.43186,0-4.51147.35489-5.43156,3.73321h-.13411v-3.46773h-4.14862v23.04612h4.14862v-12.68773c0-4.12495.49686-6.40958,4.11704-6.40958,2.67109,0,3.2311,1.13837,3.2311,4.47725v14.62007h4.14862v-15.18791c0-5.61821-1.38291-8.12369-5.93109-8.12369Z" style="fill: #fff; stroke-width: 0px;"></path><path d="M454.39398,368.82148c-3.95413,0-7.41387.26557-7.41387,6.98272h4.14862c0-2.98919,1.45387-3.20477,3.26525-3.20477,3.45449,0,3.6859,1.31451,3.6859,5.04774v2.98393h-.13411c-.98591-2.58695-3.06017-2.63428-5.17125-2.63428-4.28273,0-6.45428,1.53797-6.45428,7.06945,0,6.23344,2.53698,7.33238,6.45428,7.33238,2.01378,0,4.54561-.08678,5.37108-3.16273h.0972l-.16292,2.8972h4.14862v-14.44391c0-7.72672-2.30299-8.86773-7.83452-8.86773ZM454.25729,388.62074c-2.79729,0-3.78844-.30501-3.78844-3.55447,0-3.29154,1.67994-3.29154,3.78844-3.29154,2.04278,0,3.82001.08677,3.82001,3.29154,0,3.29155-1.61164,3.55447-3.82001,3.55447Z" style="fill: #fff; stroke-width: 0px;"></path><rect x="464.72341" y="359.20711" width="4.14862" height="32.92597" style="fill: #fff; stroke-width: 0px;"></rect><rect x="405.04181" y="359.20708" width="4.14862" height="4.69809" style="fill: #fff; stroke-width: 0px;"></rect><path d="M351.71186,368.81884c-2.01388,0-3.79111.74928-4.61133,3.2968h-.16301l.09729-3.02863h-4.05132v23.04612h4.14862v-14.22307c-.06829-2.98398.66255-4.87424,3.13123-4.87424,1.94282,0,2.10583,1.3592,2.10583,3.68589v1.18571h3.88831v-1.84296c0-4.34314-.88861-7.24561-4.54561-7.24561Z" style="fill: #fff; stroke-width: 0px;"></path><rect x="405.04181" y="369.08696" width="4.14862" height="23.04612" style="fill: #fff; stroke-width: 0px;"></rect><polygon points="341.54535 384.80604 341.54545 384.80604 341.54535 384.806 341.54535 384.80604" style="fill: #fff; stroke-width: 0px;"></polygon><path d="M366.86038,368.81884c-2.43711,0-4.51147.35489-5.4369,3.73321h-.12877v-3.46773h-4.15386v23.04612h4.15386v-12.68773c0-4.12495.49162-6.40958,4.1117-6.40958,2.67119,0,3.2312,1.13837,3.2312,4.47725v14.62007h4.14852v-15.18791c0-5.61821-1.38013-8.12369-5.92575-8.12369Z" style="fill: #fff; stroke-width: 0px;"></path><path d="M382.63186,368.82148c-3.95403,0-7.40852.26557-7.40852,6.98272h4.14862c0-2.98919,1.44863-3.20477,3.26-3.20477,3.45974,0,3.6859,1.31451,3.6859,5.04774v2.98393h-.12887c-.99115-2.58695-3.06541-2.63428-5.17649-2.63428-4.27749,0-6.45428,1.53797-6.45428,7.06945,0,6.23344,2.53698,7.33238,6.45428,7.33238,2.01378,0,4.55086-.08678,5.37108-3.16273h.0972l-.16301,2.8972h4.15386v-14.44391c0-7.72672-2.30567-8.86773-7.83976-8.86773ZM382.49517,388.62074c-2.79729,0-3.7831-.30501-3.7831-3.55447,0-3.29154,1.67726-3.29154,3.7831-3.29154,2.04278,0,3.82001.08677,3.82001,3.29154,0,3.29155-1.61164,3.55447-3.82001,3.55447Z" style="fill: #fff; stroke-width: 0px;"></path><path d="M401.00098,383.31008c0,2.41345.26288,4.87423-2.0796,4.87423-1.74031,0-1.74031-.96486-1.77723-3.07596v-11.80437h6.62522v-4.21699h-6.62522v-5.22653h-4.14852v5.22653h-2.1769v4.21438h2.1769v11.85167c0,5.83906,1.38013,7.24561,5.92575,7.24561,4.48257,0,5.80232-2.1111,5.7366-9.08857h-3.657Z" style="fill: #fff; stroke-width: 0px;"></path></g></g></svg> 